<svg xmlns="http://www.w3.org/2000/svg" viewBox="0 0 600 470" width="600" height="470" style="width: 100%; height: 100%; transform: translate3d(0px, 0px, 0px);" preserveAspectRatio="xMidYMid meet"><defs><clipPath id="__lottie_element_41"><rect width="600" height="470" x="0" y="0"></rect></clipPath><mask id="__lottie_element_45" mask-type="alpha"><g id="ClipPath-2" style="display: block;" transform="matrix(1,0,0,1,22.12799072265625,37.51899719238281)" opacity="1"><g opacity="1" transform="matrix(1,0,0,1,63.518001556396484,191.99400329589844)"><path fill="rgb(255,255,255)" fill-opacity="1" d=" M0,0 C0,0 -2.4100000858306885,31.674999237060547 2.253999948501587,62.17100143432617 C6.918000221252441,92.66699981689453 16.604999542236328,138.2310028076172 16.604999542236328,138.2310028076172 C16.604999542236328,138.2310028076172 6.199999809265137,170.8800048828125 6.199999809265137,170.8800048828125 C6.199999809265137,170.8800048828125 5.195000171661377,173.6009979248047 9.03600025177002,174.49400329589844 C12.876999855041504,175.38699340820312 9.03600025177002,229.01199340820312 9.03600025177002,229.01199340820312 C9.03600025177002,229.01199340820312 -77.38400268554688,229.01199340820312 -77.38400268554688,229.01199340820312 C-77.38400268554688,229.01199340820312 -77.38400268554688,-223.3159942626953 -77.38400268554688,-223.3159942626953 C-77.38400268554688,-223.3159942626953 506.09698486328125,-223.3159942626953 506.09698486328125,-223.3159942626953 C506.09698486328125,-223.3159942626953 506.09698486328125,13.175000190734863 506.09698486328125,13.175000190734863 C506.09698486328125,13.175000190734863 345.8330078125,13.175000190734863 345.8330078125,13.175000190734863 C345.8330078125,13.175000190734863 345.8330078125,-54.03099822998047 345.8330078125,-54.03099822998047 C345.8330078125,-54.03099822998047 344.114013671875,-69.01100158691406 329.8909912109375,-69.01100158691406 C315.6679992675781,-69.01100158691406 242.72799682617188,-69.01100158691406 242.72799682617188,-69.01100158691406 C242.72799682617188,-69.01100158691406 240.4770050048828,-94.10600280761719 240.4770050048828,-94.10600280761719 C240.4770050048828,-94.10600280761719 236.0449981689453,-120.36699676513672 207.48699951171875,-119.21800231933594 C178.9290008544922,-118.06900024414062 172.8560028076172,-114.29399871826172 172.8560028076172,-114.29399871826172 C172.8560028076172,-114.29399871826172 0,0 0,0 C0,0 0,0 0,0z"></path></g></g></mask><mask id="__lottie_element_120" mask-type="alpha"><g id="ClipPath-1" style="display: block;" transform="matrix(1,0,0,1,208.06201171875,220.59799194335938)" opacity="1"><g opacity="1" transform="matrix(1,0,0,1,-208.52499389648438,-220.69500732421875)"><path fill="rgb(255,255,255)" fill-opacity="1" d=" M355.0889892578125,168.4949951171875 C343.66400146484375,168.4949951171875 343.66400146484375,183.39700317382812 332.239990234375,183.39700317382812 C320.81500244140625,183.39700317382812 320.81500244140625,168.4949951171875 309.3909912109375,168.4949951171875 C297.96600341796875,168.4949951171875 297.96600341796875,183.39700317382812 286.5409851074219,183.39700317382812 C275.11700439453125,183.39700317382812 275.11700439453125,168.4949951171875 263.6919860839844,168.4949951171875 C252.26800537109375,168.4949951171875 252.26800537109375,183.39700317382812 240.84300231933594,183.39700317382812 C229.41799926757812,183.39700317382812 229.41799926757812,168.4949951171875 217.99400329589844,168.4949951171875 C206.56900024414062,168.4949951171875 206.56900024414062,183.39700317382812 195.14500427246094,183.39700317382812 C183.72000122070312,183.39700317382812 183.72000122070312,168.4949951171875 172.2949981689453,168.4949951171875 C172.2949981689453,168.4949951171875 172.2949981689453,390.69500732421875 172.2949981689453,390.69500732421875 C172.2949981689453,390.69500732421875 355.2550048828125,390.69500732421875 355.2550048828125,390.69500732421875 C355.2550048828125,390.69500732421875 355.2550048828125,168.4949951171875 355.2550048828125,168.4949951171875 C355.2550048828125,168.4949951171875 355.0889892578125,168.4949951171875 355.0889892578125,168.4949951171875 C355.0889892578125,168.4949951171875 355.0889892578125,168.4949951171875 355.0889892578125,168.4949951171875z"></path></g></g></mask></defs><g clip-path="url(#__lottie_element_41)"><g style="display: block;" mask="url(#__lottie_element_45)"><g transform="matrix(1,0,0,1,22.12799072265625,37.51899719238281)" opacity="1"><g id="coins" opacity="1" transform="matrix(0.9995719194412231,0,0,0.9995719194412231,-5.468658447265625,-3.7136077880859375)"><g opacity="1" transform="matrix(1,0,0,1,424.32501220703125,82.875)"><g opacity="1" transform="matrix(1,0,0,1,-441.32501220703125,-116.69499969482422)"><path stroke-linecap="round" stroke-linejoin="round" fill-opacity="0" stroke="rgb(0,0,0)" stroke-opacity="1" stroke-width="2" d=" M540.2249755859375,204.09500122070312 C564.3599853515625,204.09500122070312 583.9249877929688,184.52999877929688 583.9249877929688,160.39500427246094 C583.9249877929688,136.25999450683594 564.3599853515625,116.69499969482422 540.2249755859375,116.69499969482422 C516.0900268554688,116.69499969482422 496.5249938964844,136.25999450683594 496.5249938964844,160.39500427246094 C496.5249938964844,184.52999877929688 516.0900268554688,204.09500122070312 540.2249755859375,204.09500122070312 C540.2249755859375,204.09500122070312 540.2249755859375,204.09500122070312 540.2249755859375,204.09500122070312z"></path></g><g opacity="1" transform="matrix(1,0,0,1,-441.32501220703125,-116.69499969482422)"><path stroke-linecap="round" stroke-linejoin="round" fill-opacity="0" stroke="rgb(0,0,0)" stroke-opacity="1" stroke-width="2" d=" M540.2249755859375,116.69499969482422 C540.2249755859375,116.69499969482422 527.625,116.69499969482422 527.625,116.69499969482422 C503.5249938964844,116.69499969482422 483.92498779296875,136.2949981689453 483.92498779296875,160.39500427246094 C483.92498779296875,184.4949951171875 503.5249938964844,204.09500122070312 527.625,204.09500122070312 C527.625,204.09500122070312 540.2249755859375,204.09500122070312 540.2249755859375,204.09500122070312"></path></g><g opacity="1" transform="matrix(1,0,0,1,-441.32501220703125,-116.69499969482422)"><path stroke-linecap="round" stroke-linejoin="round" fill-opacity="0" stroke="rgb(0,0,0)" stroke-opacity="1" stroke-width="2" d=" M527.625,172.9949951171875 C527.625,179.9949951171875 533.2249755859375,185.59500122070312 540.2249755859375,185.59500122070312 C547.2249755859375,185.59500122070312 552.8250122070312,179.9949951171875 552.8250122070312,172.9949951171875 C552.8250122070312,165.9949951171875 547.2249755859375,160.39500427246094 540.2249755859375,160.39500427246094 C533.2249755859375,160.39500427246094 527.625,154.7949981689453 527.625,147.7949981689453 C527.625,140.7949981689453 533.2249755859375,135.19500732421875 540.2249755859375,135.19500732421875 C547.2249755859375,135.19500732421875 552.8250122070312,140.7949981689453 552.8250122070312,147.7949981689453"></path></g><g opacity="1" transform="matrix(1,0,0,1,-441.32501220703125,-116.69499969482422)"><path stroke-linecap="round" stroke-linejoin="round" fill-opacity="0" stroke="rgb(0,0,0)" stroke-opacity="1" stroke-width="2" d=" M540.2249755859375,135.09500122070312 C540.2249755859375,135.09500122070312 540.2249755859375,127.3949966430664 540.2249755859375,127.3949966430664"></path></g><g opacity="1" transform="matrix(1,0,0,1,-441.32501220703125,-116.69499969482422)"><path stroke-linecap="round" stroke-linejoin="round" fill-opacity="0" stroke="rgb(0,0,0)" stroke-opacity="1" stroke-width="2" d=" M540.2249755859375,193.2949981689453 C540.2249755859375,193.2949981689453 540.2249755859375,185.59500122070312 540.2249755859375,185.59500122070312"></path></g><g opacity="1" transform="matrix(1,0,0,1,-441.32501220703125,-116.69499969482422)"><path stroke-linecap="round" stroke-linejoin="round" fill-opacity="0" stroke="rgb(0,0,0)" stroke-opacity="1" stroke-width="2" d=" M496.5249938964844,129.7949981689453 C496.5249938964844,129.7949981689453 509.0249938964844,129.7949981689453 509.0249938964844,129.7949981689453"></path></g><g opacity="1" transform="matrix(1,0,0,1,-441.32501220703125,-116.69499969482422)"><path stroke-linecap="round" stroke-linejoin="round" fill-opacity="0" stroke="rgb(0,0,0)" stroke-opacity="1" stroke-width="2" d=" M488.42498779296875,141.9949951171875 C488.42498779296875,141.9949951171875 500.42498779296875,141.9949951171875 500.42498779296875,141.9949951171875"></path></g><g opacity="1" transform="matrix(1,0,0,1,-441.32501220703125,-116.69499969482422)"><path stroke-linecap="round" stroke-linejoin="round" fill-opacity="0" stroke="rgb(0,0,0)" stroke-opacity="1" stroke-width="2" d=" M484.625,154.2949981689453 C484.625,154.2949981689453 496.5249938964844,154.2949981689453 496.5249938964844,154.2949981689453"></path></g><g opacity="1" transform="matrix(1,0,0,1,-441.32501220703125,-116.69499969482422)"><path stroke-linecap="round" stroke-linejoin="round" fill-opacity="0" stroke="rgb(0,0,0)" stroke-opacity="1" stroke-width="2" d=" M484.625,166.4949951171875 C484.625,166.4949951171875 496.5249938964844,166.4949951171875 496.5249938964844,166.4949951171875"></path></g><g opacity="1" transform="matrix(1,0,0,1,-441.32501220703125,-116.69499969482422)"><path stroke-linecap="round" stroke-linejoin="round" fill-opacity="0" stroke="rgb(0,0,0)" stroke-opacity="1" stroke-width="2" d=" M488.42498779296875,178.69500732421875 C488.42498779296875,178.69500732421875 500.42498779296875,178.69500732421875 500.42498779296875,178.69500732421875"></path></g><g opacity="1" transform="matrix(1,0,0,1,-441.32501220703125,-116.69499969482422)"><path stroke-linecap="round" stroke-linejoin="round" fill-opacity="0" stroke="rgb(0,0,0)" stroke-opacity="1" stroke-width="2" d=" M475.0249938964844,181.39500427246094 C475.0249938964844,181.39500427246094 452.625,198.19500732421875 452.625,198.19500732421875"></path></g><g opacity="1" transform="matrix(1,0,0,1,-441.32501220703125,-116.69499969482422)"><path stroke-linecap="round" stroke-linejoin="round" fill-opacity="0" stroke="rgb(0,0,0)" stroke-opacity="1" stroke-width="2" d=" M468.32501220703125,160.39500427246094 C468.32501220703125,160.39500427246094 441.32501220703125,160.39500427246094 441.32501220703125,160.39500427246094"></path></g><g opacity="1" transform="matrix(1,0,0,1,-441.32501220703125,-116.69499969482422)"><path stroke-linecap="round" stroke-linejoin="round" fill-opacity="0" stroke="rgb(0,0,0)" stroke-opacity="1" stroke-width="2" d=" M475.0249938964844,139.39500427246094 C475.0249938964844,139.39500427246094 452.625,122.59500122070312 452.625,122.59500122070312"></path></g><g opacity="1" transform="matrix(1,0,0,1,-441.32501220703125,-116.69499969482422)"><path stroke-linecap="round" stroke-linejoin="round" fill-opacity="0" stroke="rgb(0,0,0)" stroke-opacity="1" stroke-width="2" d=" M496.5249938964844,190.89500427246094 C496.5249938964844,190.89500427246094 509.0249938964844,190.89500427246094 509.0249938964844,190.89500427246094"></path></g></g><g opacity="1" transform="matrix(1,0,0,1,0,293.5740051269531)"><g opacity="1" transform="matrix(1,0,0,1,-17,-327.3949890136719)"><path stroke-linecap="round" stroke-linejoin="round" fill-opacity="0" stroke="rgb(0,0,0)" stroke-opacity="1" stroke-width="2" d=" M51.224998474121094,412.8949890136719 C66.91000366210938,412.8949890136719 79.625,400.17999267578125 79.625,384.4949951171875 C79.625,368.80999755859375 66.91000366210938,356.0950012207031 51.224998474121094,356.0950012207031 C35.540000915527344,356.0950012207031 22.825000762939453,368.80999755859375 22.825000762939453,384.4949951171875 C22.825000762939453,400.17999267578125 35.540000915527344,412.8949890136719 51.224998474121094,412.8949890136719 C51.224998474121094,412.8949890136719 51.224998474121094,412.8949890136719 51.224998474121094,412.8949890136719z"></path></g><g opacity="1" transform="matrix(1,0,0,1,-17,-327.3949890136719)"><path stroke-linecap="round" stroke-linejoin="round" fill-opacity="0" stroke="rgb(0,0,0)" stroke-opacity="1" stroke-width="2" d=" M31.125,364.3949890136719 C31.125,364.3949890136719 25.325000762939453,370.19500732421875 25.325000762939453,370.19500732421875 C14.225000381469727,381.2950134277344 14.225000381469727,399.2950134277344 25.325000762939453,410.3949890136719 C36.42499923706055,421.4949951171875 54.42499923706055,421.4949951171875 65.5250015258789,410.3949890136719 C65.5250015258789,410.3949890136719 71.32499694824219,404.5950012207031 71.32499694824219,404.5950012207031"></path></g><g opacity="1" transform="matrix(1,0,0,1,-17,-327.3949890136719)"><path stroke-linecap="round" stroke-linejoin="round" fill-opacity="0" stroke="rgb(0,0,0)" stroke-opacity="1" stroke-width="2" d=" M51.224998474121094,396.0950012207031 C54.42499923706055,399.2950134277344 59.625,399.2950134277344 62.82500076293945,396.0950012207031 C66.0250015258789,392.8949890136719 66.0250015258789,387.69500732421875 62.82500076293945,384.4949951171875 C59.625,381.2950134277344 54.42499923706055,381.2950134277344 51.224998474121094,384.4949951171875 C48.025001525878906,387.69500732421875 42.82500076293945,387.69500732421875 39.625,384.4949951171875 C36.42499923706055,381.2950134277344 36.42499923706055,376.0950012207031 39.625,372.8949890136719 C42.82500076293945,369.69500732421875 48.025001525878906,369.69500732421875 51.224998474121094,372.8949890136719"></path></g><g opacity="1" transform="matrix(1,0,0,1,-17,-327.3949890136719)"><path stroke-linecap="round" stroke-linejoin="round" fill-opacity="0" stroke="rgb(0,0,0)" stroke-opacity="1" stroke-width="2" d=" M39.625,372.8949890136719 C39.625,372.8949890136719 36.025001525878906,369.2950134277344 36.025001525878906,369.2950134277344"></path></g><g opacity="1" transform="matrix(1,0,0,1,-17,-327.3949890136719)"><path stroke-linecap="round" stroke-linejoin="round" fill-opacity="0" stroke="rgb(0,0,0)" stroke-opacity="1" stroke-width="2" d=" M66.32499694824219,399.5950012207031 C66.32499694824219,399.5950012207031 62.82500076293945,396.0950012207031 62.82500076293945,396.0950012207031"></path></g><g opacity="1" transform="matrix(1,0,0,1,-17,-327.3949890136719)"><path stroke-linecap="round" stroke-linejoin="round" fill-opacity="0" stroke="rgb(0,0,0)" stroke-opacity="1" stroke-width="2" d=" M17.024999618530273,390.4949951171875 C17.024999618530273,390.4949951171875 22.825000762939453,384.7950134277344 22.825000762939453,384.7950134277344"></path></g><g opacity="1" transform="matrix(1,0,0,1,-17,-327.3949890136719)"><path stroke-linecap="round" stroke-linejoin="round" fill-opacity="0" stroke="rgb(0,0,0)" stroke-opacity="1" stroke-width="2" d=" M18.924999237060547,399.8949890136719 C18.924999237060547,399.8949890136719 24.424999237060547,394.3949890136719 24.424999237060547,394.3949890136719"></path></g><g opacity="1" transform="matrix(1,0,0,1,-17,-327.3949890136719)"><path stroke-linecap="round" stroke-linejoin="round" fill-opacity="0" stroke="rgb(0,0,0)" stroke-opacity="1" stroke-width="2" d=" M22.825000762939453,407.19500732421875 C22.825000762939453,407.19500732421875 28.325000762939453,401.7950134277344 28.325000762939453,401.7950134277344"></path></g><g opacity="1" transform="matrix(1,0,0,1,-17,-327.3949890136719)"><path stroke-linecap="round" stroke-linejoin="round" fill-opacity="0" stroke="rgb(0,0,0)" stroke-opacity="1" stroke-width="2" d=" M28.424999237060547,412.8949890136719 C28.424999237060547,412.8949890136719 33.92499923706055,407.3949890136719 33.92499923706055,407.3949890136719"></path></g><g opacity="1" transform="matrix(1,0,0,1,-17,-327.3949890136719)"><path stroke-linecap="round" stroke-linejoin="round" fill-opacity="0" stroke="rgb(0,0,0)" stroke-opacity="1" stroke-width="2" d=" M35.82500076293945,416.7950134277344 C35.82500076293945,416.7950134277344 41.32500076293945,411.19500732421875 41.32500076293945,411.19500732421875"></path></g><g opacity="1" transform="matrix(1,0,0,1,-17,-327.3949890136719)"><path stroke-linecap="round" stroke-linejoin="round" fill-opacity="0" stroke="rgb(0,0,0)" stroke-opacity="1" stroke-width="2" d=" M37.224998474121094,349.2950134277344 C37.224998474121094,349.2950134277344 26.325000762939453,334.69500732421875 26.325000762939453,334.69500732421875"></path></g><g opacity="1" transform="matrix(1,0,0,1,-17,-327.3949890136719)"><path stroke-linecap="round" stroke-linejoin="round" fill-opacity="0" stroke="rgb(0,0,0)" stroke-opacity="1" stroke-width="2" d=" M50.92499923706055,344.8949890136719 C50.92499923706055,344.8949890136719 50.92499923706055,327.3949890136719 50.92499923706055,327.3949890136719"></path></g><g opacity="1" transform="matrix(1,0,0,1,-17,-327.3949890136719)"><path stroke-linecap="round" stroke-linejoin="round" fill-opacity="0" stroke="rgb(0,0,0)" stroke-opacity="1" stroke-width="2" d=" M64.625,349.2950134277344 C64.625,349.2950134277344 75.5250015258789,334.69500732421875 75.5250015258789,334.69500732421875"></path></g><g opacity="1" transform="matrix(1,0,0,1,-17,-327.3949890136719)"><path stroke-linecap="round" stroke-linejoin="round" fill-opacity="0" stroke="rgb(0,0,0)" stroke-opacity="1" stroke-width="2" d=" M45.125,418.5950012207031 C45.125,418.5950012207031 50.92499923706055,412.8949890136719 50.92499923706055,412.8949890136719"></path></g></g><g opacity="1" transform="matrix(1,0,0,1,301.95001220703125,0)"><g opacity="1" transform="matrix(1,0,0,1,-318.95001220703125,-33.81999969482422)"><path stroke-linecap="round" stroke-linejoin="round" fill-opacity="0" stroke="rgb(0,0,0)" stroke-opacity="1" stroke-width="2" d=" M358.625,106.3949966430664 C376.7950134277344,106.3949966430664 391.5249938964844,91.66500091552734 391.5249938964844,73.49500274658203 C391.5249938964844,55.32500076293945 376.7950134277344,40.595001220703125 358.625,40.595001220703125 C340.4549865722656,40.595001220703125 325.7250061035156,55.32500076293945 325.7250061035156,73.49500274658203 C325.7250061035156,91.66500091552734 340.4549865722656,106.3949966430664 358.625,106.3949966430664 C358.625,106.3949966430664 358.625,106.3949966430664 358.625,106.3949966430664z"></path></g><g opacity="1" transform="matrix(1,0,0,1,-318.95001220703125,-33.81999969482422)"><path stroke-linecap="round" stroke-linejoin="round" fill-opacity="0" stroke="rgb(0,0,0)" stroke-opacity="1" stroke-width="2" d=" M381.92498779296875,50.19499969482422 C381.92498779296875,50.19499969482422 375.2250061035156,43.494998931884766 375.2250061035156,43.494998931884766 C362.32501220703125,30.594999313354492 341.5249938964844,30.594999313354492 328.625,43.494998931884766 C315.7250061035156,56.39500045776367 315.7250061035156,77.19499969482422 328.625,90.09500122070312 C328.625,90.09500122070312 335.32501220703125,96.79499816894531 335.32501220703125,96.79499816894531"></path></g><g opacity="1" transform="matrix(1,0,0,1,-318.95001220703125,-33.81999969482422)"><path stroke-linecap="round" stroke-linejoin="round" fill-opacity="0" stroke="rgb(0,0,0)" stroke-opacity="1" stroke-width="2" d=" M345.2250061035156,73.49500274658203 C341.5249938964844,77.19499969482422 341.5249938964844,83.19499969482422 345.2250061035156,86.8949966430664 C348.92498779296875,90.59500122070312 354.92498779296875,90.59500122070312 358.625,86.8949966430664 C362.32501220703125,83.19499969482422 362.32501220703125,77.19499969482422 358.625,73.49500274658203 C354.92498779296875,69.79499816894531 354.92498779296875,63.79499816894531 358.625,60.095001220703125 C362.32501220703125,56.39500045776367 368.32501220703125,56.39500045776367 372.0249938964844,60.095001220703125 C375.7250061035156,63.79499816894531 375.7250061035156,69.79499816894531 372.0249938964844,73.49500274658203"></path></g><g opacity="1" transform="matrix(1,0,0,1,-318.95001220703125,-33.81999969482422)"><path stroke-linecap="round" stroke-linejoin="round" fill-opacity="0" stroke="rgb(0,0,0)" stroke-opacity="1" stroke-width="2" d=" M372.0249938964844,60.095001220703125 C372.0249938964844,60.095001220703125 376.2250061035156,55.994998931884766 376.2250061035156,55.994998931884766"></path></g><g opacity="1" transform="matrix(1,0,0,1,-318.95001220703125,-33.81999969482422)"><path stroke-linecap="round" stroke-linejoin="round" fill-opacity="0" stroke="rgb(0,0,0)" stroke-opacity="1" stroke-width="2" d=" M341.125,91.09500122070312 C341.125,91.09500122070312 345.2250061035156,86.99500274658203 345.2250061035156,86.99500274658203"></path></g><g opacity="1" transform="matrix(1,0,0,1,-318.95001220703125,-33.81999969482422)"><path stroke-linecap="round" stroke-linejoin="round" fill-opacity="0" stroke="rgb(0,0,0)" stroke-opacity="1" stroke-width="2" d=" M351.625,33.89500045776367 C351.625,33.89500045776367 358.32501220703125,40.595001220703125 358.32501220703125,40.595001220703125"></path></g><g opacity="1" transform="matrix(1,0,0,1,-318.95001220703125,-33.81999969482422)"><path stroke-linecap="round" stroke-linejoin="round" fill-opacity="0" stroke="rgb(0,0,0)" stroke-opacity="1" stroke-width="2" d=" M340.7250061035156,36.095001220703125 C340.7250061035156,36.095001220703125 347.125,42.494998931884766 347.125,42.494998931884766"></path></g><g opacity="1" transform="matrix(1,0,0,1,-318.95001220703125,-33.81999969482422)"><path stroke-linecap="round" stroke-linejoin="round" fill-opacity="0" stroke="rgb(0,0,0)" stroke-opacity="1" stroke-width="2" d=" M332.2250061035156,40.595001220703125 C332.2250061035156,40.595001220703125 338.625,46.994998931884766 338.625,46.994998931884766"></path></g><g opacity="1" transform="matrix(1,0,0,1,-318.95001220703125,-33.81999969482422)"><path stroke-linecap="round" stroke-linejoin="round" fill-opacity="0" stroke="rgb(0,0,0)" stroke-opacity="1" stroke-width="2" d=" M325.7250061035156,47.095001220703125 C325.7250061035156,47.095001220703125 332.0249938964844,53.494998931884766 332.0249938964844,53.494998931884766"></path></g><g opacity="1" transform="matrix(1,0,0,1,-318.95001220703125,-33.81999969482422)"><path stroke-linecap="round" stroke-linejoin="round" fill-opacity="0" stroke="rgb(0,0,0)" stroke-opacity="1" stroke-width="2" d=" M321.2250061035156,55.69499969482422 C321.2250061035156,55.69499969482422 327.625,62.095001220703125 327.625,62.095001220703125"></path></g><g opacity="1" transform="matrix(1,0,0,1,-318.95001220703125,-33.81999969482422)"><path stroke-linecap="round" stroke-linejoin="round" fill-opacity="0" stroke="rgb(0,0,0)" stroke-opacity="1" stroke-width="2" d=" M399.42498779296875,57.39500045776367 C399.42498779296875,57.39500045776367 416.32501220703125,44.69499969482422 416.32501220703125,44.69499969482422"></path></g><g opacity="1" transform="matrix(1,0,0,1,-318.95001220703125,-33.81999969482422)"><path stroke-linecap="round" stroke-linejoin="round" fill-opacity="0" stroke="rgb(0,0,0)" stroke-opacity="1" stroke-width="2" d=" M404.42498779296875,73.19499969482422 C404.42498779296875,73.19499969482422 424.7250061035156,73.19499969482422 424.7250061035156,73.19499969482422"></path></g><g opacity="1" transform="matrix(1,0,0,1,-318.95001220703125,-33.81999969482422)"><path stroke-linecap="round" stroke-linejoin="round" fill-opacity="0" stroke="rgb(0,0,0)" stroke-opacity="1" stroke-width="2" d=" M399.42498779296875,88.99500274658203 C399.42498779296875,88.99500274658203 416.32501220703125,101.69499969482422 416.32501220703125,101.69499969482422"></path></g><g opacity="1" transform="matrix(1,0,0,1,-318.95001220703125,-33.81999969482422)"><path stroke-linecap="round" stroke-linejoin="round" fill-opacity="0" stroke="rgb(0,0,0)" stroke-opacity="1" stroke-width="2" d=" M319.0249938964844,66.49500274658203 C319.0249938964844,66.49500274658203 325.7250061035156,73.19499969482422 325.7250061035156,73.19499969482422"></path></g></g></g></g></g><g style="display: block;" transform="matrix(1,0,0,1,-0.4620000123977661,-0.09700000286102295)" opacity="1"><g opacity="1" transform="matrix(1,0,0,1,0,0)"><path stroke-linecap="round" stroke-linejoin="round" fill-opacity="0" stroke="rgb(0,0,0)" stroke-opacity="1" stroke-width="2" d=" M152.22500610351562,102.69499969482422 C152.22500610351562,102.69499969482422 144.72500610351562,119.3949966430664 144.72500610351562,119.3949966430664 C144.72500610351562,119.3949966430664 168.3249969482422,140.19500732421875 197.625,123.8949966430664"></path></g></g><g style="display: block;" transform="matrix(1,0,0,1,-0.4620000123977661,-0.09700000286102295)" opacity="1"><g opacity="1" transform="matrix(1,0,0,1,0,0)"><path stroke-linecap="round" stroke-linejoin="round" fill-opacity="0" stroke="rgb(0,0,0)" stroke-opacity="1" stroke-width="2" d=" M203.72500610351562,121.3949966430664 C203.72500610351562,121.3949966430664 228.22500610351562,116.79499816894531 256.7250061035156,112.99500274658203 C256.7250061035156,112.99500274658203 270.125,133.39500427246094 266.42498779296875,160.39500427246094"></path></g></g><g style="display: block;" transform="matrix(1,0,0,1,-0.4620000123977661,-0.09700000286102295)" opacity="1"><g opacity="1" transform="matrix(1,0,0,1,0,0)"><path stroke-linecap="round" stroke-linejoin="round" fill-opacity="0" stroke="rgb(0,0,0)" stroke-opacity="1" stroke-width="2" d=" M136.3249969482422,123.99500274658203 C136.3249969482422,123.99500274658203 148.52499389648438,138.7949981689453 172.4250030517578,139.59500122070312 C205.02499389648438,140.59500122070312 213.02499389648438,119.79499816894531 213.02499389648438,119.79499816894531"></path></g></g><g style="display: block;" transform="matrix(1,0,0,1,127.37100219726562,21.902000427246094)" opacity="1"><g opacity="1" transform="matrix(1,0,0,1,-127.83300018310547,-22)"><path fill="rgb(0,0,0)" fill-opacity="1" d=" M151.02499389648438,106.09500122070312 C151.02499389648438,106.09500122070312 138.125,101.09500122070312 133.8249969482422,82.79499816894531 C129.625,64.59500122070312 137.625,53.494998931884766 140.8249969482422,49.994998931884766 C140.8249969482422,49.994998931884766 130.625,52.994998931884766 128.3249969482422,49.89500045776367 C126.0250015258789,46.79499816894531 132.02499389648438,43.79499816894531 141.4250030517578,47.39500045776367 C141.4250030517578,47.39500045776367 131.9250030517578,37.494998931884766 137.125,33.994998931884766 C142.3249969482422,30.4950008392334 143.625,44.69499969482422 143.625,44.69499969482422 C143.625,44.69499969482422 148.72500610351562,25.9950008392334 173.22500610351562,22.4950008392334 C197.72500610351562,18.9950008392334 212.52499389648438,35.19499969482422 212.52499389648438,35.19499969482422 C212.52499389648438,35.19499969482422 227.02499389648438,33.69499969482422 230.4250030517578,43.39500045776367 C233.125,50.994998931884766 222.625,53.89500045776367 222.625,53.89500045776367 C222.625,53.89500045776367 220.52499389648438,65.69499969482422 220.52499389648438,65.69499969482422 C220.52499389648438,65.69499969482422 218.72500610351562,54.79499816894531 218.72500610351562,54.79499816894531 C218.72500610351562,54.79499816894531 212.4250030517578,59.69499969482422 192.52499389648438,53.994998931884766 C192.52499389648438,53.994998931884766 193.8249969482422,58.595001220703125 189.8249969482422,61.39500045776367 C185.8249969482422,64.19499969482422 175.4250030517578,57.69499969482422 175.4250030517578,57.69499969482422 C175.4250030517578,57.69499969482422 178.52499389648438,67.49500274658203 172.3249969482422,74.19499969482422 C166.125,80.8949966430664 167.4250030517578,86.59500122070312 167.4250030517578,86.59500122070312 C167.4250030517578,86.59500122070312 162.125,75.59500122070312 152.52499389648438,79.99500274658203 C142.8249969482422,84.49500274658203 146.52499389648438,97.99500274658203 153.4250030517578,101.29499816894531 C153.52499389648438,102.59500122070312 151.02499389648438,106.09500122070312 151.02499389648438,106.09500122070312 C151.02499389648438,106.09500122070312 151.02499389648438,106.09500122070312 151.02499389648438,106.09500122070312z"></path></g><g opacity="1" transform="matrix(1,0,0,1,-127.83300018310547,-22)"><path stroke-linecap="round" stroke-linejoin="round" fill-opacity="0" stroke="rgb(0,0,0)" stroke-opacity="1" stroke-width="2" d=" M219.9250030517578,54.29499816894531 C219.9250030517578,54.29499816894531 220.22500610351562,73.99500274658203 220.625,90.19499969482422 C221.02499389648438,106.3949966430664 209.72500610351562,123.19499969482422 193.125,124.69499969482422 C176.52499389648438,126.19499969482422 169.22500610351562,114.3949966430664 169.22500610351562,114.3949966430664"></path></g><g opacity="1" transform="matrix(1,0,0,1,-127.83300018310547,-22)"><path stroke-linecap="round" stroke-linejoin="round" fill-opacity="0" stroke="rgb(0,0,0)" stroke-opacity="1" stroke-width="2" d=" M153.52499389648438,86.69499969482422 C153.52499389648438,86.69499969482422 162.125,94.3949966430664 162.125,94.3949966430664"></path></g><g opacity="1" transform="matrix(1,0,0,1,-127.83300018310547,-22)"><path stroke-linecap="round" stroke-linejoin="round" fill-opacity="0" stroke="rgb(0,0,0)" stroke-opacity="1" stroke-width="2" d=" M156.125,93.79499816894531 C156.125,93.79499816894531 158.52499389648438,91.09500122070312 158.52499389648438,91.09500122070312"></path></g><g opacity="1" transform="matrix(1,0,0,1,-127.83300018310547,-22)"><path stroke-linecap="round" stroke-linejoin="round" fill-opacity="0" stroke="rgb(0,0,0)" stroke-opacity="1" stroke-width="2" d=" M187.02499389648438,67.49500274658203 C187.02499389648438,67.49500274658203 190.52499389648438,65.09500122070312 194.625,67.59500122070312"></path></g><g opacity="1" transform="matrix(1,0,0,1,-127.83300018310547,-22)"><path stroke-linecap="round" stroke-linejoin="round" fill-opacity="0" stroke="rgb(0,0,0)" stroke-opacity="1" stroke-width="2" d=" M207.22500610351562,69.3949966430664 C207.22500610351562,69.3949966430664 210.72500610351562,66.99500274658203 214.8249969482422,69.49500274658203"></path></g><g opacity="1" transform="matrix(1,0,0,1,-127.83300018310547,-22)"><path stroke-linecap="round" stroke-linejoin="round" fill-opacity="0" stroke="rgb(0,0,0)" stroke-opacity="1" stroke-width="2" d=" M206.3249969482422,87.3949966430664 C206.3249969482422,87.3949966430664 207.52499389648438,89.59500122070312 209.4250030517578,90.8949966430664 C211.3249969482422,92.19499969482422 210.72500610351562,95.09500122070312 209.02499389648438,96.69499969482422"></path></g><g opacity="1" transform="matrix(1,0,0,1,-127.83300018310547,-22)"><path stroke-linecap="round" stroke-linejoin="round" fill-opacity="0" stroke="rgb(0,0,0)" stroke-opacity="1" stroke-width="2" d=" M186.125,92.49500274658203 C186.125,92.49500274658203 185.52499389648438,104.69499969482422 200.02499389648438,106.09500122070312"></path></g><g opacity="1" transform="matrix(1,0,0,1,-127.83300018310547,-22)"><path stroke-linecap="round" stroke-linejoin="round" fill-opacity="0" stroke="rgb(0,0,0)" stroke-opacity="1" stroke-width="2" d=" M181.52499389648438,95.19499969482422 C181.52499389648438,95.19499969482422 185.02499389648438,90.69499969482422 190.9250030517578,91.99500274658203"></path></g><g opacity="1" transform="matrix(1,0,0,1,-127.83300018310547,-22)"><path stroke-linecap="round" stroke-linejoin="round" fill-opacity="0" stroke="rgb(0,0,0)" stroke-opacity="1" stroke-width="2" d=" M220.3249969482422,78.79499816894531 C220.3249969482422,78.79499816894531 227.3249969482422,77.8949966430664 228.125,85.8949966430664 C228.9250030517578,93.8949966430664 223.8249969482422,97.19499969482422 220.22500610351562,95.99500274658203"></path></g><g opacity="1" transform="matrix(1,0,0,1,-127.83300018310547,-22)"><path stroke-linecap="round" stroke-linejoin="round" fill-opacity="0" stroke="rgb(0,0,0)" stroke-opacity="1" stroke-width="2" d=" M220.625,88.99500274658203 C220.625,88.99500274658203 224.9250030517578,87.3949966430664 224.9250030517578,87.3949966430664"></path></g><g opacity="1" transform="matrix(1,0,0,1,-127.83300018310547,-22)"><path stroke-linecap="round" stroke-linejoin="round" fill-opacity="0" stroke="rgb(0,0,0)" stroke-opacity="1" stroke-width="2" d=" M189.8249969482422,78.69499969482422 C189.8249969482422,78.69499969482422 195.625,77.49500274658203 197.625,81.69499969482422"></path></g><g opacity="1" transform="matrix(1,0,0,1,-127.83300018310547,-22)"><path stroke-linecap="round" stroke-linejoin="round" fill-opacity="0" stroke="rgb(0,0,0)" stroke-opacity="1" stroke-width="2" d=" M211.02499389648438,81.79499816894531 C211.02499389648438,81.79499816894531 212.52499389648438,76.99500274658203 217.8249969482422,78.3949966430664"></path></g></g><g style="display: block;" transform="matrix(1,0,0,1,-0.4620000123977661,-0.09700000286102295)" opacity="1"><g opacity="1" transform="matrix(1,0,0,1,0,0)"><path stroke-linecap="round" stroke-linejoin="round" fill-opacity="0" stroke="rgb(0,0,0)" stroke-opacity="1" stroke-width="2" d=" M328.82501220703125,160.39500427246094 C328.82501220703125,160.39500427246094 414.82501220703125,160.39500427246094 414.82501220703125,160.39500427246094 C424.32501220703125,160.39500427246094 431.92498779296875,168.09500122070312 431.92498779296875,177.4949951171875 C431.92498779296875,177.4949951171875 431.92498779296875,324.69500732421875 431.92498779296875,324.69500732421875 C431.92498779296875,334.19500732421875 424.2250061035156,341.7950134277344 414.82501220703125,341.7950134277344 C414.82501220703125,341.7950134277344 179.3249969482422,341.7950134277344 179.3249969482422,341.7950134277344 C169.8249969482422,341.7950134277344 162.22500610351562,334.0950012207031 162.22500610351562,324.69500732421875 C162.22500610351562,324.69500732421875 162.22500610351562,177.4949951171875 162.22500610351562,177.4949951171875 C162.22500610351562,167.9949951171875 169.9250030517578,160.39500427246094 179.3249969482422,160.39500427246094 C179.3249969482422,160.39500427246094 294.82501220703125,160.39500427246094 294.82501220703125,160.39500427246094"></path></g></g><g style="display: block;" transform="matrix(1,0,0,1,-0.4620000123977661,-0.09700000286102295)" opacity="1"><g opacity="1" transform="matrix(1,0,0,1,0,0)"><path stroke-linecap="round" stroke-linejoin="round" fill-opacity="0" stroke="rgb(0,0,0)" stroke-opacity="1" stroke-width="2" d=" M331.125,185.89500427246094 C331.125,185.89500427246094 400.625,185.89500427246094 400.625,185.89500427246094 C402.92498779296875,185.89500427246094 404.7250061035156,187.69500732421875 404.7250061035156,189.9949951171875 C404.7250061035156,189.9949951171875 404.7250061035156,312.19500732421875 404.7250061035156,312.19500732421875 C404.7250061035156,314.4949951171875 402.92498779296875,316.2950134277344 400.625,316.2950134277344 C400.625,316.2950134277344 193.4250030517578,316.2950134277344 193.4250030517578,316.2950134277344 C191.125,316.2950134277344 189.3249969482422,314.4949951171875 189.3249969482422,312.19500732421875 C189.3249969482422,312.19500732421875 189.3249969482422,189.9949951171875 189.3249969482422,189.9949951171875 C189.3249969482422,187.69500732421875 191.125,185.89500427246094 193.4250030517578,185.89500427246094 C193.4250030517578,185.89500427246094 299.5249938964844,185.89500427246094 299.5249938964844,185.89500427246094"></path></g></g><g style="display: block;" transform="matrix(1,0,0,1,-0.4620000123977661,-0.09700000286102295)" opacity="1"><g opacity="1" transform="matrix(1,0,0,1,0,0)"><path stroke-linecap="round" stroke-linejoin="round" fill-opacity="0" stroke="rgb(0,0,0)" stroke-opacity="1" stroke-width="2" d=" M247.22500610351562,114.29499816894531 C247.22500610351562,114.29499816894531 260.5249938964844,129.19500732421875 257.82501220703125,160.39500427246094"></path></g></g><g style="display: block;" transform="matrix(1,0,0,1,-0.4620000123977661,-0.09700000286102295)" opacity="1"><g opacity="1" transform="matrix(1,0,0,1,0,0)"><path stroke-linecap="round" stroke-linejoin="round" fill-opacity="0" stroke="rgb(0,0,0)" stroke-opacity="1" stroke-width="2" d=" M258.2250061035156,115.59500122070312 C258.2250061035156,115.59500122070312 279.7250061035156,111.8949966430664 290.125,110.49500274658203 C300.5249938964844,108.99500274658203 325.0249938964844,112.79499816894531 327.125,139.7949981689453 C329.2250061035156,166.7949981689453 334.0249938964844,216.4949951171875 334.82501220703125,223.9949951171875 C335.625,231.4949951171875 329.7250061035156,230.19500732421875 328.82501220703125,228.19500732421875 C328.82501220703125,228.19500732421875 327.82501220703125,233.2949981689453 322.0249938964844,231.2949981689453 C322.0249938964844,231.2949981689453 321.7250061035156,245.19500732421875 321.7250061035156,248.69500732421875 C321.625,252.19500732421875 313.82501220703125,254.7949981689453 313.5249938964844,246.9949951171875 C313.2250061035156,239.19500732421875 312.92498779296875,217.9949951171875 312.92498779296875,217.9949951171875 C312.92498779296875,217.9949951171875 313.0249938964844,227.19500732421875 313.0249938964844,227.19500732421875 C313.0249938964844,227.19500732421875 306.82501220703125,227.2949981689453 305.82501220703125,220.2949981689453 C304.625,212.19500732421875 294.2250061035156,156.69500732421875 294.2250061035156,156.69500732421875 C294.2250061035156,156.69500732421875 270.92498779296875,160.39500427246094 270.92498779296875,160.39500427246094"></path></g></g><g style="display: block;" transform="matrix(1,0,0,1,-0.4620000123977661,-0.09700000286102295)" opacity="1"><g opacity="1" transform="matrix(1,0,0,1,0,0)"><path stroke-linecap="round" stroke-linejoin="round" fill-opacity="0" stroke="rgb(0,0,0)" stroke-opacity="1" stroke-width="2" d=" M144.72500610351562,119.3949966430664 C144.72500610351562,119.3949966430664 112.625,133.59500122070312 95.0250015258789,168.59500122070312 C78.7249984741211,200.9949951171875 78.7249984741211,231.19500732421875 78.7249984741211,231.19500732421875"></path></g></g><g style="display: block;" transform="matrix(1,0,0,1,-0.4620000123977661,-0.09700000286102295)" opacity="1"><g opacity="1" transform="matrix(1,0,0,1,0,0)"><path stroke-linecap="round" stroke-linejoin="round" fill-opacity="0" stroke="rgb(0,0,0)" stroke-opacity="1" stroke-width="2" d=" M84.82499694824219,234.09500122070312 C81.0250015258789,233.19500732421875 78.7249984741211,232.19500732421875 78.82499694824219,231.19500732421875 C78.92500305175781,228.69500732421875 93.42500305175781,227.09500122070312 111.32499694824219,227.7949981689453 C129.22500610351562,228.39500427246094 143.625,230.9949951171875 143.52499389648438,233.4949951171875 C143.52499389648438,234.59500122070312 140.9250030517578,235.39500427246094 136.625,236.09500122070312"></path></g></g><g style="display: block;" transform="matrix(1,0,0,1,-0.4620000123977661,-0.09700000286102295)" opacity="1"><g opacity="1" transform="matrix(1,0,0,1,0,0)"><path stroke-linecap="round" stroke-linejoin="round" fill-opacity="0" stroke="rgb(0,0,0)" stroke-opacity="1" stroke-width="2" d=" M143.4250030517578,233.4949951171875 C143.4250030517578,233.4949951171875 148.125,205.2949981689453 148.125,205.2949981689453"></path></g></g><g style="display: block;" transform="matrix(1,0,0,1,-0.4620000123977661,-0.09700000286102295)" opacity="1"><g opacity="1" transform="matrix(1,0,0,1,0,0)"><path stroke-linecap="round" stroke-linejoin="round" fill-opacity="0" stroke="rgb(0,0,0)" stroke-opacity="1" stroke-width="2" d=" M85.7249984741211,228.59500122070312 C85.7249984741211,228.59500122070312 83.42500305175781,254.2949981689453 87.0250015258789,285.69500732421875 C89.625,307.9949951171875 102.32499694824219,364.3949890136719 102.7249984741211,367.69500732421875 C103.125,370.9949951171875 105.125,398.0950012207031 105.625,402.19500732421875 C106.2249984741211,406.3949890136719 113.5250015258789,407.5950012207031 113.82499694824219,401.19500732421875 C114.0250015258789,397.4949951171875 113.92500305175781,392.3949890136719 113.92500305175781,388.7950134277344 C113.92500305175781,385.9949951171875 115.125,383.3949890136719 117.32499694824219,381.5950012207031 C117.32499694824219,381.5950012207031 125.92500305175781,374.7950134277344 125.92500305175781,374.7950134277344 C125.92500305175781,374.7950134277344 133.125,376.9949951171875 137.02499389648438,376.9949951171875 C140.9250030517578,376.9949951171875 146.125,372.0950012207031 135.9250030517578,364.7950134277344 C129.3249969482422,360.0950012207031 127.125,352.2950134277344 126.5250015258789,342.9949951171875 C123.7249984741211,296.69500732421875 137.52499389648438,230.39500427246094 137.52499389648438,230.39500427246094"></path></g></g><g style="display: block;" transform="matrix(1,0,0,1,-0.4620000123977661,-0.09700000286102295)" opacity="1"><g opacity="1" transform="matrix(1,0,0,1,0,0)"><path stroke-linecap="round" stroke-linejoin="round" fill-opacity="0" stroke="rgb(0,0,0)" stroke-opacity="1" stroke-width="2" d=" M102.7249984741211,367.69500732421875 C102.7249984741211,367.69500732421875 92.7249984741211,398.19500732421875 92.32499694824219,401.19500732421875 C91.92500305175781,404.19500732421875 98.7249984741211,405.3949890136719 100.2249984741211,402.2950134277344 C101.7249984741211,399.2950134277344 104.7249984741211,392.5950012207031 104.7249984741211,392.5950012207031"></path></g></g><g style="display: block;" transform="matrix(1,0,0,1,-0.4620000123977661,-0.09700000286102295)" opacity="1"><g opacity="1" transform="matrix(1,0,0,1,0,0)"><path stroke-linecap="round" stroke-linejoin="round" fill-opacity="0" stroke="rgb(0,0,0)" stroke-opacity="1" stroke-width="2" d=" M137.3249969482422,366.0950012207031 C137.3249969482422,366.0950012207031 161.4250030517578,347.7950134277344 161.4250030517578,347.7950134277344 C166.52499389648438,343.8949890136719 172.72500610351562,341.7950134277344 179.125,341.7950134277344 C179.125,341.7950134277344 415.0249938964844,341.7950134277344 415.0249938964844,341.7950134277344 C421.42498779296875,341.7950134277344 427.625,343.8949890136719 432.7250061035156,347.7950134277344 C432.7250061035156,347.7950134277344 475.125,379.9949951171875 475.125,379.9949951171875 C479.7250061035156,383.4949951171875 477.2250061035156,390.7950134277344 471.5249938964844,390.7950134277344 C471.5249938964844,390.7950134277344 122.625,390.7950134277344 122.625,390.7950134277344 C116.82499694824219,390.7950134277344 114.42500305175781,383.4949951171875 119.0250015258789,379.9949951171875 C119.0250015258789,379.9949951171875 125.5250015258789,375.0950012207031 125.5250015258789,375.0950012207031"></path></g></g><g style="display: block;" transform="matrix(1,0,0,1,-0.4620000123977661,-0.09700000286102295)" opacity="1"><g opacity="1" transform="matrix(1,0,0,1,0,0)"><path fill="rgb(0,0,0)" fill-opacity="1" d=" M432.625,373.69500732421875 C427.5249938964844,369.7950134277344 421.32501220703125,367.69500732421875 414.92498779296875,367.69500732421875 C414.92498779296875,367.69500732421875 179.125,367.69500732421875 179.125,367.69500732421875 C172.72500610351562,367.69500732421875 166.52499389648438,369.7950134277344 161.4250030517578,373.69500732421875 C161.4250030517578,373.69500732421875 138.9250030517578,390.7950134277344 138.9250030517578,390.7950134277344 C138.9250030517578,390.7950134277344 455.125,390.7950134277344 455.125,390.7950134277344 C455.125,390.7950134277344 432.625,373.69500732421875 432.625,373.69500732421875 C432.625,373.69500732421875 432.625,373.69500732421875 432.625,373.69500732421875z"></path></g></g><g style="display: block;" transform="matrix(1,0,0,1,-0.4620000123977661,-0.09700000286102295)" opacity="1"><g opacity="1" transform="matrix(1,0,0,1,0,0)"><path stroke-linecap="round" stroke-linejoin="round" fill-opacity="0" stroke="rgb(0,0,0)" stroke-opacity="1" stroke-width="2" d=" M477.5249938964844,385.2950134277344 C477.5249938964844,385.2950134277344 477.5249938964844,432.7950134277344 477.5249938964844,432.7950134277344 C477.5249938964844,441.2950134277344 470.625,448.19500732421875 462.125,448.19500732421875 C462.125,448.19500732421875 132.125,448.19500732421875 132.125,448.19500732421875 C123.625,448.19500732421875 116.7249984741211,441.2950134277344 116.7249984741211,432.7950134277344 C116.7249984741211,432.7950134277344 116.7249984741211,385.2950134277344 116.7249984741211,385.2950134277344"></path></g></g><g style="display: block;" transform="matrix(1,0,0,1,-0.4620000123977661,-0.09700000286102295)" opacity="1"><g opacity="1" transform="matrix(1,0,0,1,0,0)"><path stroke-linecap="butt" stroke-linejoin="miter" fill-opacity="0" stroke-miterlimit="10" stroke="rgb(0,0,0)" stroke-opacity="1" stroke-width="2" d=" M184.8249969482422,417.5950012207031 C184.8249969482422,417.5950012207031 164.72500610351562,417.5950012207031 164.72500610351562,417.5950012207031 C161.9250030517578,417.5950012207031 159.72500610351562,415.3949890136719 159.72500610351562,412.5950012207031 C159.72500610351562,412.5950012207031 159.72500610351562,390.69500732421875 159.72500610351562,390.69500732421875 C159.72500610351562,390.69500732421875 189.8249969482422,390.69500732421875 189.8249969482422,390.69500732421875 C189.8249969482422,390.69500732421875 189.8249969482422,412.5950012207031 189.8249969482422,412.5950012207031 C189.8249969482422,415.3949890136719 187.625,417.5950012207031 184.8249969482422,417.5950012207031 C184.8249969482422,417.5950012207031 184.8249969482422,417.5950012207031 184.8249969482422,417.5950012207031z"></path></g></g><g style="display: block;" transform="matrix(1,0,0,1,-0.4620000123977661,-0.09700000286102295)" opacity="1"><g opacity="1" transform="matrix(1,0,0,1,0,0)"><path stroke-linecap="butt" stroke-linejoin="miter" fill-opacity="0" stroke-miterlimit="10" stroke="rgb(0,0,0)" stroke-opacity="1" stroke-width="2" d=" M183.625,413.19500732421875 C183.625,413.19500732421875 166.02499389648438,413.19500732421875 166.02499389648438,413.19500732421875 C165.22500610351562,413.19500732421875 164.625,412.5950012207031 164.625,411.7950134277344 C164.625,411.7950134277344 164.625,390.5950012207031 164.625,390.5950012207031 C164.625,390.5950012207031 185.02499389648438,390.5950012207031 185.02499389648438,390.5950012207031 C185.02499389648438,390.5950012207031 185.02499389648438,411.7950134277344 185.02499389648438,411.7950134277344 C185.02499389648438,412.5950012207031 184.3249969482422,413.19500732421875 183.625,413.19500732421875 C183.625,413.19500732421875 183.625,413.19500732421875 183.625,413.19500732421875z"></path></g></g><g style="display: block;" transform="matrix(1,0,0,1,-0.4620000123977661,-0.09700000286102295)" opacity="1"><g opacity="1" transform="matrix(1,0,0,1,0,0)"><path stroke-linecap="butt" stroke-linejoin="miter" fill-opacity="0" stroke-miterlimit="10" stroke="rgb(0,0,0)" stroke-opacity="1" stroke-width="2" d=" M428.32501220703125,417.5950012207031 C428.32501220703125,417.5950012207031 408.2250061035156,417.5950012207031 408.2250061035156,417.5950012207031 C405.42498779296875,417.5950012207031 403.2250061035156,415.3949890136719 403.2250061035156,412.5950012207031 C403.2250061035156,412.5950012207031 403.2250061035156,390.69500732421875 403.2250061035156,390.69500732421875 C403.2250061035156,390.69500732421875 433.32501220703125,390.69500732421875 433.32501220703125,390.69500732421875 C433.32501220703125,390.69500732421875 433.32501220703125,412.5950012207031 433.32501220703125,412.5950012207031 C433.32501220703125,415.3949890136719 431.0249938964844,417.5950012207031 428.32501220703125,417.5950012207031 C428.32501220703125,417.5950012207031 428.32501220703125,417.5950012207031 428.32501220703125,417.5950012207031z"></path></g></g><g style="display: block;" transform="matrix(1,0,0,1,-0.4620000123977661,-0.09700000286102295)" opacity="1"><g opacity="1" transform="matrix(1,0,0,1,0,0)"><path stroke-linecap="butt" stroke-linejoin="miter" fill-opacity="0" stroke-miterlimit="10" stroke="rgb(0,0,0)" stroke-opacity="1" stroke-width="2" d=" M427.0249938964844,413.19500732421875 C427.0249938964844,413.19500732421875 409.42498779296875,413.19500732421875 409.42498779296875,413.19500732421875 C408.625,413.19500732421875 408.0249938964844,412.5950012207031 408.0249938964844,411.7950134277344 C408.0249938964844,411.7950134277344 408.0249938964844,390.5950012207031 408.0249938964844,390.5950012207031 C408.0249938964844,390.5950012207031 428.42498779296875,390.5950012207031 428.42498779296875,390.5950012207031 C428.42498779296875,390.5950012207031 428.42498779296875,411.7950134277344 428.42498779296875,411.7950134277344 C428.42498779296875,412.5950012207031 427.82501220703125,413.19500732421875 427.0249938964844,413.19500732421875 C427.0249938964844,413.19500732421875 427.0249938964844,413.19500732421875 427.0249938964844,413.19500732421875z"></path></g></g><g style="display: block;" transform="matrix(1,0,0,1,-0.4620000123977661,-0.09700000286102295)" opacity="1"><g opacity="1" transform="matrix(1,0,0,1,0,0)"><path stroke-linecap="butt" stroke-linejoin="miter" fill-opacity="0" stroke-miterlimit="10" stroke="rgb(0,0,0)" stroke-opacity="1" stroke-width="2" d=" M257.82501220703125,418.69500732421875 C257.82501220703125,418.69500732421875 248.8249969482422,418.69500732421875 248.8249969482422,418.69500732421875 C246.72500610351562,418.69500732421875 244.9250030517578,416.9949951171875 244.9250030517578,414.7950134277344 C244.9250030517578,414.7950134277344 244.9250030517578,405.7950134277344 244.9250030517578,405.7950134277344 C244.9250030517578,403.69500732421875 246.625,401.8949890136719 248.8249969482422,401.8949890136719 C248.8249969482422,401.8949890136719 257.82501220703125,401.8949890136719 257.82501220703125,401.8949890136719 C259.92498779296875,401.8949890136719 261.7250061035156,403.5950012207031 261.7250061035156,405.7950134277344 C261.7250061035156,405.7950134277344 261.7250061035156,414.7950134277344 261.7250061035156,414.7950134277344 C261.7250061035156,416.9949951171875 259.92498779296875,418.69500732421875 257.82501220703125,418.69500732421875 C257.82501220703125,418.69500732421875 257.82501220703125,418.69500732421875 257.82501220703125,418.69500732421875z"></path></g></g><g style="display: block;" transform="matrix(1,0,0,1,-0.4620000123977661,-0.09700000286102295)" opacity="1"><g opacity="1" transform="matrix(1,0,0,1,0,0)"><path stroke-linecap="butt" stroke-linejoin="miter" fill-opacity="0" stroke-miterlimit="10" stroke="rgb(0,0,0)" stroke-opacity="1" stroke-width="2" d=" M344.32501220703125,418.69500732421875 C344.32501220703125,418.69500732421875 335.32501220703125,418.69500732421875 335.32501220703125,418.69500732421875 C333.2250061035156,418.69500732421875 331.42498779296875,416.9949951171875 331.42498779296875,414.7950134277344 C331.42498779296875,414.7950134277344 331.42498779296875,405.7950134277344 331.42498779296875,405.7950134277344 C331.42498779296875,403.69500732421875 333.125,401.8949890136719 335.32501220703125,401.8949890136719 C335.32501220703125,401.8949890136719 344.32501220703125,401.8949890136719 344.32501220703125,401.8949890136719 C346.42498779296875,401.8949890136719 348.2250061035156,403.5950012207031 348.2250061035156,405.7950134277344 C348.2250061035156,405.7950134277344 348.2250061035156,414.7950134277344 348.2250061035156,414.7950134277344 C348.2250061035156,416.9949951171875 346.42498779296875,418.69500732421875 344.32501220703125,418.69500732421875 C344.32501220703125,418.69500732421875 344.32501220703125,418.69500732421875 344.32501220703125,418.69500732421875z"></path></g></g><g style="display: block;" transform="matrix(1,0,0,1,-0.4620000123977661,-0.09700000286102295)" opacity="1"><g opacity="1" transform="matrix(1,0,0,1,0,0)"><path fill="rgb(0,0,0)" fill-opacity="1" d=" M336.2250061035156,413.69500732421875 C336.2250061035156,413.69500732421875 336.2250061035156,427.69500732421875 336.2250061035156,427.69500732421875 C336.2250061035156,429.69500732421875 334.625,431.2950134277344 332.625,431.2950134277344 C332.625,431.2950134277344 260.5249938964844,431.2950134277344 260.5249938964844,431.2950134277344 C258.5249938964844,431.2950134277344 256.92498779296875,429.69500732421875 256.92498779296875,427.69500732421875 C256.92498779296875,427.69500732421875 256.92498779296875,413.69500732421875 256.92498779296875,413.69500732421875 C256.92498779296875,411.8949890136719 255.4250030517578,410.3949890136719 253.625,410.3949890136719 C251.8249969482422,410.3949890136719 250.3249969482422,411.8949890136719 250.3249969482422,413.69500732421875 C250.3249969482422,413.69500732421875 250.3249969482422,428.2950134277344 250.3249969482422,428.2950134277344 C250.3249969482422,433.4949951171875 254.52499389648438,437.69500732421875 259.7250061035156,437.69500732421875 C259.7250061035156,437.69500732421875 333.5249938964844,437.69500732421875 333.5249938964844,437.69500732421875 C338.7250061035156,437.69500732421875 342.92498779296875,433.4949951171875 342.92498779296875,428.2950134277344 C342.92498779296875,428.2950134277344 342.92498779296875,413.69500732421875 342.92498779296875,413.69500732421875 C342.92498779296875,411.8949890136719 341.42498779296875,410.3949890136719 339.625,410.3949890136719 C337.7250061035156,410.2950134277344 336.2250061035156,411.7950134277344 336.2250061035156,413.69500732421875 C336.2250061035156,413.69500732421875 336.2250061035156,413.69500732421875 336.2250061035156,413.69500732421875z"></path></g></g><g style="display: block;" mask="url(#__lottie_element_120)"><g id="invoice" transform="matrix(1,0,0,1,208.06201171875,220.59799194335938)" opacity="1"><g id="invoice" opacity="1" transform="matrix(1,0,0,1,0,0)"><g opacity="1" transform="matrix(1,0,0,1,-208.52499389648438,-220.69500732421875)"><path fill="rgb(255,255,255)" fill-opacity="1" d=" M318.92498779296875,256.4949951171875 C312.0249938964844,256.4949951171875 312.0249938964844,265.4949951171875 305.125,265.4949951171875 C298.2250061035156,265.4949951171875 298.2250061035156,256.4949951171875 291.32501220703125,256.4949951171875 C284.42498779296875,256.4949951171875 284.42498779296875,265.4949951171875 277.5249938964844,265.4949951171875 C270.625,265.4949951171875 270.625,256.4949951171875 263.7250061035156,256.4949951171875 C256.82501220703125,256.4949951171875 256.82501220703125,265.4949951171875 249.9250030517578,265.4949951171875 C243.02499389648438,265.4949951171875 243.02499389648438,256.4949951171875 236.125,256.4949951171875 C229.22500610351562,256.4949951171875 229.22500610351562,265.4949951171875 222.3249969482422,265.4949951171875 C215.4250030517578,265.4949951171875 215.4250030517578,256.4949951171875 208.52499389648438,256.4949951171875 C208.52499389648438,256.4949951171875 208.52499389648438,390.69500732421875 208.52499389648438,390.69500732421875 C208.52499389648438,390.69500732421875 319.0249938964844,390.69500732421875 319.0249938964844,390.69500732421875 C319.0249938964844,390.69500732421875 319.0249938964844,256.4949951171875 319.0249938964844,256.4949951171875 C319.0249938964844,256.4949951171875 318.92498779296875,256.4949951171875 318.92498779296875,256.4949951171875 C318.92498779296875,256.4949951171875 318.92498779296875,256.4949951171875 318.92498779296875,256.4949951171875z"></path><path stroke-linecap="round" stroke-linejoin="round" fill-opacity="0" stroke="rgb(0,0,0)" stroke-opacity="1" stroke-width="2" d=" M318.92498779296875,256.4949951171875 C312.0249938964844,256.4949951171875 312.0249938964844,265.4949951171875 305.125,265.4949951171875 C298.2250061035156,265.4949951171875 298.2250061035156,256.4949951171875 291.32501220703125,256.4949951171875 C284.42498779296875,256.4949951171875 284.42498779296875,265.4949951171875 277.5249938964844,265.4949951171875 C270.625,265.4949951171875 270.625,256.4949951171875 263.7250061035156,256.4949951171875 C256.82501220703125,256.4949951171875 256.82501220703125,265.4949951171875 249.9250030517578,265.4949951171875 C243.02499389648438,265.4949951171875 243.02499389648438,256.4949951171875 236.125,256.4949951171875 C229.22500610351562,256.4949951171875 229.22500610351562,265.4949951171875 222.3249969482422,265.4949951171875 C215.4250030517578,265.4949951171875 215.4250030517578,256.4949951171875 208.52499389648438,256.4949951171875 C208.52499389648438,256.4949951171875 208.52499389648438,390.69500732421875 208.52499389648438,390.69500732421875 C208.52499389648438,390.69500732421875 319.0249938964844,390.69500732421875 319.0249938964844,390.69500732421875 C319.0249938964844,390.69500732421875 319.0249938964844,256.4949951171875 319.0249938964844,256.4949951171875 C319.0249938964844,256.4949951171875 318.92498779296875,256.4949951171875 318.92498779296875,256.4949951171875 C318.92498779296875,256.4949951171875 318.92498779296875,256.4949951171875 318.92498779296875,256.4949951171875z"></path></g><g opacity="1" transform="matrix(1,0,0,1,-208.52499389648438,-220.69500732421875)"><path stroke-linecap="round" stroke-linejoin="round" fill-opacity="0" stroke="rgb(0,0,0)" stroke-opacity="1" stroke-width="2" d=" M227.4250030517578,327.5950012207031 C227.4250030517578,333.9949951171875 232.625,339.19500732421875 239.02499389648438,339.19500732421875 C245.4250030517578,339.19500732421875 250.625,333.9949951171875 250.625,327.5950012207031 C250.625,321.19500732421875 245.4250030517578,315.9949951171875 239.02499389648438,315.9949951171875 C232.625,315.9949951171875 227.4250030517578,310.7950134277344 227.4250030517578,304.3949890136719 C227.4250030517578,297.9949951171875 232.625,292.7950134277344 239.02499389648438,292.7950134277344 C245.4250030517578,292.7950134277344 250.625,297.9949951171875 250.625,304.3949890136719"></path></g><g opacity="1" transform="matrix(1,0,0,1,-208.52499389648438,-220.69500732421875)"><path stroke-linecap="round" stroke-linejoin="round" fill-opacity="0" stroke="rgb(0,0,0)" stroke-opacity="1" stroke-width="2" d=" M239.02499389648438,292.7950134277344 C239.02499389648438,292.7950134277344 239.02499389648438,285.69500732421875 239.02499389648438,285.69500732421875"></path></g><g opacity="1" transform="matrix(1,0,0,1,-208.52499389648438,-220.69500732421875)"><path stroke-linecap="round" stroke-linejoin="round" fill-opacity="0" stroke="rgb(0,0,0)" stroke-opacity="1" stroke-width="2" d=" M239.02499389648438,346.19500732421875 C239.02499389648438,346.19500732421875 239.02499389648438,339.19500732421875 239.02499389648438,339.19500732421875"></path></g><g opacity="1" transform="matrix(1,0,0,1,-208.52499389648438,-220.69500732421875)"><path stroke-linecap="round" stroke-linejoin="round" fill-opacity="0" stroke="rgb(0,0,0)" stroke-opacity="1" stroke-width="2" d=" M303.625,306.19500732421875 C303.625,306.19500732421875 265.7250061035156,306.19500732421875 265.7250061035156,306.19500732421875 C264.625,306.19500732421875 263.7250061035156,305.2950134277344 263.7250061035156,304.19500732421875 C263.7250061035156,303.0950012207031 264.625,302.19500732421875 265.7250061035156,302.19500732421875 C265.7250061035156,302.19500732421875 303.5249938964844,302.19500732421875 303.5249938964844,302.19500732421875 C304.625,302.19500732421875 305.5249938964844,303.0950012207031 305.5249938964844,304.19500732421875 C305.625,305.2950134277344 304.7250061035156,306.19500732421875 303.625,306.19500732421875 C303.625,306.19500732421875 303.625,306.19500732421875 303.625,306.19500732421875z"></path></g><g opacity="1" transform="matrix(1,0,0,1,-208.52499389648438,-220.69500732421875)"><path stroke-linecap="round" stroke-linejoin="round" fill-opacity="0" stroke="rgb(0,0,0)" stroke-opacity="1" stroke-width="2" d=" M303.625,319.3949890136719 C303.625,319.3949890136719 265.7250061035156,319.3949890136719 265.7250061035156,319.3949890136719 C264.625,319.3949890136719 263.7250061035156,318.4949951171875 263.7250061035156,317.3949890136719 C263.7250061035156,316.2950134277344 264.625,315.3949890136719 265.7250061035156,315.3949890136719 C265.7250061035156,315.3949890136719 303.5249938964844,315.3949890136719 303.5249938964844,315.3949890136719 C304.625,315.3949890136719 305.5249938964844,316.2950134277344 305.5249938964844,317.3949890136719 C305.625,318.4949951171875 304.7250061035156,319.3949890136719 303.625,319.3949890136719 C303.625,319.3949890136719 303.625,319.3949890136719 303.625,319.3949890136719z"></path></g><g opacity="1" transform="matrix(1,0,0,1,-208.52499389648438,-220.69500732421875)"><path stroke-linecap="round" stroke-linejoin="round" fill-opacity="0" stroke="rgb(0,0,0)" stroke-opacity="1" stroke-width="2" d=" M282.32501220703125,332.5950012207031 C282.32501220703125,332.5950012207031 265.7250061035156,332.5950012207031 265.7250061035156,332.5950012207031 C264.625,332.5950012207031 263.7250061035156,331.69500732421875 263.7250061035156,330.5950012207031 C263.7250061035156,329.4949951171875 264.625,328.5950012207031 265.7250061035156,328.5950012207031 C265.7250061035156,328.5950012207031 282.32501220703125,328.5950012207031 282.32501220703125,328.5950012207031 C283.42498779296875,328.5950012207031 284.32501220703125,329.4949951171875 284.32501220703125,330.5950012207031 C284.32501220703125,331.69500732421875 283.42498779296875,332.5950012207031 282.32501220703125,332.5950012207031 C282.32501220703125,332.5950012207031 282.32501220703125,332.5950012207031 282.32501220703125,332.5950012207031z"></path></g><g opacity="1" transform="matrix(0.9995719194412231,0,0,0.9995719194412231,22.613956451416016,0.01513671875)"><g opacity="1" transform="matrix(1,0,0,1,-231.125,-220.69500732421875)"><path stroke-linecap="round" stroke-linejoin="round" fill-opacity="0" stroke="rgb(0,0,0)" stroke-opacity="1" stroke-width="2" d=" M263.7250061035156,246.19500732421875 C263.7250061035156,246.19500732421875 263.7250061035156,220.69500732421875 263.7250061035156,220.69500732421875"></path></g><g opacity="1" transform="matrix(1,0,0,1,-231.125,-220.69500732421875)"><path stroke-linecap="round" stroke-linejoin="round" fill-opacity="0" stroke="rgb(0,0,0)" stroke-opacity="1" stroke-width="2" d=" M244.52499389648438,246.19500732421875 C244.52499389648438,246.19500732421875 231.125,228.19500732421875 231.125,228.19500732421875"></path></g><g opacity="1" transform="matrix(1,0,0,1,-231.125,-220.69500732421875)"><path stroke-linecap="round" stroke-linejoin="round" fill-opacity="0" stroke="rgb(0,0,0)" stroke-opacity="1" stroke-width="2" d=" M282.92498779296875,246.19500732421875 C282.92498779296875,246.19500732421875 296.32501220703125,228.19500732421875 296.32501220703125,228.19500732421875"></path></g></g></g></g></g><g style="display: block;" transform="matrix(1,0,0,1,-0.4620000123977661,-0.09700000286102295)" opacity="1"><g opacity="1" transform="matrix(1,0,0,1,0,0)"><path stroke-linecap="round" stroke-linejoin="round" fill-opacity="0" stroke="rgb(0,0,0)" stroke-opacity="1" stroke-width="2" d=" M135.4250030517578,243.69500732421875 C135.4250030517578,243.69500732421875 158.52499389648438,349.8949890136719 158.52499389648438,349.8949890136719"></path></g></g><g style="display: block;" transform="matrix(1,0,0,1,-0.4620000123977661,-0.09700000286102295)" opacity="1"><g opacity="1" transform="matrix(1,0,0,1,0,0)"><path stroke-linecap="round" stroke-linejoin="round" fill-opacity="0" stroke="rgb(0,0,0)" stroke-opacity="1" stroke-width="2" d=" M151.22500610351562,316.2950134277344 C151.22500610351562,316.2950134277344 162.125,313.19500732421875 162.125,313.19500732421875"></path></g></g><g style="display: block;" transform="matrix(1,0,0,1,-0.4620000123977661,-0.09700000286102295)" opacity="1"><g opacity="1" transform="matrix(1,0,0,1,0,0)"><path stroke-linecap="round" stroke-linejoin="round" fill-opacity="0" stroke="rgb(0,0,0)" stroke-opacity="1" stroke-width="2" d=" M79.625,219.89500427246094 C79.625,219.89500427246094 86.5250015258789,215.59500122070312 112.42500305175781,216.69500732421875 C138.625,217.69500732421875 145.22500610351562,223.19500732421875 145.22500610351562,223.19500732421875"></path></g></g><g style="display: block;" transform="matrix(1,0.00022412781254388392,-0.00022412781254388392,1,-0.382293701171875,-0.207855224609375)" opacity="1"><g opacity="1" transform="matrix(1,0,0,1,0,0)"><path fill="rgb(0,0,0)" fill-opacity="1" d=" M506.70001220703125,346.5950012207031 C506.70001220703125,346.5950012207031 536.4769897460938,373.4410095214844 543.1589965820312,380.1239929199219 C549.8419799804688,386.8059997558594 551.8350219726562,408.7279968261719 550.89697265625,411.19000244140625 C549.958984375,413.7690124511719 540.22802734375,418.4590148925781 537.531982421875,412.9490051269531 C534.8359985351562,407.4389953613281 538.0009765625,400.1700134277344 535.3049926757812,397.9429931640625 C532.7260131835938,395.5979919433594 494.625,374.0270080566406 494.625,374.0270080566406 C494.625,374.0270080566406 506.70001220703125,346.5950012207031 506.70001220703125,346.5950012207031 C506.70001220703125,346.5950012207031 506.70001220703125,346.5950012207031 506.70001220703125,346.5950012207031z"></path></g></g><g style="display: block;" transform="matrix(1,0,0,1,-0.4620000123977661,-0.09700000286102295)" opacity="1"><g opacity="1" transform="matrix(1,0,0,1,0,0)"><path fill="rgb(0,0,0)" fill-opacity="1" d=" M514.125,352.4949951171875 C522.8250122070312,341.5950012207031 540.4249877929688,314.3949890136719 542.625,301.4949951171875 C542.625,301.4949951171875 509.5249938964844,293.5950012207031 497.625,284.3949890136719 C491.2250061035156,293.0950012207031 480.125,297.19500732421875 469.42498779296875,297.9949951171875 C458.7250061035156,298.8949890136719 447.92498779296875,296.9949951171875 437.2250061035156,295.9949951171875 C411.0249938964844,293.5950012207031 369.2250061035156,305.8949890136719 359.5249938964844,300.7950134277344 C349.82501220703125,295.69500732421875 346.82501220703125,285.4949951171875 344.42498779296875,267.8949890136719 C342.0249938964844,250.2949981689453 354.5249938964844,239.4949951171875 362.42498779296875,231.39500427246094 C365.92498779296875,227.89500427246094 363.7250061035156,217.9949951171875 354.82501220703125,225.4949951171875 C314.42498779296875,259.4949951171875 342.42498779296875,292.3949890136719 340.42498779296875,319.0950012207031 C339.5249938964844,331.4949951171875 338.82501220703125,344.69500732421875 344.92498779296875,355.3949890136719 C347.625,360.19500732421875 351.625,364.19500732421875 353.5249938964844,369.2950134277344 C355.42498779296875,374.2950134277344 355.32501220703125,383.2950134277344 354.5249938964844,390.5950012207031 C354.5249938964844,390.5950012207031 378.32501220703125,390.5950012207031 378.32501220703125,390.5950012207031 C380.32501220703125,387.7950134277344 382.5249938964844,384.8949890136719 384.7250061035156,381.8949890136719 C393.92498779296875,369.3949890136719 415.0249938964844,375.0950012207031 427.5249938964844,375.7950134277344 C440.0249938964844,376.4949951171875 452.7250061035156,379.69500732421875 462.92498779296875,386.9949951171875 C479.42498779296875,398.69500732421875 477.125,418.8949890136719 488.42498779296875,435.69500732421875 C490.32501220703125,438.5950012207031 492.5249938964844,441.3949890136719 495.2250061035156,443.4949951171875 C497.92498779296875,445.5950012207031 501.42498779296875,446.9949951171875 504.92498779296875,446.4949951171875 C508.32501220703125,446.0950012207031 511.625,443.4949951171875 512.3250122070312,440.0950012207031 C513.0250244140625,436.69500732421875 510.42498779296875,432.7950134277344 506.92498779296875,432.69500732421875 C505.5249938964844,432.5950012207031 504.0249938964844,433.0950012207031 502.625,432.8949890136719 C500.0249938964844,432.4949951171875 498.5249938964844,429.69500732421875 497.42498779296875,427.2950134277344 C492.92498779296875,417.19500732421875 496.42498779296875,408.69500732421875 496.7250061035156,396.19500732421875 C497.32501220703125,385.0950012207031 495.5249938964844,375.5950012207031 514.125,352.4949951171875 C514.125,352.4949951171875 514.125,352.4949951171875 514.125,352.4949951171875z"></path></g></g><g style="display: block;" transform="matrix(1,0,0,1,-0.4620000123977661,-0.09700000286102295)" opacity="1"><g opacity="1" transform="matrix(1,0,0,1,0,0)"><path fill="rgb(255,255,255)" fill-opacity="1" d=" M507.2250061035156,432.69500732421875 C505.82501220703125,432.5950012207031 504.32501220703125,433.0950012207031 502.92498779296875,432.8949890136719 C502.82501220703125,432.8949890136719 502.82501220703125,432.8949890136719 502.7250061035156,432.8949890136719 C502.32501220703125,433.5950012207031 502.0249938964844,434.19500732421875 501.42498779296875,434.69500732421875 C500.5249938964844,435.2950134277344 499.42498779296875,435.2950134277344 498.32501220703125,435.19500732421875 C494.92498779296875,435.0950012207031 491.5249938964844,434.8949890136719 488.125,434.7950134277344 C488.32501220703125,435.0950012207031 488.5249938964844,435.3949890136719 488.7250061035156,435.69500732421875 C490.625,438.5950012207031 492.82501220703125,441.3949890136719 495.5249938964844,443.4949951171875 C498.2250061035156,445.5950012207031 501.7250061035156,446.9949951171875 505.2250061035156,446.4949951171875 C508.625,446.0950012207031 511.92498779296875,443.4949951171875 512.625,440.0950012207031 C513.2249755859375,436.69500732421875 510.625,432.8949890136719 507.2250061035156,432.69500732421875 C507.2250061035156,432.69500732421875 507.2250061035156,432.69500732421875 507.2250061035156,432.69500732421875z"></path><path stroke-linecap="butt" stroke-linejoin="miter" fill-opacity="0" stroke-miterlimit="10" stroke="rgb(0,0,0)" stroke-opacity="1" stroke-width="2" d=" M507.2250061035156,432.69500732421875 C505.82501220703125,432.5950012207031 504.32501220703125,433.0950012207031 502.92498779296875,432.8949890136719 C502.82501220703125,432.8949890136719 502.82501220703125,432.8949890136719 502.7250061035156,432.8949890136719 C502.32501220703125,433.5950012207031 502.0249938964844,434.19500732421875 501.42498779296875,434.69500732421875 C500.5249938964844,435.2950134277344 499.42498779296875,435.2950134277344 498.32501220703125,435.19500732421875 C494.92498779296875,435.0950012207031 491.5249938964844,434.8949890136719 488.125,434.7950134277344 C488.32501220703125,435.0950012207031 488.5249938964844,435.3949890136719 488.7250061035156,435.69500732421875 C490.625,438.5950012207031 492.82501220703125,441.3949890136719 495.5249938964844,443.4949951171875 C498.2250061035156,445.5950012207031 501.7250061035156,446.9949951171875 505.2250061035156,446.4949951171875 C508.625,446.0950012207031 511.92498779296875,443.4949951171875 512.625,440.0950012207031 C513.2249755859375,436.69500732421875 510.625,432.8949890136719 507.2250061035156,432.69500732421875 C507.2250061035156,432.69500732421875 507.2250061035156,432.69500732421875 507.2250061035156,432.69500732421875z"></path></g></g><g style="display: block;" transform="matrix(1,0,0,1,-0.4620000123977661,-0.09700000286102295)" opacity="1"><g opacity="1" transform="matrix(1,0,0,1,0,0)"><path fill="rgb(255,255,255)" fill-opacity="1" d=" M530.7249755859375,317.3949890136719 C527.7249755859375,314.3949890136719 523.4249877929688,313.19500732421875 519.2249755859375,312.19500732421875 C515.625,311.2950134277344 504.125,307.9949951171875 499.42498779296875,320.0950012207031 C492.42498779296875,338.19500732421875 495.7250061035156,358.4949951171875 498.82501220703125,377.19500732421875 C499.92498779296875,373.2950134277344 510.92498779296875,356.7950134277344 514.0250244140625,352.3949890136719 C518.8250122070312,345.69500732421875 527.125,333.69500732421875 533.625,322.19500732421875 C533.0250244140625,320.4949951171875 532.125,318.7950134277344 530.7249755859375,317.3949890136719 C530.7249755859375,317.3949890136719 530.7249755859375,317.3949890136719 530.7249755859375,317.3949890136719z"></path><path stroke-linecap="round" stroke-linejoin="round" fill-opacity="0" stroke="rgb(0,0,0)" stroke-opacity="1" stroke-width="2" d=" M530.7249755859375,317.3949890136719 C527.7249755859375,314.3949890136719 523.4249877929688,313.19500732421875 519.2249755859375,312.19500732421875 C515.625,311.2950134277344 504.125,307.9949951171875 499.42498779296875,320.0950012207031 C492.42498779296875,338.19500732421875 495.7250061035156,358.4949951171875 498.82501220703125,377.19500732421875 C499.92498779296875,373.2950134277344 510.92498779296875,356.7950134277344 514.0250244140625,352.3949890136719 C518.8250122070312,345.69500732421875 527.125,333.69500732421875 533.625,322.19500732421875 C533.0250244140625,320.4949951171875 532.125,318.7950134277344 530.7249755859375,317.3949890136719 C530.7249755859375,317.3949890136719 530.7249755859375,317.3949890136719 530.7249755859375,317.3949890136719z"></path></g></g><g style="display: block;" transform="matrix(1,0,0,1,-0.4620000123977661,-0.09700000286102295)" opacity="1"><g opacity="1" transform="matrix(1,0,0,1,0,0)"><path fill="rgb(0,0,0)" fill-opacity="1" d=" M490.7250061035156,254.39500427246094 C494.7250061035156,253.09500122070312 504.2250061035156,260.9949951171875 509.125,269.9949951171875 C517.125,268.69500732421875 531.5250244140625,269.9949951171875 531.5250244140625,269.9949951171875 C531.5250244140625,269.9949951171875 542.125,253.39500427246094 546.9249877929688,255.09500122070312 C553.7249755859375,257.4949951171875 546.4249877929688,280.3949890136719 546.2249755859375,285.69500732421875 C546.0250244140625,291.0950012207031 548.625,298.3949890136719 542.8250122070312,307.2950134277344 C540.7249755859375,310.4949951171875 530.8250122070312,320.3949890136719 522.3250122070312,321.4949951171875 C510.92498779296875,322.9949951171875 491.32501220703125,311.9949951171875 489.82501220703125,300.5950012207031 C488.42498779296875,289.7950134277344 491.32501220703125,281.4949951171875 490.2250061035156,276.4949951171875 C489.5249938964844,273.3949890136719 485.32501220703125,256.0950012207031 490.7250061035156,254.39500427246094 C490.7250061035156,254.39500427246094 490.7250061035156,254.39500427246094 490.7250061035156,254.39500427246094z"></path></g></g><g style="display: block;" transform="matrix(1,0,0,1,-0.4620000123977661,-0.09700000286102295)" opacity="1"><g opacity="1" transform="matrix(1,0,0,1,0,0)"><path fill="rgb(255,255,255)" fill-opacity="1" d=" M502.125,266.3949890136719 C500.42498779296875,262.3949890136719 497.32501220703125,259.0950012207031 493.42498779296875,257.19500732421875 C492.2250061035156,256.5950012207031 490.5249938964844,256.19500732421875 489.5249938964844,257.0950012207031 C488.7250061035156,257.8949890136719 488.625,259.0950012207031 488.7250061035156,260.2950134277344 C489.0249938964844,264.4949951171875 489.625,268.69500732421875 490.625,272.7950134277344 C491.2250061035156,274.9949951171875 492.0249938964844,277.3949890136719 493.92498779296875,278.5950012207031 C495.7250061035156,279.7950134277344 498.2250061035156,279.5950012207031 500.0249938964844,278.2950134277344 C501.82501220703125,277.0950012207031 502.92498779296875,274.9949951171875 503.125,272.7950134277344 C503.5249938964844,270.5950012207031 503.0249938964844,268.3949890136719 502.125,266.3949890136719 C502.125,266.3949890136719 502.125,266.3949890136719 502.125,266.3949890136719z"></path><path stroke-linecap="round" stroke-linejoin="round" fill-opacity="0" stroke="rgb(0,0,0)" stroke-opacity="1" stroke-width="2" d=" M502.125,266.3949890136719 C500.42498779296875,262.3949890136719 497.32501220703125,259.0950012207031 493.42498779296875,257.19500732421875 C492.2250061035156,256.5950012207031 490.5249938964844,256.19500732421875 489.5249938964844,257.0950012207031 C488.7250061035156,257.8949890136719 488.625,259.0950012207031 488.7250061035156,260.2950134277344 C489.0249938964844,264.4949951171875 489.625,268.69500732421875 490.625,272.7950134277344 C491.2250061035156,274.9949951171875 492.0249938964844,277.3949890136719 493.92498779296875,278.5950012207031 C495.7250061035156,279.7950134277344 498.2250061035156,279.5950012207031 500.0249938964844,278.2950134277344 C501.82501220703125,277.0950012207031 502.92498779296875,274.9949951171875 503.125,272.7950134277344 C503.5249938964844,270.5950012207031 503.0249938964844,268.3949890136719 502.125,266.3949890136719 C502.125,266.3949890136719 502.125,266.3949890136719 502.125,266.3949890136719z"></path></g></g><g style="display: block;" transform="matrix(1,0,0,1,-0.4620000123977661,-0.09700000286102295)" opacity="1"><g opacity="1" transform="matrix(1,0,0,1,0,0)"><path fill="rgb(255,255,255)" fill-opacity="1" d=" M537.625,278.19500732421875 C536.7249755859375,277.0950012207031 536.4249877929688,275.4949951171875 536.4249877929688,274.0950012207031 C536.4249877929688,269.2950134277344 539.4249877929688,265.0950012207031 542.2249755859375,261.3949890136719 C543.625,259.4949951171875 546.3250122070312,255.89500427246094 547.5250244140625,256.9949951171875 C548.7249755859375,258.0950012207031 549.0250244140625,263.3949890136719 548.7249755859375,266.69500732421875 C548.4249877929688,269.9949951171875 547.625,273.19500732421875 546.8250122070312,276.3949890136719 C546.5250244140625,277.7950134277344 546.0250244140625,279.2950134277344 544.9249877929688,280.0950012207031 C543.7249755859375,280.9949951171875 542.0250244140625,280.69500732421875 540.625,280.19500732421875 C539.5250244140625,279.69500732421875 538.4249877929688,279.19500732421875 537.625,278.19500732421875 C537.625,278.19500732421875 537.625,278.19500732421875 537.625,278.19500732421875z"></path><path stroke-linecap="round" stroke-linejoin="round" fill-opacity="0" stroke="rgb(0,0,0)" stroke-opacity="1" stroke-width="2" d=" M537.625,278.19500732421875 C536.7249755859375,277.0950012207031 536.4249877929688,275.4949951171875 536.4249877929688,274.0950012207031 C536.4249877929688,269.2950134277344 539.4249877929688,265.0950012207031 542.2249755859375,261.3949890136719 C543.625,259.4949951171875 546.3250122070312,255.89500427246094 547.5250244140625,256.9949951171875 C548.7249755859375,258.0950012207031 549.0250244140625,263.3949890136719 548.7249755859375,266.69500732421875 C548.4249877929688,269.9949951171875 547.625,273.19500732421875 546.8250122070312,276.3949890136719 C546.5250244140625,277.7950134277344 546.0250244140625,279.2950134277344 544.9249877929688,280.0950012207031 C543.7249755859375,280.9949951171875 542.0250244140625,280.69500732421875 540.625,280.19500732421875 C539.5250244140625,279.69500732421875 538.4249877929688,279.19500732421875 537.625,278.19500732421875 C537.625,278.19500732421875 537.625,278.19500732421875 537.625,278.19500732421875z"></path></g></g><g style="display: block;" transform="matrix(1,0,0,1,-0.4620000123977661,-0.09700000286102295)" opacity="1"><g opacity="1" transform="matrix(1,0,0,1,0,0)"><path stroke-linecap="round" stroke-linejoin="round" fill-opacity="0" stroke="rgb(0,0,0)" stroke-opacity="1" stroke-width="2" d=" M528.3250122070312,349.7950134277344 C528.3250122070312,349.7950134277344 510.32501220703125,333.3949890136719 518.125,319.8949890136719 C526.0250244140625,306.4949951171875 548.9249877929688,320.2950134277344 556.5250244140625,331.0950012207031"></path></g></g><g style="display: block;" transform="matrix(1,0,0,1,-0.4620000123977661,-0.09700000286102295)" opacity="1"><g opacity="1" transform="matrix(1,0,0,1,0,0)"><path stroke-linecap="round" stroke-linejoin="round" fill-opacity="0" stroke="rgb(0,0,0)" stroke-opacity="1" stroke-width="2" d=" M547.7249755859375,334.8949890136719 C547.7249755859375,334.8949890136719 559.5250244140625,334.3949890136719 561.4249877929688,323.7950134277344 C561.4249877929688,323.7950134277344 567.625,330.5950012207031 566.125,340.5950012207031 C566.125,340.5950012207031 568.3250122070312,340.4949951171875 568.625,341.7950134277344 C568.9249877929688,343.0950012207031 567.125,342.9949951171875 565.9249877929688,342.19500732421875 C565.9249877929688,342.19500732421875 566.5250244140625,344.3949890136719 565.0250244140625,344.9949951171875 C563.5250244140625,345.5950012207031 564.0250244140625,342.7950134277344 564.0250244140625,342.7950134277344 C564.0250244140625,342.7950134277344 555.2249755859375,343.7950134277344 547.7249755859375,334.8949890136719 C547.7249755859375,334.8949890136719 547.7249755859375,334.8949890136719 547.7249755859375,334.8949890136719z"></path></g></g><g style="display: block;" transform="matrix(1,0,0,1,-0.4620000123977661,-0.09700000286102295)" opacity="1"><g opacity="1" transform="matrix(1,0,0,1,0,0)"><path stroke-linecap="round" stroke-linejoin="round" fill-opacity="0" stroke="rgb(0,0,0)" stroke-opacity="1" stroke-width="2" d=" M547.7249755859375,334.8949890136719 C547.7249755859375,334.8949890136719 550.0250244140625,328.5950012207031 561.4249877929688,323.7950134277344"></path></g></g><g style="display: block;" transform="matrix(1,0,0,1,-0.4620000123977661,-0.09700000286102295)" opacity="1"><g opacity="1" transform="matrix(1,0,0,1,0,0)"><path stroke-linecap="round" stroke-linejoin="round" fill-opacity="0" stroke="rgb(0,0,0)" stroke-opacity="1" stroke-width="2" d=" M563.8250122070312,333.69500732421875 C563.8250122070312,333.69500732421875 561.2249755859375,334.3949890136719 561.2249755859375,334.3949890136719"></path></g></g><g style="display: block;" transform="matrix(1,0,0,1,-0.4620000123977661,-0.09700000286102295)" opacity="1"><g opacity="1" transform="matrix(1,0,0,1,0,0)"><path stroke-linecap="round" stroke-linejoin="round" fill-opacity="0" stroke="rgb(0,0,0)" stroke-opacity="1" stroke-width="2" d=" M562.9249877929688,335.5950012207031 C562.9249877929688,335.5950012207031 562.3250122070312,332.7950134277344 562.3250122070312,332.7950134277344"></path></g></g><g style="display: block;" transform="matrix(1,0,0,1,-0.4620000123977661,-0.09700000286102295)" opacity="1"><g opacity="1" transform="matrix(1,0,0,1,0,0)"><path stroke-linecap="round" stroke-linejoin="round" fill-opacity="0" stroke="rgb(0,0,0)" stroke-opacity="1" stroke-width="2" d=" M534.9249877929688,357.69500732421875 C534.9249877929688,357.69500732421875 535.625,362.69500732421875 531.2249755859375,361.4949951171875 C526.7249755859375,360.2950134277344 528.4249877929688,349.7950134277344 528.4249877929688,349.7950134277344 C528.4249877929688,349.7950134277344 537.2249755859375,350.0950012207031 539.3250122070312,352.7950134277344 C541.4249877929688,355.5950012207031 538.7249755859375,359.5950012207031 534.9249877929688,357.69500732421875 C534.9249877929688,357.69500732421875 534.9249877929688,357.69500732421875 534.9249877929688,357.69500732421875z"></path></g></g><g style="display: block;" transform="matrix(1,0,0,1,-0.4620000123977661,-0.09700000286102295)" opacity="1"><g opacity="1" transform="matrix(1,0,0,1,0,0)"><path stroke-linecap="round" stroke-linejoin="round" fill-opacity="0" stroke="rgb(0,0,0)" stroke-opacity="1" stroke-width="2" d=" M522.7249755859375,352.8949890136719 C522.7249755859375,352.8949890136719 524.4249877929688,345.5950012207031 524.4249877929688,345.5950012207031 C524.4249877929688,345.5950012207031 531.8250122070312,345.5950012207031 531.8250122070312,345.5950012207031"></path></g></g><g style="display: block;" transform="matrix(1,0,0,1,-0.4620000123977661,-0.09700000286102295)" opacity="1"><g opacity="1" transform="matrix(1,0,0,1,0,0)"><path stroke-linecap="round" stroke-linejoin="round" fill-opacity="0" stroke="rgb(0,0,0)" stroke-opacity="1" stroke-width="2" d=" M517.3250122070312,350.4949951171875 C517.3250122070312,350.4949951171875 520.5250244140625,340.5950012207031 520.5250244140625,340.5950012207031 C520.5250244140625,340.5950012207031 530.7249755859375,341.4949951171875 530.7249755859375,341.4949951171875"></path></g></g><g style="display: block;" transform="matrix(1,0,0,1,-0.4620000123977661,-0.09700000286102295)" opacity="1"><g opacity="1" transform="matrix(1,0,0,1,0,0)"><path stroke-linecap="round" stroke-linejoin="round" fill-opacity="0" stroke="rgb(0,0,0)" stroke-opacity="1" stroke-width="2" d=" M512.0250244140625,344.8949890136719 C512.0250244140625,344.8949890136719 517.4249877929688,334.0950012207031 517.4249877929688,334.0950012207031 C517.4249877929688,334.0950012207031 529.0250244140625,336.8949890136719 529.0250244140625,336.8949890136719"></path></g></g><g style="display: block;" transform="matrix(1,0,0,1,-0.4620000123977661,-0.09700000286102295)" opacity="1"><g opacity="1" transform="matrix(1,0,0,1,0,0)"><path stroke-linecap="round" stroke-linejoin="round" fill-opacity="0" stroke="rgb(0,0,0)" stroke-opacity="1" stroke-width="2" d=" M507.7250061035156,332.9949951171875 C507.7250061035156,332.9949951171875 516.4249877929688,324.4949951171875 516.4249877929688,324.4949951171875 C516.4249877929688,324.4949951171875 526.5250244140625,330.9949951171875 526.5250244140625,330.9949951171875"></path></g></g><g style="display: block;" transform="matrix(1,0,0,1,-0.4620000123977661,-0.09700000286102295)" opacity="1"><g opacity="1" transform="matrix(1,0,0,1,0,0)"><path stroke-linecap="round" stroke-linejoin="round" fill-opacity="0" stroke="rgb(0,0,0)" stroke-opacity="1" stroke-width="2" d=" M508.92498779296875,320.8949890136719 C508.92498779296875,320.8949890136719 520.5250244140625,317.2950134277344 520.5250244140625,317.2950134277344 C520.5250244140625,317.2950134277344 526.5250244140625,327.69500732421875 526.5250244140625,327.69500732421875"></path></g></g><g style="display: block;" transform="matrix(1,0,0,1,-0.4620000123977661,-0.09700000286102295)" opacity="1"><g opacity="1" transform="matrix(1,0,0,1,0,0)"><path stroke-linecap="round" stroke-linejoin="round" fill-opacity="0" stroke="rgb(0,0,0)" stroke-opacity="1" stroke-width="2" d=" M555.4249877929688,315.4949951171875 C555.4249877929688,315.4949951171875 552.8250122070312,326.69500732421875 552.8250122070312,326.69500732421875 C552.8250122070312,326.69500732421875 541.3250122070312,329.69500732421875 541.3250122070312,329.69500732421875"></path></g></g><g style="display: block;" transform="matrix(1,0,0,1,-0.4620000123977661,-0.09700000286102295)" opacity="1"><g opacity="1" transform="matrix(1,0,0,1,0,0)"><path stroke-linecap="round" stroke-linejoin="round" fill-opacity="0" stroke="rgb(0,0,0)" stroke-opacity="1" stroke-width="2" d=" M549.8250122070312,310.8949890136719 C549.8250122070312,310.8949890136719 547.3250122070312,322.0950012207031 547.3250122070312,322.0950012207031 C547.3250122070312,322.0950012207031 535.7249755859375,325.0950012207031 535.7249755859375,325.0950012207031"></path></g></g><g style="display: block;" transform="matrix(1,0,0,1,-0.4620000123977661,-0.09700000286102295)" opacity="1"><g opacity="1" transform="matrix(1,0,0,1,0,0)"><path stroke-linecap="round" stroke-linejoin="round" fill-opacity="0" stroke="rgb(0,0,0)" stroke-opacity="1" stroke-width="2" d=" M542.0250244140625,306.0950012207031 C542.0250244140625,306.0950012207031 540.625,317.4949951171875 540.625,317.4949951171875 C540.625,317.4949951171875 529.5250244140625,321.69500732421875 529.5250244140625,321.69500732421875"></path></g></g><g style="display: block;" transform="matrix(1,0,0,1,-0.4620000123977661,-0.09700000286102295)" opacity="1"><g opacity="1" transform="matrix(1,0,0,1,0,0)"><path fill-rule="evenodd" fill="rgb(255,255,255)" fill-opacity="1" d=" M532.125,315.7950134277344 C529.625,315.9949951171875 527.3250122070312,314.2950134277344 524.8250122070312,314.5950012207031 C523.4249877929688,314.7950134277344 522.125,315.5950012207031 520.8250122070312,315.9949951171875 C518.2249755859375,316.7950134277344 515.125,315.9949951171875 513.3250122070312,313.8949890136719 C511.625,311.7950134277344 511.5249938964844,308.3949890136719 513.3250122070312,306.2950134277344 C514.8250122070312,304.4949951171875 517.2249755859375,303.8949890136719 519.5250244140625,303.5950012207031 C521.9249877929688,303.19500732421875 524.4249877929688,303.0950012207031 526.8250122070312,303.0950012207031 C530.0250244140625,303.0950012207031 533.3250122070312,303.5950012207031 536.0250244140625,305.2950134277344 C537.0250244140625,305.8949890136719 537.8250122070312,306.7950134277344 538.4249877929688,307.7950134277344 C538.9249877929688,308.7950134277344 539.125,310.0950012207031 538.8250122070312,311.19500732421875 C538.4249877929688,312.3949890136719 537.3250122070312,313.2950134277344 536.3250122070312,313.9949951171875 C535.0250244140625,314.8949890136719 533.625,315.69500732421875 532.125,315.7950134277344 C532.125,315.7950134277344 532.125,315.7950134277344 532.125,315.7950134277344z"></path></g></g><g style="display: block;" transform="matrix(1,0,0,1,-0.4620000123977661,-0.09700000286102295)" opacity="1"><g opacity="1" transform="matrix(1,0,0,1,0,0)"><path fill="rgb(0,0,0)" fill-opacity="1" d=" M527.125,309.5950012207031 C526.3250122070312,310.19500732421875 525.3250122070312,310.19500732421875 524.5250244140625,309.5950012207031 C523.0250244140625,308.3949890136719 520.8250122070312,306.3949890136719 521.5250244140625,305.0950012207031 C522.5250244140625,303.19500732421875 530.9249877929688,303.3949890136719 530.3250122070312,305.69500732421875 C530.0250244140625,307.0950012207031 528.3250122070312,308.5950012207031 527.125,309.5950012207031 C527.125,309.5950012207031 527.125,309.5950012207031 527.125,309.5950012207031z"></path></g></g><g style="display: block;" transform="matrix(1,0,0,1,-0.4620000123977661,-0.09700000286102295)" opacity="1"><g opacity="1" transform="matrix(1,0,0,1,0,0)"><path fill-rule="evenodd" fill="rgb(255,255,255)" fill-opacity="1" d=" M529.625,317.7950134277344 C529.625,318.19500732421875 529.125,318.3949890136719 528.8250122070312,318.5950012207031 C527.125,319.19500732421875 525.2249755859375,318.7950134277344 523.5250244140625,318.3949890136719 C523.0250244140625,318.2950134277344 522.3250122070312,318.0950012207031 522.2249755859375,317.4949951171875 C522.125,317.0950012207031 522.4249877929688,316.7950134277344 522.7249755859375,316.5950012207031 C523.0250244140625,316.3949890136719 523.4249877929688,316.2950134277344 523.7249755859375,316.19500732421875 C524.7249755859375,315.9949951171875 525.625,315.7950134277344 526.625,315.8949890136719 C527.625,315.9949951171875 528.625,316.2950134277344 529.3250122070312,316.9949951171875 C529.4249877929688,317.19500732421875 529.625,317.4949951171875 529.625,317.7950134277344 C529.625,317.7950134277344 529.625,317.7950134277344 529.625,317.7950134277344z"></path></g></g><g style="display: block;" transform="matrix(1,0,0,1,-0.4620000123977661,-0.09700000286102295)" opacity="1"><g opacity="1" transform="matrix(1,0,0,1,0,0)"><path stroke-linecap="round" stroke-linejoin="round" fill-opacity="0" stroke="rgb(255,255,255)" stroke-opacity="1" stroke-width="1" d=" M534.4249877929688,307.0950012207031 C534.4249877929688,307.0950012207031 540.9249877929688,303.0950012207031 548.2249755859375,307.0950012207031"></path></g></g><g style="display: block;" transform="matrix(1,0,0,1,-0.4620000123977661,-0.09700000286102295)" opacity="1"><g opacity="1" transform="matrix(1,0,0,1,0,0)"><path stroke-linecap="round" stroke-linejoin="round" fill-opacity="0" stroke="rgb(255,255,255)" stroke-opacity="1" stroke-width="1" d=" M534.8250122070312,309.69500732421875 C534.8250122070312,309.69500732421875 542.9249877929688,307.0950012207031 547.625,312.9949951171875"></path></g></g><g style="display: block;" transform="matrix(1,0,0,1,-0.4620000123977661,-0.09700000286102295)" opacity="1"><g opacity="1" transform="matrix(1,0,0,1,0,0)"><path stroke-linecap="round" stroke-linejoin="round" fill-opacity="0" stroke="rgb(255,255,255)" stroke-opacity="1" stroke-width="1" d=" M534.4249877929688,312.4949951171875 C534.4249877929688,312.4949951171875 539.9249877929688,311.19500732421875 542.7249755859375,315.4949951171875"></path></g></g><g style="display: block;" transform="matrix(1,0,0,1,-0.4620000123977661,-0.09700000286102295)" opacity="1"><g opacity="1" transform="matrix(1,0,0,1,0,0)"><path stroke-linecap="round" stroke-linejoin="round" fill-opacity="0" stroke="rgb(255,255,255)" stroke-opacity="1" stroke-width="1" d=" M517.125,307.0950012207031 C517.125,307.0950012207031 512.0250244140625,302.69500732421875 504.125,305.19500732421875"></path></g></g><g style="display: block;" transform="matrix(1,0,0,1,-0.4620000123977661,-0.09700000286102295)" opacity="1"><g opacity="1" transform="matrix(1,0,0,1,0,0)"><path stroke-linecap="round" stroke-linejoin="round" fill-opacity="0" stroke="rgb(255,255,255)" stroke-opacity="1" stroke-width="1" d=" M517.125,310.4949951171875 C517.125,310.4949951171875 510.32501220703125,306.19500732421875 502.625,310.8949890136719"></path></g></g><g style="display: block;" transform="matrix(1,0,0,1,-0.4620000123977661,-0.09700000286102295)" opacity="1"><g opacity="1" transform="matrix(1,0,0,1,0,0)"><path stroke-linecap="round" stroke-linejoin="round" fill-opacity="0" stroke="rgb(255,255,255)" stroke-opacity="1" stroke-width="1" d=" M508.125,315.8949890136719 C508.125,315.8949890136719 511.42498779296875,311.4949951171875 517.7249755859375,313.5950012207031"></path></g></g><g style="display: block;" transform="matrix(1,0,0,1,-0.4620000123977661,-0.09700000286102295)" opacity="1"><g opacity="1" transform="matrix(1,0,0,1,0,0)"><path stroke-linecap="round" stroke-linejoin="round" fill-opacity="0" stroke="rgb(255,255,255)" stroke-opacity="1" stroke-width="2" d=" M530.7249755859375,292.8949890136719 C530.7249755859375,292.8949890136719 533.2249755859375,287.9949951171875 538.2249755859375,291.19500732421875"></path></g></g><g style="display: block;" transform="matrix(1,0,0,1,-0.4620000123977661,-0.09700000286102295)" opacity="1"><g opacity="1" transform="matrix(1,0,0,1,0,0)"><path stroke-linecap="round" stroke-linejoin="round" fill-opacity="0" stroke="rgb(255,255,255)" stroke-opacity="1" stroke-width="2" d=" M517.7249755859375,293.19500732421875 C517.7249755859375,293.19500732421875 514.7249755859375,288.3949890136719 508.82501220703125,291.4949951171875"></path></g></g><g style="display: block;" transform="matrix(1,0,0,1,-0.4620000123977661,-0.09700000286102295)" opacity="1"><g opacity="1" transform="matrix(1,0,0,1,0,0)"><path stroke-linecap="round" stroke-linejoin="round" fill-opacity="0" stroke="rgb(255,255,255)" stroke-opacity="1" stroke-width="2" d=" M489.125,290.0950012207031 C489.125,290.0950012207031 486.7250061035156,303.0950012207031 497.32501220703125,312.2950134277344"></path></g></g><g style="display: block;" transform="matrix(1,0,0,1,-0.4620000123977661,-0.09700000286102295)" opacity="1"><g opacity="1" transform="matrix(1,0,0,1,0,0)"><path stroke-linecap="round" stroke-linejoin="round" fill-opacity="0" stroke="rgb(255,255,255)" stroke-opacity="1" stroke-width="2" d=" M380.5249938964844,390.69500732421875 C380.5249938964844,390.69500732421875 387.625,373.4949951171875 407.0249938964844,373.9949951171875 C426.42498779296875,374.4949951171875 449.0249938964844,379.7950134277344 449.0249938964844,379.7950134277344"></path></g></g><g style="display: block;" transform="matrix(1,0,0,1,-0.4620000123977661,-0.09700000286102295)" opacity="1"><g opacity="1" transform="matrix(1,0,0,1,0,0)"><path stroke-linecap="round" stroke-linejoin="round" fill-opacity="0" stroke="rgb(255,255,255)" stroke-opacity="1" stroke-width="2" d=" M354.7250061035156,390.69500732421875 C354.7250061035156,390.69500732421875 357.0249938964844,370.5950012207031 349.625,362.2950134277344"></path></g></g></g></svg>