<svg xmlns="http://www.w3.org/2000/svg" viewBox="0 0 180 187" width="180" height="187" style="width: 100%; height: 100%; transform: translate3d(0px, 0px, 0px);" preserveAspectRatio="xMidYMid meet"><defs><clipPath id="__lottie_element_266"><rect width="180" height="187" x="0" y="0"></rect></clipPath></defs><g clip-path="url(#__lottie_element_266)"><g style="display: block;" transform="matrix(-1,0,0,1,59.20600128173828,142.22799682617188)" opacity="1"><g opacity="1" transform="matrix(1.7320507764816284,-1,1,1.7320507764816284,0,0)"><path fill="rgb(0,0,0)" fill-opacity="1" d=" M-12.628000259399414,-1.8539999723434448 C-12.628000259399414,-1.8539999723434448 -12.628000259399414,-7.414999961853027 -12.628000259399414,-7.414999961853027 C-12.628000259399414,-7.414999961853027 12.628000259399414,-7.414999961853027 12.628000259399414,-7.414999961853027 C12.628000259399414,-7.414999961853027 12.628000259399414,-1.8539999723434448 12.628000259399414,-1.8539999723434448 C12.628000259399414,0.15399999916553497 11.392000198364258,1.930999994277954 9.461000442504883,2.625999927520752 C9.461000442504883,2.625999927520752 4.054999828338623,4.480000019073486 4.054999828338623,4.480000019073486 C4.054999828338623,4.480000019073486 4.054999828338623,5.869999885559082 4.054999828338623,5.869999885559082 C4.054999828338623,6.71999979019165 3.359999895095825,7.414999961853027 2.509999990463257,7.414999961853027 C2.509999990463257,7.414999961853027 -2.509999990463257,7.414999961853027 -2.509999990463257,7.414999961853027 C-3.359999895095825,7.414999961853027 -4.054999828338623,6.71999979019165 -4.054999828338623,5.869999885559082 C-4.054999828338623,5.869999885559082 -4.054999828338623,4.480000019073486 -4.054999828338623,4.480000019073486 C-4.054999828338623,4.480000019073486 -9.461000442504883,2.625999927520752 -9.461000442504883,2.625999927520752 C-11.3149995803833,1.930999994277954 -12.628000259399414,0.15399999916553497 -12.628000259399414,-1.8539999723434448z"></path></g></g><g style="display: block;" transform="matrix(-1,0,0,1,67.08100128173828,142.5279998779297)" opacity="1"><g opacity="1" transform="matrix(1.7320507764816284,-1,1,1.7320507764816284,0,0)"><path stroke-linecap="round" stroke-linejoin="round" fill-opacity="0" stroke="rgb(229,229,229)" stroke-opacity="1" stroke-width="2" d=" M9.345999717712402,0 C9.345999717712402,0 -9.345999717712402,0 -9.345999717712402,0"></path></g></g><g style="display: block;" transform="matrix(-1,0,0,1,50.43800354003906,140.7679901123047)" opacity="1"><g opacity="1" transform="matrix(1.7320507764816284,-1,1,1.7320507764816284,0,0)"><path stroke-linecap="round" stroke-linejoin="round" fill-opacity="0" stroke="rgb(229,229,229)" stroke-opacity="1" stroke-width="2" d=" M-7.645999908447266,0 C-7.645999908447266,0 7.645999908447266,0 7.645999908447266,0"></path></g></g><g style="display: block;" transform="matrix(-1,0,0,1,87.39399719238281,94.48699951171875)" opacity="1"><g opacity="1" transform="matrix(1.7320507764816284,-1,1,1.7320507764816284,0,0)"><path stroke-linecap="round" stroke-linejoin="round" fill-opacity="0" stroke="rgb(0,0,0)" stroke-opacity="1" stroke-width="2" d=" M-0.9940000176429749,-22.038999557495117 C10.281999588012695,-22.579999923706055 19.628000259399414,-13.619999885559082 19.628000259399414,-2.4210000038146973 C19.628000259399414,2.5220000743865967 17.77400016784668,7.078999996185303 14.76200008392334,10.399999618530273 C13.062999725341797,12.331000328063965 11.980999946594238,14.802000045776367 11.980999946594238,17.35099983215332 C11.980999946594238,17.35099983215332 11.980999946594238,22.062999725341797 11.980999946594238,22.062999725341797 C11.980999946594238,22.062999725341797 -11.961999893188477,22.062999725341797 -11.961999893188477,22.062999725341797 C-11.961999893188477,22.062999725341797 -11.961999893188477,17.42799949645996 -11.961999893188477,17.42799949645996 C-11.961999893188477,14.878999710083008 -13.043000221252441,12.407999992370605 -14.741999626159668,10.47700023651123 C-17.986000061035156,6.8470001220703125 -19.84000015258789,1.9809999465942383 -19.607999801635742,-3.3480000495910645 C-19.145000457763672,-13.310999870300293 -10.956999778747559,-21.576000213623047 -0.9940000176429749,-22.038999557495117z"></path></g></g><g style="display: block;" transform="matrix(-1,0,0,1,78.63200378417969,107.52699279785156)" opacity="1"><g opacity="1" transform="matrix(1.7320507764816284,-1,1,1.7320507764816284,0,0)"><path stroke-linecap="round" stroke-linejoin="round" fill-opacity="0" stroke="rgb(0,0,0)" stroke-opacity="1" stroke-width="2" d=" M2.316999912261963,13.824999809265137 C2.316999912261963,13.824999809265137 2.316999912261963,-10.659000396728516 2.316999912261963,-10.659000396728516 C2.316999912261963,-12.4350004196167 3.7079999446868896,-13.824999809265137 5.484000205993652,-13.824999809265137 C5.484000205993652,-13.824999809265137 5.560999870300293,-13.824999809265137 5.560999870300293,-13.824999809265137 C7.336999893188477,-13.824999809265137 8.727999687194824,-12.4350004196167 8.727999687194824,-10.659000396728516 C8.727999687194824,-8.883000373840332 7.336999893188477,-7.492000102996826 5.560999870300293,-7.492000102996826 C5.560999870300293,-7.492000102996826 -5.560999870300293,-7.492000102996826 -5.560999870300293,-7.492000102996826 C-7.336999893188477,-7.492000102996826 -8.727999687194824,-8.883000373840332 -8.727999687194824,-10.659000396728516 C-8.727999687194824,-12.4350004196167 -7.336999893188477,-13.824999809265137 -5.560999870300293,-13.824999809265137 C-5.560999870300293,-13.824999809265137 -5.484000205993652,-13.824999809265137 -5.484000205993652,-13.824999809265137 C-3.7079999446868896,-13.824999809265137 -2.316999912261963,-12.4350004196167 -2.316999912261963,-10.659000396728516 C-2.316999912261963,-10.659000396728516 -2.316999912261963,13.824999809265137 -2.316999912261963,13.824999809265137"></path></g></g><g style="display: block;" transform="matrix(0.5,-0.8660253882408142,0.8660253882408142,0.5,28.660717010498047,91.38683319091797)" opacity="1"><g opacity="1" transform="matrix(1.7320507764816284,-1,1,1.7320507764816284,0,0)"><path stroke-linecap="round" stroke-linejoin="round" fill-opacity="0" stroke="rgb(0,0,0)" stroke-opacity="1" stroke-width="2" d=" M0,5.715000152587891 C0,5.715000152587891 0,-5.715000152587891 0,-5.715000152587891"></path></g></g><g style="display: block;" transform="matrix(0.8571673035621643,-0.5150380730628967,0.5150380730628967,0.8571673035621643,37.009925842285156,60.200340270996094)" opacity="1"><g opacity="1" transform="matrix(1.7320507764816284,-1,1,1.7320507764816284,0,0)"><path stroke-linecap="round" stroke-linejoin="round" fill-opacity="0" stroke="rgb(0,0,0)" stroke-opacity="1" stroke-width="2" d=" M0,5.715000152587891 C0,5.715000152587891 0,-5.715000152587891 0,-5.715000152587891"></path></g></g><g style="display: block;" transform="matrix(0.9975640773773193,0.06975647062063217,-0.06975647062063217,0.9975640773773193,59.39744186401367,37.99445343017578)" opacity="1"><g opacity="1" transform="matrix(1.7320507764816284,-1,1,1.7320507764816284,0,0)"><path stroke-linecap="round" stroke-linejoin="round" fill-opacity="0" stroke="rgb(0,0,0)" stroke-opacity="1" stroke-width="2" d=" M0,5.715000152587891 C0,5.715000152587891 0,-5.715000152587891 0,-5.715000152587891"></path></g></g><g style="display: block;" transform="matrix(0.8660253882408142,0.5,-0.5,0.8660253882408142,89.18016815185547,30.932716369628906)" opacity="1"><g opacity="1" transform="matrix(1.7320507764816284,-1,1,1.7320507764816284,0,0)"><path stroke-linecap="round" stroke-linejoin="round" fill-opacity="0" stroke="rgb(0,0,0)" stroke-opacity="1" stroke-width="2" d=" M0,5.715000152587891 C0,5.715000152587891 0,-5.715000152587891 0,-5.715000152587891"></path></g></g><g style="display: block;" transform="matrix(0.48480960726737976,0.874619722366333,-0.874619722366333,0.48480960726737976,119.14017486572266,39.53541564941406)" opacity="1"><g opacity="1" transform="matrix(1.7320507764816284,-1,1,1.7320507764816284,0,0)"><path stroke-linecap="round" stroke-linejoin="round" fill-opacity="0" stroke="rgb(0,0,0)" stroke-opacity="1" stroke-width="2" d=" M0,5.715000152587891 C0,5.715000152587891 0,-5.715000152587891 0,-5.715000152587891"></path></g></g><g style="display: block;" transform="matrix(-0.06975647062063217,0.9975640773773193,-0.9975640773773193,-0.06975647062063217,142.26654052734375,60.53144073486328)" opacity="1"><g opacity="1" transform="matrix(1.7320507764816284,-1,1,1.7320507764816284,0,0)"><path stroke-linecap="round" stroke-linejoin="round" fill-opacity="0" stroke="rgb(0,0,0)" stroke-opacity="1" stroke-width="2" d=" M0,5.715000152587891 C0,5.715000152587891 0,-5.715000152587891 0,-5.715000152587891"></path></g></g><g style="display: block;" transform="matrix(-0.5150380730628967,0.8571673035621643,-0.8571673035621643,-0.5150380730628967,150.237548828125,90.26864624023438)" opacity="1"><g opacity="1" transform="matrix(1.7320507764816284,-1,1,1.7320507764816284,0,0)"><path stroke-linecap="round" stroke-linejoin="round" fill-opacity="0" stroke="rgb(0,0,0)" stroke-opacity="1" stroke-width="2" d=" M0,5.715000152587891 C0,5.715000152587891 0,-5.715000152587891 0,-5.715000152587891"></path></g></g><g style="display: block;" transform="matrix(-0.8660253882408142,0.5,-0.5,-0.8660253882408142,142.18682861328125,121.07928466796875)" opacity="1"><g opacity="1" transform="matrix(1.7320507764816284,-1,1,1.7320507764816284,0,0)"><path stroke-linecap="round" stroke-linejoin="round" fill-opacity="0" stroke="rgb(0,0,0)" stroke-opacity="1" stroke-width="2" d=" M0,5.715000152587891 C0,5.715000152587891 0,-5.715000152587891 0,-5.715000152587891"></path></g></g><g style="display: block;" transform="matrix(-0.9993908405303955,-0.03489949554204941,0.03489949554204941,-0.9993908405303955,119.6530532836914,142.96841430664062)" opacity="1"><g opacity="1" transform="matrix(1.7320507764816284,-1,1,1.7320507764816284,0,0)"><path stroke-linecap="round" stroke-linejoin="round" fill-opacity="0" stroke="rgb(0,0,0)" stroke-opacity="1" stroke-width="2" d=" M0,5.715000152587891 C0,5.715000152587891 0,-5.715000152587891 0,-5.715000152587891"></path></g></g></g></svg>