<svg xmlns="http://www.w3.org/2000/svg" viewBox="0 0 600 470" width="600" height="470" style="width: 100%; height: 100%; transform: translate3d(0px, 0px, 0px);" preserveAspectRatio="xMidYMid meet"><defs><clipPath id="__lottie_element_31"><rect width="600" height="470" x="0" y="0"></rect></clipPath></defs><g clip-path="url(#__lottie_element_31)"><g id="img-features-1" style="display: block;" transform="matrix(1,0,0,1,0,0)" opacity="1"><g id="Group_2" opacity="1" transform="matrix(1,0,0,1,0,0)"><g id="Group_3" opacity="1" transform="matrix(1,0,0,1,0,0)"><g id="Vector" opacity="1" transform="matrix(1,0,0,1,0,0)"><path stroke-linecap="round" stroke-linejoin="round" fill-opacity="0" stroke="rgb(0,0,0)" stroke-opacity="1" stroke-width="2" d=" M247.5,42.099998474121094 C247.5,42.099998474121094 216.89999389648438,76 242,114.4000015258789 C242,114.4000015258789 287.3999938964844,127.4000015258789 307.1000061035156,71.5 C307.20001220703125,71.4000015258789 267.79998779296875,67.69999694824219 247.5,42.099998474121094 C247.5,42.099998474121094 247.5,42.099998474121094 247.5,42.099998474121094z"></path></g><g id="Vector_2" opacity="1" transform="matrix(1,0,0,1,0,0)"><path stroke-linecap="round" stroke-linejoin="round" fill-opacity="0" stroke="rgb(0,0,0)" stroke-opacity="1" stroke-width="2" d=" M271.70001220703125,81.5 C271.70001220703125,81.5 274.6000061035156,78.0999984741211 278.79998779296875,80.5999984741211 C282.3999938964844,82.80000305175781 281,86.80000305175781 281,86.80000305175781"></path></g><g id="Vector_3" opacity="1" transform="matrix(1,0,0,1,0,0)"><path stroke-linecap="round" stroke-linejoin="round" fill-opacity="0" stroke="rgb(0,0,0)" stroke-opacity="1" stroke-width="2" d=" M243.8000030517578,70 C243.8000030517578,70 246.6999969482422,66.5999984741211 250.89999389648438,69.0999984741211 C254.5,71.30000305175781 253.10000610351562,75.30000305175781 253.10000610351562,75.30000305175781"></path></g><g id="Vector_4" opacity="1" transform="matrix(1,0,0,1,0,0)"><path stroke-linecap="round" stroke-linejoin="round" fill-opacity="0" stroke="rgb(0,0,0)" stroke-opacity="1" stroke-width="2" d=" M245,88.5 C245,88.5 241.6999969482422,95.69999694824219 250.1999969482422,101.4000015258789 C257.70001220703125,106.4000015258789 265.3999938964844,101.19999694824219 265.3999938964844,101.19999694824219"></path></g></g><g id="Group_4" opacity="1" transform="matrix(1,0,0,1,0,0)"><g id="Vector_5" opacity="1" transform="matrix(1,0,0,1,0,0)"><path fill="rgb(0,0,0)" fill-opacity="1" d=" M247.5,42.099998474121094 C248.6999969482422,43.599998474121094 250,45 251.3000030517578,46.400001525878906 C254.3000030517578,37.70000076293945 255.6999969482422,26.799999237060547 254.3000030517578,13.199999809265137 C254.3000030517578,13.199999809265137 217.10000610351562,26.600000381469727 187.8000030517578,12.100000381469727 C187.8000030517578,12.100000381469727 174.60000610351562,55.79999923706055 213.6999969482422,79.80000305175781 C213.6999969482422,79.80000305175781 223.39999389648438,78.19999694824219 233.39999389648438,70.9000015258789 C237.1999969482422,53.599998474121094 247.5,42.099998474121094 247.5,42.099998474121094 C247.5,42.099998474121094 247.5,42.099998474121094 247.5,42.099998474121094z"></path></g><g id="Vector_6" opacity="1" transform="matrix(1,0,0,1,0,0)"><path stroke-linecap="round" stroke-linejoin="round" fill-opacity="0" stroke="rgb(255,255,255)" stroke-opacity="1" stroke-width="2" d=" M209.6999969482422,36.900001525878906 C209.6999969482422,36.900001525878906 208.10000610351562,41.099998474121094 203.3000030517578,40.099998474121094 C199.10000610351562,39.20000076293945 199.1999969482422,35 199.1999969482422,35"></path></g><g id="Vector_7" opacity="1" transform="matrix(1,0,0,1,0,0)"><path stroke-linecap="round" stroke-linejoin="round" fill-opacity="0" stroke="rgb(255,255,255)" stroke-opacity="1" stroke-width="2" d=" M236.6999969482422,38.599998474121094 C236.6999969482422,38.599998474121094 235.10000610351562,42.79999923706055 230.3000030517578,41.79999923706055 C226.10000610351562,40.900001525878906 226.1999969482422,36.70000076293945 226.1999969482422,36.70000076293945"></path></g><g id="Vector_8" opacity="1" transform="matrix(1,0,0,1,0,0)"><path stroke-linecap="round" stroke-linejoin="round" fill-opacity="0" stroke="rgb(255,255,255)" stroke-opacity="1" stroke-width="2" d=" M227.1999969482422,60.20000076293945 C227.1999969482422,60.20000076293945 225.6999969482422,54.79999923706055 217.3000030517578,54.599998474121094 C209.8000030517578,54.400001525878906 207.39999389648438,59 207.39999389648438,59"></path></g></g></g><g id="Group_5" opacity="1" transform="matrix(1,0,0,1,0,0)"><g id="Vector_9" opacity="1" transform="matrix(1,0,0,1,0,0)"><path stroke-linecap="round" stroke-linejoin="round" fill-opacity="0" stroke="rgb(0,0,0)" stroke-opacity="1" stroke-width="2" d=" M539.5020141601562,217.81900024414062 C541.4630126953125,214.42300415039062 504.3190002441406,189.3070068359375 456.53900146484375,161.72000122070312 C408.7590026855469,134.13400268554688 368.4360046386719,114.52300262451172 366.4750061035156,117.91899871826172 C364.5150146484375,121.31500244140625 401.65899658203125,146.43099975585938 449.4389953613281,174.01699829101562 C497.218994140625,201.60400390625 537.541015625,221.21499633789062 539.5020141601562,217.81900024414062 C539.5020141601562,217.81900024414062 539.5020141601562,217.81900024414062 539.5020141601562,217.81900024414062z"></path></g><g id="Vector_10" opacity="1" transform="matrix(1,0,0,1,0,0)"><path fill="rgb(0,0,0)" fill-opacity="1" d=" M410.56298828125,329.7049865722656 C411.4460144042969,328.17401123046875 395.0249938964844,317.03900146484375 373.885986328125,304.8340148925781 C352.7460021972656,292.62799072265625 334.8919982910156,283.9739990234375 334.00799560546875,285.5050048828125 C333.125,287.0350036621094 349.5459899902344,298.1709899902344 370.6860046386719,310.3760070800781 C391.82501220703125,322.5820007324219 409.6789855957031,331.2349853515625 410.56298828125,329.7049865722656 C410.56298828125,329.7049865722656 410.56298828125,329.7049865722656 410.56298828125,329.7049865722656z"></path></g><g id="Vector_11" opacity="1" transform="matrix(1,0,0,1,0,0)"><path stroke-linecap="round" stroke-linejoin="round" fill-opacity="0" stroke="rgb(0,0,0)" stroke-opacity="1" stroke-width="2" d=" M431,303.6000061035156 C423,311.20001220703125 416.1000061035156,320 410.6000061035156,329.70001220703125 C410.6000061035156,329.70001220703125 387.3999938964844,369.8999938964844 387.3999938964844,369.8999938964844 C383.29998779296875,377 374.5,379.79998779296875 367.1000061035156,376.3999938964844 C359.8999938964844,373.1000061035156 350.5,368.5 340.5,362.70001220703125 C330.5,356.8999938964844 321.79998779296875,351.1000061035156 315.3999938964844,346.5 C308.70001220703125,341.79998779296875 306.79998779296875,332.70001220703125 310.8999938964844,325.70001220703125 C310.8999938964844,325.70001220703125 334,285.5 334,285.5 C347.8999938964844,261.3999938964844 352.79998779296875,233.1999969482422 347.79998779296875,205.8000030517578 C342.79998779296875,178.39999389648438 347.70001220703125,150.1999969482422 361.6000061035156,126.0999984741211 C361.6000061035156,126.0999984741211 366.29998779296875,117.9000015258789 366.29998779296875,117.9000015258789"></path></g><g id="Vector_12" opacity="1" transform="matrix(1,0,0,1,0,0)"><path stroke-linecap="round" stroke-linejoin="round" fill-opacity="0" stroke="rgb(0,0,0)" stroke-opacity="1" stroke-width="2" d=" M539.5,217.89999389648438 C539.5,217.89999389648438 534.7999877929688,226.10000610351562 534.7999877929688,226.10000610351562 C522.7000122070312,247.10000610351562 504.29998779296875,263.79998779296875 482.3999938964844,273.8999938964844"></path></g><g id="Vector_13" opacity="1" transform="matrix(1,0,0,1,0,0)"><path stroke-linecap="round" stroke-linejoin="round" fill-opacity="0" stroke="rgb(0,0,0)" stroke-opacity="1" stroke-width="2" d=" M400.79998779296875,346.6000061035156 C399.8999938964844,348.1000061035156 382.1000061035156,339.3999938964844 361,327.20001220703125 C339.8999938964844,315 323.3999938964844,303.8999938964844 324.29998779296875,302.3999938964844"></path></g><g id="Vector_14" opacity="1" transform="matrix(1,0,0,1,0,0)"><path stroke-linecap="round" stroke-linejoin="round" fill-opacity="0" stroke="rgb(0,0,0)" stroke-opacity="1" stroke-width="2" d=" M390.6000061035156,364.20001220703125 C389.70001220703125,365.70001220703125 371.8999938964844,357 350.79998779296875,344.79998779296875 C329.70001220703125,332.6000061035156 313.20001220703125,321.5 314.1000061035156,320"></path></g><g id="Vector_15" opacity="1" transform="matrix(1,0,0,1,0,0)"><path stroke-linecap="round" stroke-linejoin="round" fill-opacity="0" stroke="rgb(0,0,0)" stroke-opacity="1" stroke-width="2" d=" M319.29998779296875,350.6000061035156 C319.29998779296875,350.6000061035156 317.70001220703125,355 317.70001220703125,355 C316.1000061035156,359.29998779296875 317.70001220703125,364.1000061035156 321.3999938964844,366.70001220703125 C324.6000061035156,369 328.79998779296875,371.79998779296875 333.6000061035156,374.5 C338.3999938964844,377.20001220703125 343,379.5 346.5,381.20001220703125 C350.6000061035156,383.1000061035156 355.5,382 358.5,378.5 C358.5,378.5 361.5,374.8999938964844 361.5,374.8999938964844"></path></g><g id="Vector_16" opacity="1" transform="matrix(1,0,0,1,0,0)"><path stroke-linecap="round" stroke-linejoin="round" fill-opacity="0" stroke-dasharray=" 213 213" stroke-dashoffset="0" stroke="rgb(0,0,0)" stroke-opacity="1" stroke-width="2" d=" M362.3999938964844,302.8999938964844 C362.3999938964844,302.8999938964844 420.3999938964844,202.39999389648438 420.3999938964844,202.39999389648438 C424.6000061035156,195.1999969482422 422.1000061035156,186 414.8999938964844,181.89999389648438 C414.8999938964844,181.89999389648438 414.5,181.6999969482422 414.5,181.6999969482422 C407.29998779296875,177.5 398.1000061035156,180 394,187.1999969482422 C389.79998779296875,194.39999389648438 392.29998779296875,203.60000610351562 399.5,207.6999969482422 C399.5,207.6999969482422 422.0400085449219,220.6929931640625 422.0400085449219,220.6929931640625"></path></g><g id="Vector_16-3" opacity="1" transform="matrix(-0.5,-0.8660253882408142,-0.8660253882408142,0.5,823.5816040039062,475.5286865234375)"><path stroke-linecap="round" stroke-linejoin="round" fill-opacity="0" stroke-dasharray=" 213 213" stroke-dashoffset="0" stroke="rgb(0,0,0)" stroke-opacity="1" stroke-width="2" d=" M362.3999938964844,302.8999938964844 C362.3999938964844,302.8999938964844 420.3999938964844,202.39999389648438 420.3999938964844,202.39999389648438 C424.6000061035156,195.1999969482422 422.1000061035156,186 414.8999938964844,181.89999389648438 C414.8999938964844,181.89999389648438 414.5,181.6999969482422 414.5,181.6999969482422 C407.29998779296875,177.5 398.1000061035156,180 394,187.1999969482422 C389.79998779296875,194.39999389648438 392.29998779296875,203.60000610351562 399.5,207.6999969482422 C399.5,207.6999969482422 422.0400085449219,220.6929931640625 422.0400085449219,220.6929931640625"></path></g><g id="light" opacity="1" transform="matrix(1,0,0,1,0,0)"><g id="Vector_17" opacity="1" transform="matrix(1,0,0,1,0,0)"><path stroke-linecap="round" stroke-linejoin="round" fill-opacity="0" stroke-dasharray=" 45.636719012674824 48" stroke-dashoffset="0" stroke="rgb(0,0,0)" stroke-opacity="1" stroke-width="2" d=" M527.5999755859375,148 C527.5999755859375,148 569.7999877929688,123.69999694824219 569.7999877929688,123.69999694824219"></path></g><g id="Vector_18" opacity="1" transform="matrix(1,0,0,1,0,0)"><path stroke-linecap="round" stroke-linejoin="round" fill-opacity="0" stroke-dasharray=" 45.636719012674824 48" stroke-dashoffset="0" stroke="rgb(0,0,0)" stroke-opacity="1" stroke-width="2" d=" M323.5,202.6999969482422 C323.5,202.6999969482422 274.70001220703125,202.6999969482422 274.70001220703125,202.6999969482422"></path></g><g id="Vector_19" opacity="1" transform="matrix(1,0,0,1,0,0)"><path stroke-linecap="round" stroke-linejoin="round" fill-opacity="0" stroke-dasharray=" 45.636719012674824 48" stroke-dashoffset="0" stroke="rgb(0,0,0)" stroke-opacity="1" stroke-width="2" d=" M542.2000122070312,202.6999969482422 C542.2000122070312,202.6999969482422 591,202.6999969482422 591,202.6999969482422"></path></g><g id="Vector_20" opacity="1" transform="matrix(1,0,0,1,0,0)"><path stroke-linecap="round" stroke-linejoin="round" fill-opacity="0" stroke-dasharray=" 45.636719012674824 48" stroke-dashoffset="0" stroke="rgb(0,0,0)" stroke-opacity="1" stroke-width="2" d=" M338.1000061035156,148 C338.1000061035156,148 295.8999938964844,123.69999694824219 295.8999938964844,123.69999694824219"></path></g><g id="Vector_21" opacity="1" transform="matrix(1,0,0,1,0,0)"><path stroke-linecap="round" stroke-linejoin="round" fill-opacity="0" stroke-dasharray=" 45.636719012674824 48" stroke-dashoffset="0" stroke="rgb(0,0,0)" stroke-opacity="1" stroke-width="2" d=" M527.5999755859375,257.3999938964844 C527.5999755859375,257.3999938964844 569.7999877929688,281.79998779296875 569.7999877929688,281.79998779296875"></path></g><g id="Vector_22" opacity="1" transform="matrix(1,0,0,1,0,0)"><path stroke-linecap="round" stroke-linejoin="round" fill-opacity="0" stroke-dasharray=" 45.636719012674824 48" stroke-dashoffset="0" stroke="rgb(0,0,0)" stroke-opacity="1" stroke-width="2" d=" M378.20001220703125,108 C378.20001220703125,108 353.79998779296875,65.80000305175781 353.79998779296875,65.80000305175781"></path></g><g id="Vector_23" opacity="1" transform="matrix(1,0,0,1,0,0)"><path stroke-linecap="round" stroke-linejoin="round" fill-opacity="0" stroke-dasharray=" 45.636719012674824 48" stroke-dashoffset="0" stroke="rgb(0,0,0)" stroke-opacity="1" stroke-width="2" d=" M487.5,297.5 C487.5,297.5 511.8999938964844,339.70001220703125 511.8999938964844,339.70001220703125"></path></g><g id="Vector_24" opacity="1" transform="matrix(1,0,0,1,0,0)"><path stroke-linecap="round" stroke-linejoin="round" fill-opacity="0" stroke-dasharray=" 45.636719012674824 48" stroke-dashoffset="0" stroke="rgb(0,0,0)" stroke-opacity="1" stroke-width="2" d=" M432.79998779296875,93.4000015258789 C432.79998779296875,93.4000015258789 432.79998779296875,44.599998474121094 432.79998779296875,44.599998474121094"></path></g><g id="Vector_25" opacity="1" transform="matrix(1,0,0,1,0,0)"><path stroke-linecap="round" stroke-linejoin="round" fill-opacity="0" stroke-dasharray=" 45.636719012674824 48" stroke-dashoffset="0" stroke="rgb(0,0,0)" stroke-opacity="1" stroke-width="2" d=" M487.5,108 C487.5,108 511.8999938964844,65.80000305175781 511.8999938964844,65.80000305175781"></path></g></g></g><g id="character" opacity="1" transform="matrix(1,0,0,1,0,0)"><g id="Vector_26" opacity="1" transform="matrix(1,0,0,1,0,0)"><path stroke-linecap="round" stroke-linejoin="round" fill-opacity="0" stroke="rgb(0,0,0)" stroke-opacity="1" stroke-width="2" d=" M223.89999389648438,187.3000030517578 C223.89999389648438,187.3000030517578 216.8000030517578,194.8000030517578 210.6999969482422,203.1999969482422 C204.60000610351562,211.6999969482422 192.5,216.6999969482422 191.3000030517578,218.39999389648438 C190.10000610351562,220.10000610351562 195.1999969482422,225.5 195.1999969482422,225.5 C195.1999969482422,225.5 189.1999969482422,240 194.1999969482422,254.8000030517578 C199.1999969482422,269.6000061035156 214.5,277.6000061035156 231.39999389648438,276.70001220703125"></path></g><g id="Vector_27" opacity="1" transform="matrix(1,0,0,1,0,0)"><path stroke-linecap="round" stroke-linejoin="round" fill-opacity="0" stroke="rgb(0,0,0)" stroke-opacity="1" stroke-width="2" d=" M208,271.5 C201.5,279.6000061035156 189.39999389648438,275.6000061035156 189.39999389648438,275.6000061035156 C189.39999389648438,275.6000061035156 190.10000610351562,299.79998779296875 213.10000610351562,310.6000061035156 C236.39999389648438,321.6000061035156 257.1000061035156,316.20001220703125 269.6000061035156,307.5 C269.6000061035156,307.5 255.10000610351562,296.1000061035156 266.1000061035156,266.70001220703125 C266.1000061035156,266.70001220703125 279.20001220703125,269.5 281.1000061035156,259 C283,248.39999389648438 272.1000061035156,241 260.20001220703125,251"></path></g><g id="Vector_28" opacity="1" transform="matrix(1,0,0,1,0,0)"><path fill="rgb(0,0,0)" fill-opacity="1" d=" M286.79998779296875,176.6999969482422 C286.79998779296875,176.6999969482422 284.20001220703125,159.8000030517578 285.5,156.6999969482422 C286.79998779296875,153.60000610351562 293.70001220703125,154.60000610351562 293.5,164.6999969482422 C293.29998779296875,174.8000030517578 292.3999938964844,180.89999389648438 292.3999938964844,180.89999389648438 C292.3999938964844,180.89999389648438 286.79998779296875,176.6999969482422 286.79998779296875,176.6999969482422 C286.79998779296875,176.6999969482422 286.79998779296875,176.6999969482422 286.79998779296875,176.6999969482422z"></path></g><g id="Vector_29" opacity="1" transform="matrix(1,0,0,1,0,0)"><path fill="rgb(0,0,0)" fill-opacity="1" d=" M221.5,190 C221.5,190 239.8000030517578,191 263.6000061035156,215 C287.3999938964844,239 295.20001220703125,256.8999938964844 295.20001220703125,256.8999938964844 C295.20001220703125,256.8999938964844 317.79998779296875,246 311.1000061035156,223.5 C311.1000061035156,223.5 315.6000061035156,216.10000610351562 313.3999938964844,207.60000610351562 C310.70001220703125,197 303.1000061035156,194.5 303.1000061035156,194.5 C303.1000061035156,194.5 291.70001220703125,160.8000030517578 255.5,164 C255.5,164 242.1999969482422,154.8000030517578 227.5,165 C213.1999969482422,174.89999389648438 221.5,190 221.5,190 C221.5,190 221.5,190 221.5,190z"></path></g><g id="Vector_30" opacity="1" transform="matrix(1,0,0,1,0,0)"><path stroke-linecap="round" stroke-linejoin="round" fill-opacity="0" stroke="rgb(255,255,255)" stroke-opacity="1" stroke-width="2" d=" M236.10000610351562,178.60000610351562 C236.10000610351562,178.60000610351562 237.39999389648438,166.39999389648438 256.8999938964844,163"></path></g><g id="Vector_31" opacity="1" transform="matrix(1,0,0,1,0,0)"><path stroke-linecap="round" stroke-linejoin="round" fill-opacity="0" stroke="rgb(255,255,255)" stroke-opacity="1" stroke-width="2" d=" M291.6000061035156,219.60000610351562 C291.6000061035156,219.60000610351562 305.6000061035156,205.39999389648438 303,190.1999969482422"></path></g><g id="Vector_32" opacity="1" transform="matrix(1,0,0,1,0,0)"><path stroke-linecap="round" stroke-linejoin="round" fill-opacity="0" stroke="rgb(255,255,255)" stroke-opacity="1" stroke-width="2" d=" M297.8999938964844,236.1999969482422 C297.8999938964844,236.1999969482422 311.20001220703125,228 313.1000061035156,218.89999389648438"></path></g><g id="Vector_33" opacity="1" transform="matrix(1,0,0,1,0,0)"><path stroke-linecap="round" stroke-linejoin="round" fill-opacity="0" stroke="rgb(255,255,255)" stroke-opacity="1" stroke-width="2" d=" M282.3999938964844,169.5 C282.3999938964844,169.5 288.5,172.10000610351562 293.3999938964844,178.5"></path></g><g id="Vector_34" opacity="1" transform="matrix(1,0,0,1,0,0)"><path fill="rgb(0,0,0)" fill-opacity="1" d=" M210.6999969482422,203.3000030517578 C210.6999969482422,203.3000030517578 213.1999969482422,200.5 209.60000610351562,196.1999969482422 C206,191.89999389648438 209.60000610351562,187.5 213,189.10000610351562 C213,189.10000610351562 215.10000610351562,177.60000610351562 225.6999969482422,185.5 C225.6999969482422,185.5 210.6999969482422,203.3000030517578 210.6999969482422,203.3000030517578 C210.6999969482422,203.3000030517578 210.6999969482422,203.3000030517578 210.6999969482422,203.3000030517578z"></path></g><g id="Vector_35" opacity="1" transform="matrix(1,0,0,1,0,0)"><path fill="rgb(0,0,0)" fill-opacity="1" d=" M254.89999389648438,248.39999389648438 C254.89999389648438,248.39999389648438 259.20001220703125,252.8000030517578 259.20001220703125,252.8000030517578 C259.20001220703125,252.8000030517578 268.8999938964844,242.3000030517578 277.70001220703125,248.5 C286.5,254.60000610351562 281.20001220703125,269.8999938964844 266.1000061035156,266.79998779296875 C266.1000061035156,266.79998779296875 263.8999938964844,273.8999938964844 263.8999938964844,273.8999938964844 C263.8999938964844,273.8999938964844 291.20001220703125,275.29998779296875 295.29998779296875,257 C295.29998779296875,257 288.1000061035156,238.89999389648438 262.5,213.8000030517578 C262.5,213.8000030517578 256.3999938964844,217.6999969482422 258.6000061035156,229.3000030517578 C260.6000061035156,240.89999389648438 254.89999389648438,248.39999389648438 254.89999389648438,248.39999389648438 C254.89999389648438,248.39999389648438 254.89999389648438,248.39999389648438 254.89999389648438,248.39999389648438z"></path></g><g id="Vector_36" opacity="1" transform="matrix(1,0,0,1,0,0)"><path stroke-linecap="round" stroke-linejoin="round" fill-opacity="0" stroke="rgb(255,255,255)" stroke-opacity="1" stroke-width="2" d=" M215.89999389648438,190.5 C215.89999389648438,190.5 228.3000030517578,185.6999969482422 256.70001220703125,208.39999389648438 C285.1000061035156,231.10000610351562 295.29998779296875,256.8999938964844 295.29998779296875,256.8999938964844"></path></g><g id="Vector_37" opacity="1" transform="matrix(1,0,0,1,0,0)"><path stroke-linecap="round" stroke-linejoin="round" fill-opacity="0" stroke="rgb(0,0,0)" stroke-opacity="1" stroke-width="2" d=" M253.6999969482422,249.6999969482422 C253.6999969482422,249.6999969482422 257,253.5 257,253.5"></path></g><g id="Vector_38" opacity="1" transform="matrix(1,0,0,1,0,0)"><path stroke-linecap="round" stroke-linejoin="round" fill-opacity="0" stroke="rgb(0,0,0)" stroke-opacity="1" stroke-width="2" d=" M251.3000030517578,252.1999969482422 C251.3000030517578,252.1999969482422 254.60000610351562,256 254.60000610351562,256"></path></g><g id="Group_14" opacity="1" transform="matrix(1,0,0,1,0,0)"><g id="Vector_39" opacity="1" transform="matrix(1,0,0,1,0,0)"><path stroke-linecap="round" stroke-linejoin="round" fill-opacity="0" stroke="rgb(0,0,0)" stroke-opacity="1" stroke-width="2" d=" M263.79998779296875,256.1000061035156 C263.79998779296875,256.1000061035156 277.29998779296875,256.29998779296875 277.29998779296875,256.29998779296875"></path></g><g id="Vector_40" opacity="1" transform="matrix(1,0,0,1,0,0)"><path stroke-linecap="round" stroke-linejoin="round" fill-opacity="0" stroke="rgb(0,0,0)" stroke-opacity="1" stroke-width="2" d=" M267.6000061035156,260.1000061035156 C267.6000061035156,260.1000061035156 269.1000061035156,256.20001220703125 269.1000061035156,256.20001220703125"></path></g></g><g id="Vector_41" opacity="1" transform="matrix(1,0,0,1,0,0)"><path stroke-linecap="round" stroke-linejoin="round" fill-opacity="0" stroke="rgb(0,0,0)" stroke-opacity="1" stroke-width="2" d=" M216.5,212.39999389648438 C216.5,212.39999389648438 220.39999389648438,209.5 223.8000030517578,211.89999389648438 C227.1999969482422,214.3000030517578 226.3000030517578,218 226.3000030517578,218"></path></g><g id="Vector_42" opacity="1" transform="matrix(1,0,0,1,0,0)"><path stroke-linecap="round" stroke-linejoin="round" fill-opacity="0" stroke="rgb(0,0,0)" stroke-opacity="1" stroke-width="2" d=" M227.10000610351562,197.89999389648438 C227.10000610351562,197.89999389648438 235.8000030517578,197.10000610351562 237.8000030517578,206.3000030517578"></path></g><g id="Vector_43" opacity="1" transform="matrix(1,0,0,1,0,0)"><path stroke-linecap="round" stroke-linejoin="round" fill-opacity="0" stroke="rgb(0,0,0)" stroke-opacity="1" stroke-width="2" d=" M207.39999389648438,241.10000610351562 C207.39999389648438,241.10000610351562 234.1999969482422,239.3000030517578 234.1999969482422,239.3000030517578 C234.1999969482422,239.3000030517578 234,248.6999969482422 221.10000610351562,250.10000610351562 C208.1999969482422,251.5 207.39999389648438,241.10000610351562 207.39999389648438,241.10000610351562 C207.39999389648438,241.10000610351562 207.39999389648438,241.10000610351562 207.39999389648438,241.10000610351562z"></path></g><g id="Vector_44" opacity="1" transform="matrix(1,0,0,1,0,0)"><path stroke-linecap="round" stroke-linejoin="round" fill-opacity="0" stroke="rgb(0,0,0)" stroke-opacity="1" stroke-width="2" d=" M189.39999389648438,275.6000061035156 C189.39999389648438,275.6000061035156 98.30000305175781,232.10000610351562 98.30000305175781,232.10000610351562 C98.30000305175781,232.10000610351562 65.4000015258789,253.5 62.400001525878906,298.20001220703125 C62.400001525878906,298.20001220703125 128,332.1000061035156 128,332.1000061035156 C128,332.1000061035156 148.5,435.79998779296875 148.5,435.79998779296875 C148.5,435.79998779296875 378.20001220703125,435.79998779296875 378.20001220703125,435.79998779296875"></path></g><g id="Vector_45" opacity="1" transform="matrix(1,0,0,1,0,0)"><path stroke-linecap="round" stroke-linejoin="round" fill-opacity="0" stroke="rgb(0,0,0)" stroke-opacity="1" stroke-width="2" d=" M73.80000305175781,304.20001220703125 C73.80000305175781,304.20001220703125 77,262.6000061035156 112.4000015258789,239.39999389648438"></path></g><g id="Vector_46" opacity="1" transform="matrix(1,0,0,1,0,0)"><path stroke-linecap="round" stroke-linejoin="round" fill-opacity="0" stroke="rgb(0,0,0)" stroke-opacity="1" stroke-width="2" d=" M177.39999389648438,269.8999938964844 C177.39999389648438,269.8999938964844 167.8000030517578,308.20001220703125 214,326.8999938964844 C257,344.29998779296875 280.3999938964844,312.6000061035156 280.3999938964844,312.6000061035156"></path></g><g id="Vector_47" opacity="1" transform="matrix(1,0,0,1,0,0)"><path stroke-linecap="round" stroke-linejoin="round" fill-opacity="0" stroke="rgb(0,0,0)" stroke-opacity="1" stroke-width="2" d=" M94.0999984741211,235.3000030517578 C94.0999984741211,235.3000030517578 89.5,233 89.5,233 C89.5,233 121.30000305175781,174.8000030517578 125.30000305175781,169.89999389648438 C129.3000030517578,165 156.3000030517578,157.1999969482422 158.5,152.60000610351562 C160.6999969482422,148 158.89999389648438,133.60000610351562 164.39999389648438,114.30000305175781 C166.39999389648438,107.30000305175781 156.5,107.80000305175781 150.6999969482422,118.4000015258789 C144.89999389648438,129 145,135 145,135 C145,135 129.89999389648438,130.60000610351562 122,144"></path></g><g id="Vector_48" opacity="1" transform="matrix(1,0,0,1,0,0)"><path stroke-linecap="round" stroke-linejoin="round" fill-opacity="0" stroke="rgb(0,0,0)" stroke-opacity="1" stroke-width="2" d=" M110.19999694824219,125.30000305175781 C110.19999694824219,125.30000305175781 102.69999694824219,149.10000610351562 101.5999984741211,151.8000030517578 C100.5,154.39999389648438 47.599998474121094,204.89999389648438 36.599998474121094,217.60000610351562 C21.899999618530273,234.5 19.899999618530273,262.29998779296875 41.20000076293945,275.5 C62.5,288.70001220703125 63.5,289.29998779296875 63.5,289.29998779296875"></path></g><g id="Vector_49" opacity="1" transform="matrix(1,0,0,1,0,0)"><path stroke-linecap="round" stroke-linejoin="round" fill-opacity="0" stroke="rgb(0,0,0)" stroke-opacity="1" stroke-width="2" d=" M120.5,114.5999984741211 C120.5,114.5999984741211 114.9000015258789,111.80000305175781 112.0999984741211,116.5999984741211 C109.30000305175781,121.4000015258789 110,135.39999389648438 110.80000305175781,138.1999969482422 C111.5999984741211,141 118.5999984741211,139.39999389648438 119.69999694824219,132.60000610351562"></path></g><g id="Vector_50" opacity="1" transform="matrix(1,0,0,1,0,0)"><path stroke-linecap="round" stroke-linejoin="round" fill-opacity="0" stroke="rgb(0,0,0)" stroke-opacity="1" stroke-width="2" d=" M131.23899841308594,108.34100341796875 C131.23899841308594,108.34100341796875 122.30000305175781,104.30000305175781 120.80000305175781,112.19999694824219 C119.30000305175781,120.0999984741211 118.9000015258789,134.39999389648438 120.4000015258789,138.39999389648438 C121.9000015258789,142.39999389648438 129.5,136.3000030517578 130.10000610351562,130.39999389648438"></path></g><g id="Vector_58" opacity="1" transform="matrix(1,0,0,1,0,0)"><path stroke-linecap="round" stroke-linejoin="round" fill-opacity="0" stroke="rgb(0,0,0)" stroke-opacity="1" stroke-width="2" d=" M138.7519989013672,105.70999908447266 C132.1699981689453,103.51599884033203 131.39999389648438,108.80000305175781 131.39999389648438,108.80000305175781 C131.39999389648438,108.80000305175781 129,128.3000030517578 130.39999389648438,131.60000610351562 C131.8000030517578,134.89999389648438 139.39999389648438,134.10000610351562 139.89999389648438,129.6999969482422 C140.39999389648438,125.4000015258789 144.09100341796875,107.48999786376953 138.7519989013672,105.70999908447266 C138.7519989013672,105.70999908447266 138.7519989013672,105.70999908447266 138.7519989013672,105.70999908447266z"></path></g><g id="Vector_59" opacity="1" transform="matrix(1,0,0,1,0,0)"><path stroke-linecap="round" stroke-linejoin="round" fill-opacity="0" stroke="rgb(0,0,0)" stroke-opacity="1" stroke-width="2" d=" M144.86700439453125,117.61199951171875 C144.86700439453125,117.61199951171875 135.5,89.80000305175781 135.5,89.80000305175781 C135.5,89.80000305175781 133,82.69999694824219 138.8000030517578,81.30000305175781 C144.60000610351562,79.80000305175781 149.10000610351562,88.5 151.5,95.0999984741211 C153.89999389648438,101.69999694824219 156.8769989013672,110.55599975585938 156.8769989013672,110.55599975585938"></path></g><g id="Vector_60" opacity="1" transform="matrix(1,0,0,1,0,0)"><path stroke-linecap="round" stroke-linejoin="round" fill-opacity="0" stroke="rgb(0,0,0)" stroke-opacity="1" stroke-width="2" d=" M74.9000015258789,225 C74.9000015258789,225 92.5,234.5 92.5,234.5"></path></g><g id="Vector_61" opacity="1" transform="matrix(0.9155970811843872,0,0,0.9155970811843872,45.7801513671875,27.2958984375)"><path fill="rgb(0,0,0)" fill-opacity="1" d=" M542.4000244140625,345.6000061035156 C542.4000244140625,333.3999938964844 532.5,323.3999938964844 520.2000122070312,323.3999938964844 C532.4000244140625,323.3999938964844 542.4000244140625,313.5 542.4000244140625,301.20001220703125 C542.4000244140625,313.3999938964844 552.2999877929688,323.3999938964844 564.5999755859375,323.3999938964844 C552.2999877929688,323.3999938964844 542.4000244140625,333.3999938964844 542.4000244140625,345.6000061035156 C542.4000244140625,345.6000061035156 542.4000244140625,345.6000061035156 542.4000244140625,345.6000061035156z"></path><path stroke-linecap="round" stroke-linejoin="round" fill-opacity="0" stroke="rgb(0,0,0)" stroke-opacity="1" stroke-width="2" d=" M542.4000244140625,345.6000061035156 C542.4000244140625,333.3999938964844 532.5,323.3999938964844 520.2000122070312,323.3999938964844 C532.4000244140625,323.3999938964844 542.4000244140625,313.5 542.4000244140625,301.20001220703125 C542.4000244140625,313.3999938964844 552.2999877929688,323.3999938964844 564.5999755859375,323.3999938964844 C552.2999877929688,323.3999938964844 542.4000244140625,333.3999938964844 542.4000244140625,345.6000061035156 C542.4000244140625,345.6000061035156 542.4000244140625,345.6000061035156 542.4000244140625,345.6000061035156z"></path></g><g id="Vector_62" opacity="1" transform="matrix(1,0,0,1,0,0)"><path stroke-linecap="round" stroke-linejoin="round" fill-opacity="0" stroke="rgb(0,0,0)" stroke-opacity="1" stroke-width="2" d=" M486.20001220703125,375.3999938964844 C486.20001220703125,369.29998779296875 481.20001220703125,364.29998779296875 475.1000061035156,364.29998779296875 C481.20001220703125,364.29998779296875 486.20001220703125,359.29998779296875 486.20001220703125,353.20001220703125 C486.20001220703125,359.29998779296875 491.20001220703125,364.29998779296875 497.29998779296875,364.29998779296875 C491.1000061035156,364.29998779296875 486.20001220703125,369.29998779296875 486.20001220703125,375.3999938964844 C486.20001220703125,375.3999938964844 486.20001220703125,375.3999938964844 486.20001220703125,375.3999938964844z"></path></g><g id="Vector_63" opacity="1" transform="matrix(1,0,0,1,0,0)"><path stroke-linecap="round" stroke-linejoin="round" fill-opacity="0" stroke="rgb(0,0,0)" stroke-opacity="1" stroke-width="2" d=" M115.30000305175781,435.79998779296875 C115.30000305175781,435.79998779296875 241.10000610351562,435.79998779296875 241.10000610351562,435.79998779296875"></path></g><g id="Vector_64" opacity="1" transform="matrix(1,0,0,1,0,0)"><path stroke-linecap="round" stroke-linejoin="round" fill-opacity="0" stroke="rgb(0,0,0)" stroke-opacity="1" stroke-width="2" d=" M216.5,312.1000061035156 C216.5,312.1000061035156 210.89999389648438,325.6000061035156 210.89999389648438,325.6000061035156"></path></g><g id="Vector_65" opacity="1" transform="matrix(1,0,0,1,0,0)"><path stroke-linecap="round" stroke-linejoin="round" fill-opacity="0" stroke="rgb(0,0,0)" stroke-opacity="1" stroke-width="2" d=" M201.89999389648438,302.8999938964844 C201.89999389648438,302.8999938964844 192.5,313.79998779296875 192.5,313.79998779296875"></path></g><g id="Vector_66" opacity="1" transform="matrix(1,0,0,1,0,0)"><path stroke-linecap="round" stroke-linejoin="round" fill-opacity="0" stroke="rgb(0,0,0)" stroke-opacity="1" stroke-width="2" d=" M193.10000610351562,290.1000061035156 C193.10000610351562,290.1000061035156 179.6999969482422,295.20001220703125 179.6999969482422,295.20001220703125"></path></g><g id="Vector_67" opacity="1" transform="matrix(1,0,0,1,0,0)"><path stroke-linecap="round" stroke-linejoin="round" fill-opacity="0" stroke="rgb(0,0,0)" stroke-opacity="1" stroke-width="2" d=" M233.1999969482422,316.3999938964844 C233.1999969482422,316.3999938964844 231.1999969482422,331.5 231.1999969482422,331.5"></path></g><g id="Vector_68" opacity="1" transform="matrix(1,0,0,1,0,0)"><path stroke-linecap="round" stroke-linejoin="round" fill-opacity="0" stroke="rgb(0,0,0)" stroke-opacity="1" stroke-width="2" d=" M248.8000030517578,315.8999938964844 C248.8000030517578,315.8999938964844 250.6999969482422,330.79998779296875 250.6999969482422,330.79998779296875"></path></g><g id="Vector_69" opacity="1" transform="matrix(1,0,0,1,0,0)"><path stroke-linecap="round" stroke-linejoin="round" fill-opacity="0" stroke="rgb(0,0,0)" stroke-opacity="1" stroke-width="2" d=" M261.3999938964844,312.1000061035156 C261.3999938964844,312.1000061035156 268.29998779296875,323.29998779296875 268.29998779296875,323.29998779296875"></path></g><g id="Vector_70" opacity="1" transform="matrix(1,0,0,1,0,0)"><path stroke-linecap="round" stroke-linejoin="round" fill-opacity="0" stroke="rgb(0,0,0)" stroke-opacity="1" stroke-width="2" d=" M269.6000061035156,307.5 C269.6000061035156,307.5 310.8999938964844,325.6000061035156 310.8999938964844,325.6000061035156"></path></g><g id="Vector_71" opacity="1" transform="matrix(1,0,0,1,0,0)"><path stroke-linecap="round" stroke-linejoin="round" fill-opacity="0" stroke="rgb(0,0,0)" stroke-opacity="1" stroke-width="2" d=" M333.20001220703125,435.79998779296875 C333.20001220703125,435.79998779296875 327.1000061035156,409.8999938964844 327.1000061035156,409.8999938964844 C327.1000061035156,409.8999938964844 364.20001220703125,422.8999938964844 364.20001220703125,422.8999938964844 C364.20001220703125,422.8999938964844 390.6000061035156,364.20001220703125 390.6000061035156,364.20001220703125"></path></g><g id="Vector_72" opacity="1" transform="matrix(1,0,0,1,0,0)"><path stroke-linecap="round" stroke-linejoin="round" fill-opacity="0" stroke="rgb(0,0,0)" stroke-opacity="1" stroke-width="2" d=" M388.8999938964844,367.20001220703125 C388.8999938964844,367.20001220703125 405,375.1000061035156 405,375.1000061035156 C405,375.1000061035156 429.29998779296875,309 434.5,293.6000061035156 C439.70001220703125,278.20001220703125 438.3999938964844,259 437.79998779296875,253.5 C437.29998779296875,248.5 442.3999938964844,246.1999969482422 444.70001220703125,250.60000610351562 C447,255.1999969482422 448,269.5 448,269.5 C448,269.5 447,245.6999969482422 446.70001220703125,243.5 C446.20001220703125,239.5 453.6000061035156,236.5 454.70001220703125,244.8000030517578 C455.6000061035156,251.60000610351562 458.1000061035156,268.1000061035156 458.1000061035156,268.1000061035156 C458.1000061035156,268.1000061035156 459.70001220703125,251 459.6000061035156,247.39999389648438 C459.3999938964844,240.89999389648438 467.79998779296875,240.60000610351562 468,249.6999969482422 C468.1000061035156,255.8000030517578 469.5,271.1000061035156 469.5,271.1000061035156 C469.5,271.1000061035156 478.8999938964844,263.8999938964844 483.6000061035156,265.29998779296875 C488.29998779296875,266.70001220703125 484.6000061035156,272.3999938964844 481.5,274.20001220703125 C478.3999938964844,276 469.79998779296875,286.5 467.70001220703125,293.70001220703125 C465.6000061035156,300.8999938964844 456.5,378.20001220703125 451.3999938964844,398.6000061035156 C447.20001220703125,415.29998779296875 432.5,437 405.3999938964844,431 C378.29998779296875,425 365.8999938964844,418.6000061035156 365.8999938964844,418.6000061035156"></path></g><g id="Vector_73" opacity="1" transform="matrix(1,0,0,1,0,0)"><path stroke-linecap="round" stroke-linejoin="round" fill-opacity="0" stroke="rgb(0,0,0)" stroke-opacity="1" stroke-width="2" d=" M405,375.20001220703125 C405,375.20001220703125 417.1000061035156,380.8999938964844 417.1000061035156,380.8999938964844"></path></g><g id="Vector_74" opacity="1" transform="matrix(1,0,0,1,0,0)"><path stroke-linecap="round" stroke-linejoin="round" fill-opacity="0" stroke="rgb(0,0,0)" stroke-opacity="1" stroke-width="2" d=" M368.79998779296875,378 C368.79998779296875,378 352.29998779296875,418.70001220703125 352.29998779296875,418.70001220703125"></path></g><g id="Vector_75" opacity="1" transform="matrix(1,0,0,1,0,0)"><path stroke-linecap="round" stroke-linejoin="round" fill-opacity="0" stroke-dasharray=" 931.1622584246534 1017" stroke-dashoffset="0" stroke="rgb(0,0,0)" stroke-opacity="1" stroke-width="5" d=" M560,356 C433,445 215,406.5 231.3000030517578,325.5 C244.39999389648438,260.1000061035156 341.1000061035156,306.8999938964844 297.8999938964844,356 C261.70001220703125,397.20001220703125 155.6999969482422,356.1000061035156 94.0999984741211,235.3000030517578 C38.5,126.19999694824219 81.9000015258789,12 81.9000015258789,12"></path></g><g id="pencil" opacity="1" transform="matrix(0.9891693592071533,-0.1467786282300949,0.1467786282300949,0.9891693592071533,-15.536911010742188,23.08905792236328)"><g id="Vector_51" opacity="1" transform="matrix(1,0,0,1,0,0)"><path fill="rgb(255,255,255)" fill-opacity="1" d=" M160.10000610351562,140.39999389648438 C160.10000610351562,140.39999389648438 187.1999969482422,170.3000030517578 187.1999969482422,170.3000030517578 C190.10000610351562,173.5 195.10000610351562,173.8000030517578 198.3000030517578,170.8000030517578 C201.5,167.89999389648438 201.8000030517578,162.89999389648438 198.8000030517578,159.6999969482422 C198.8000030517578,159.6999969482422 165.1999969482422,122.5 165.1999969482422,122.5 C165.1999969482422,122.5 162.89999389648438,120 162.89999389648438,120 C162.89999389648438,120 155.6999969482422,112.0999984741211 155.6999969482422,112.0999984741211 C155.6999969482422,112.0999984741211 102.30000305175781,53.20000076293945 102.30000305175781,53.20000076293945 C102.30000305175781,53.20000076293945 102.4000015258789,54 102.4000015258789,54 C102.5999984741211,57.20000076293945 99.5,59.5 96.5,58.400001525878906 C96.5,58.400001525878906 96.5,58.5 96.5,58.5 C97.19999694824219,61.5 94.5999984741211,64.30000305175781 91.5999984741211,63.900001525878906 C91.5999984741211,63.900001525878906 90.69999694824219,63.79999923706055 90.69999694824219,63.79999923706055 C90.69999694824219,63.79999923706055 147.1999969482422,126 147.1999969482422,126 C147.1999969482422,126 160.10000610351562,140.39999389648438 160.10000610351562,140.39999389648438 C160.10000610351562,140.39999389648438 160.10000610351562,140.39999389648438 160.10000610351562,140.39999389648438z"></path><path stroke-linecap="round" stroke-linejoin="round" fill-opacity="0" stroke="rgb(0,0,0)" stroke-opacity="1" stroke-width="2" d=" M160.10000610351562,140.39999389648438 C160.10000610351562,140.39999389648438 187.1999969482422,170.3000030517578 187.1999969482422,170.3000030517578 C190.10000610351562,173.5 195.10000610351562,173.8000030517578 198.3000030517578,170.8000030517578 C201.5,167.89999389648438 201.8000030517578,162.89999389648438 198.8000030517578,159.6999969482422 C198.8000030517578,159.6999969482422 165.1999969482422,122.5 165.1999969482422,122.5 C165.1999969482422,122.5 162.89999389648438,120 162.89999389648438,120 C162.89999389648438,120 155.6999969482422,112.0999984741211 155.6999969482422,112.0999984741211 C155.6999969482422,112.0999984741211 102.30000305175781,53.20000076293945 102.30000305175781,53.20000076293945 C102.30000305175781,53.20000076293945 102.4000015258789,54 102.4000015258789,54 C102.5999984741211,57.20000076293945 99.5,59.5 96.5,58.400001525878906 C96.5,58.400001525878906 96.5,58.5 96.5,58.5 C97.19999694824219,61.5 94.5999984741211,64.30000305175781 91.5999984741211,63.900001525878906 C91.5999984741211,63.900001525878906 90.69999694824219,63.79999923706055 90.69999694824219,63.79999923706055 C90.69999694824219,63.79999923706055 147.1999969482422,126 147.1999969482422,126 C147.1999969482422,126 160.10000610351562,140.39999389648438 160.10000610351562,140.39999389648438 C160.10000610351562,140.39999389648438 160.10000610351562,140.39999389648438 160.10000610351562,140.39999389648438z"></path></g><g id="Vector_53" opacity="1" transform="matrix(1,0,0,1,0,0)"><path stroke-linecap="round" stroke-linejoin="round" fill-opacity="0" stroke="rgb(0,0,0)" stroke-opacity="1" stroke-width="2" d=" M174.8000030517578,156.5 C177.6999969482422,159.6999969482422 182.6999969482422,160 185.89999389648438,157 C189.10000610351562,154.10000610351562 189.39999389648438,149.10000610351562 186.39999389648438,145.89999389648438"></path></g><g id="Vector_54" opacity="1" transform="matrix(1,0,0,1,0,0)"><path stroke-linecap="round" stroke-linejoin="round" fill-opacity="0" stroke="rgb(0,0,0)" stroke-opacity="1" stroke-width="2" d=" M102.30000305175781,53.20000076293945 C102.30000305175781,53.20000076293945 81.9000015258789,42.400001525878906 81.9000015258789,42.400001525878906 C81.9000015258789,42.400001525878906 90.5999984741211,63.79999923706055 90.5999984741211,63.79999923706055"></path></g><g id="Vector_55" opacity="1" transform="matrix(1,0,0,1,0,0)"><path fill="rgb(0,0,0)" fill-opacity="1" d=" M84.80000305175781,49.400001525878906 C85.5999984741211,49.099998474121094 86.30000305175781,48.599998474121094 86.9000015258789,48 C87.5999984741211,47.400001525878906 88.0999984741211,46.70000076293945 88.5,45.900001525878906 C88.5,45.900001525878906 81.9000015258789,42.400001525878906 81.9000015258789,42.400001525878906 C81.9000015258789,42.400001525878906 84.80000305175781,49.400001525878906 84.80000305175781,49.400001525878906 C84.80000305175781,49.400001525878906 84.80000305175781,49.400001525878906 84.80000305175781,49.400001525878906z"></path></g><g id="Vector_57" opacity="1" transform="matrix(1,0,0,1,0,0)"><path stroke-linecap="round" stroke-linejoin="round" fill-opacity="0" stroke="rgb(0,0,0)" stroke-opacity="1" stroke-width="2" d=" M96.4000015258789,58.5 C96.4000015258789,58.5 150.6999969482422,118.4000015258789 150.6999969482422,118.4000015258789 C150.6999969482422,118.4000015258789 161.6999969482422,130.39999389648438 161.6999969482422,130.39999389648438 C161.6999969482422,130.39999389648438 185.89999389648438,157 185.89999389648438,157"></path></g></g></g><g id="Group_16" opacity="1" transform="matrix(1,0,0,1,0,0)"><g id="Vector_76" opacity="1" transform="matrix(1,0,0,1,0,0)"><path fill="rgb(0,0,0)" fill-opacity="1" d=" M83.0999984741211,410.6000061035156 C65.80000305175781,416.8999938964844 46.70000076293945,408 40.400001525878906,390.70001220703125 C40.400001525878906,390.70001220703125 30.5,363.6000061035156 30.5,363.6000061035156 C29.200000762939453,360.1000061035156 31,356.29998779296875 34.5,355 C34.5,355 84.4000015258789,336.79998779296875 84.4000015258789,336.79998779296875 C87.9000015258789,335.5 91.69999694824219,337.29998779296875 93,340.79998779296875 C93,340.79998779296875 102.9000015258789,367.8999938964844 102.9000015258789,367.8999938964844 C109.19999694824219,385.20001220703125 100.30000305175781,404.29998779296875 83.0999984741211,410.6000061035156 C83.0999984741211,410.6000061035156 83.0999984741211,410.6000061035156 83.0999984741211,410.6000061035156z"></path></g><g id="Vector_77" opacity="1" transform="matrix(1,0,0,1,0,0)"><path stroke-linecap="round" stroke-linejoin="round" fill-opacity="0" stroke="rgb(255,255,255)" stroke-opacity="1" stroke-width="2" d=" M31.100000381469727,365.20001220703125 C31.100000381469727,365.20001220703125 93.69999694824219,342.3999938964844 93.69999694824219,342.3999938964844"></path></g><g id="Vector_78" opacity="1" transform="matrix(1,0,0,1,0,0)"><path fill="rgb(255,255,255)" fill-opacity="1" d=" M69.69999694824219,367.79998779296875 C69.69999694824219,367.79998779296875 73.5,371.5 73.5,371.5 C74.0999984741211,372 74.9000015258789,372.29998779296875 75.5999984741211,372.1000061035156 C75.5999984741211,372.1000061035156 80.80000305175781,371 80.80000305175781,371 C82.69999694824219,370.6000061035156 84.30000305175781,372.6000061035156 83.4000015258789,374.29998779296875 C83.4000015258789,374.29998779296875 81.0999984741211,379.1000061035156 81.0999984741211,379.1000061035156 C80.80000305175781,379.79998779296875 80.80000305175781,380.6000061035156 81.19999694824219,381.29998779296875 C81.19999694824219,381.29998779296875 83.80000305175781,385.8999938964844 83.80000305175781,385.8999938964844 C84.80000305175781,387.6000061035156 83.4000015258789,389.70001220703125 81.4000015258789,389.3999938964844 C81.4000015258789,389.3999938964844 76.19999694824219,388.70001220703125 76.19999694824219,388.70001220703125 C75.4000015258789,388.6000061035156 74.69999694824219,388.8999938964844 74.0999984741211,389.5 C74.0999984741211,389.5 70.5,393.3999938964844 70.5,393.3999938964844 C69.19999694824219,394.8999938964844 66.80000305175781,394.20001220703125 66.4000015258789,392.20001220703125 C66.4000015258789,392.20001220703125 65.5,387 65.5,387 C65.4000015258789,386.20001220703125 64.9000015258789,385.6000061035156 64.0999984741211,385.29998779296875 C64.0999984741211,385.29998779296875 59.29999923706055,383.1000061035156 59.29999923706055,383.1000061035156 C57.5,382.29998779296875 57.400001525878906,379.79998779296875 59.20000076293945,378.8999938964844 C59.20000076293945,378.8999938964844 63.900001525878906,376.3999938964844 63.900001525878906,376.3999938964844 C64.5999984741211,376 65,375.29998779296875 65.0999984741211,374.6000061035156 C65.0999984741211,374.6000061035156 65.69999694824219,369.29998779296875 65.69999694824219,369.29998779296875 C65.9000015258789,367.29998779296875 68.30000305175781,366.3999938964844 69.69999694824219,367.79998779296875 C69.69999694824219,367.79998779296875 69.69999694824219,367.79998779296875 69.69999694824219,367.79998779296875z"></path></g><g id="Vector_79" opacity="1" transform="matrix(1,0,0,1,0,0)"><path stroke-linecap="round" stroke-linejoin="round" fill-opacity="0" stroke="rgb(0,0,0)" stroke-opacity="1" stroke-width="2" d=" M90.4000015258789,352.29998779296875 C90.4000015258789,352.29998779296875 98.30000305175781,341.29998779296875 98.30000305175781,341.29998779296875 C102.5999984741211,335.3999938964844 110.80000305175781,333.79998779296875 116.9000015258789,337.79998779296875 C123.69999694824219,342.20001220703125 125.19999694824219,351.5 120.19999694824219,357.8999938964844 C120.19999694824219,357.8999938964844 106.5999984741211,374.8999938964844 106.5999984741211,374.8999938964844 C104.5,377.5 105,381.20001220703125 107.5999984741211,383.20001220703125 C110,385 113.5,384.70001220703125 115.5,382.3999938964844"></path></g><g id="Vector_80" opacity="1" transform="matrix(1,0,0,1,0,0)"><path stroke-linecap="round" stroke-linejoin="round" fill-opacity="0" stroke="rgb(0,0,0)" stroke-opacity="1" stroke-width="2" d=" M39.900001525878906,370.70001220703125 C39.900001525878906,370.70001220703125 26.799999237060547,367.3999938964844 26.799999237060547,367.3999938964844 C19.700000762939453,365.6000061035156 12.5,369.70001220703125 10.300000190734863,376.70001220703125 C7.900000095367432,384.5 12.800000190734863,392.6000061035156 20.700000762939453,394.20001220703125 C20.700000762939453,394.20001220703125 42,398.5 42,398.5 C45.20000076293945,399.1000061035156 47.29999923706055,402.29998779296875 46.599998474121094,405.5 C45.900001525878906,408.5 43.099998474121094,410.3999938964844 40.099998474121094,410"></path></g><g id="Vector_81" opacity="1" transform="matrix(1,0,0,1,0,0)"><path stroke-linecap="round" stroke-linejoin="round" fill-opacity="0" stroke="rgb(0,0,0)" stroke-opacity="1" stroke-width="2" d=" M107.80000305175781,444.3999938964844 C107.80000305175781,444.3999938964844 85.80000305175781,452.3999938964844 85.80000305175781,452.3999938964844 C85.80000305175781,452.3999938964844 76.5,403.3999938964844 76.5,403.3999938964844 C76.5,403.3999938964844 83.5,400.8999938964844 83.5,400.8999938964844 C83.5,400.8999938964844 107.80000305175781,444.3999938964844 107.80000305175781,444.3999938964844 C107.80000305175781,444.3999938964844 107.80000305175781,444.3999938964844 107.80000305175781,444.3999938964844z"></path></g><g id="Vector_82" opacity="1" transform="matrix(1,0,0,1,0,0)"><path fill="rgb(0,0,0)" fill-opacity="1" d=" M116.4000015258789,445.5 C116.4000015258789,445.5 79.9000015258789,458.79998779296875 79.9000015258789,458.79998779296875 C78.69999694824219,459.20001220703125 77.4000015258789,458.6000061035156 76.9000015258789,457.3999938964844 C76.5,456.20001220703125 77.0999984741211,454.8999938964844 78.30000305175781,454.3999938964844 C78.30000305175781,454.3999938964844 114.80000305175781,441.1000061035156 114.80000305175781,441.1000061035156 C116,440.70001220703125 117.30000305175781,441.29998779296875 117.80000305175781,442.5 C118.19999694824219,443.70001220703125 117.5999984741211,445 116.4000015258789,445.5 C116.4000015258789,445.5 116.4000015258789,445.5 116.4000015258789,445.5z"></path></g><g id="Vector_83" opacity="1" transform="matrix(1,0,0,1,0,0)"><path stroke-linecap="round" stroke-linejoin="round" fill-opacity="0" stroke="rgb(0,0,0)" stroke-opacity="1" stroke-width="2" d=" M19.899999618530273,341 C19.899999618530273,334.3999938964844 14.600000381469727,329.1000061035156 8,329.1000061035156 C14.600000381469727,329.1000061035156 19.899999618530273,323.79998779296875 19.899999618530273,317.20001220703125 C19.899999618530273,323.79998779296875 25.200000762939453,329.1000061035156 31.799999237060547,329.1000061035156 C25.200000762939453,329.1000061035156 19.899999618530273,334.3999938964844 19.899999618530273,341 C19.899999618530273,341 19.899999618530273,341 19.899999618530273,341z"></path></g><g id="Vector_84" opacity="1" transform="matrix(0.9155970811843872,0,0,0.9155970811843872,10.187431335449219,34.7318115234375)"><path stroke-linecap="round" stroke-linejoin="round" fill-opacity="0" stroke="rgb(0,0,0)" stroke-opacity="1" stroke-width="2" d=" M120.69999694824219,431.1000061035156 C120.69999694824219,420.20001220703125 111.9000015258789,411.5 101.0999984741211,411.5 C112,411.5 120.69999694824219,402.70001220703125 120.69999694824219,391.8999938964844 C120.69999694824219,402.79998779296875 129.5,411.5 140.3000030517578,411.5 C129.5,411.3999938964844 120.69999694824219,420.20001220703125 120.69999694824219,431.1000061035156 C120.69999694824219,431.1000061035156 120.69999694824219,431.1000061035156 120.69999694824219,431.1000061035156z"></path></g><g id="Vector_85" opacity="1" transform="matrix(1,0,0,1,0,0)"><path stroke-linecap="round" stroke-linejoin="round" fill-opacity="0" stroke="rgb(0,0,0)" stroke-opacity="1" stroke-width="2" d=" M162,392 C162,383.75 155.25,377 147,377 C155.25,377 162,370.25 162,362 C162,370.25 168.75,377 177,377 C168.75,377 162,383.75 162,392 C162,392 162,392 162,392z"></path></g></g></g><g id="Vector_47-2" style="display: block;" transform="matrix(1,0,0,1,0,0)" opacity="1"><g opacity="1" transform="matrix(1,0,0,1,0,0)"><path fill="rgb(255,255,255)" fill-opacity="1" d=" M125.30000305175781,169.89999389648438 C129.3000030517578,165 156.3000030517578,157.1999969482422 158.5,152.60000610351562 C160.6999969482422,148 158.89999389648438,133.60000610351562 164.39999389648438,114.30000305175781 C166.39999389648438,107.30000305175781 156.5,107.80000305175781 150.6999969482422,118.4000015258789 C144.89999389648438,129 145,135 145,135"></path><path stroke-linecap="round" stroke-linejoin="round" fill-opacity="0" stroke="rgb(0,0,0)" stroke-opacity="1" stroke-width="2" d=" M125.30000305175781,169.89999389648438 C129.3000030517578,165 156.3000030517578,157.1999969482422 158.5,152.60000610351562 C160.6999969482422,148 158.89999389648438,133.60000610351562 164.39999389648438,114.30000305175781 C166.39999389648438,107.30000305175781 156.5,107.80000305175781 150.6999969482422,118.4000015258789 C144.89999389648438,129 145,135 145,135"></path></g></g><g id="Vector_16-2" style="display: block;" transform="matrix(1,0,0,1,372.1109924316406,-3.5220000743865967)" opacity="1"><g opacity="1" transform="matrix(1,0,0,1,0,0)"><path stroke-linecap="round" stroke-linejoin="round" fill-opacity="0" stroke="rgb(0,0,0)" stroke-opacity="1" stroke-width="2" d=" M362.3999938964844,302.8999938964844 C362.3999938964844,302.8999938964844 420.3999938964844,202.39999389648438 420.3999938964844,202.39999389648438 C424.6000061035156,195.1999969482422 422.1000061035156,186 414.8999938964844,181.89999389648438 C414.8999938964844,181.89999389648438 414.5,181.6999969482422 414.5,181.6999969482422 C407.29998779296875,177.5 398.1000061035156,180 394,187.1999969482422 C389.79998779296875,194.39999389648438 392.29998779296875,203.60000610351562 399.5,207.6999969482422 C399.5,207.6999969482422 445.29998779296875,234.10000610351562 445.29998779296875,234.10000610351562 C452.5,238.3000030517578 461.70001220703125,235.8000030517578 465.79998779296875,228.60000610351562 C470,221.39999389648438 467.5,212.1999969482422 460.29998779296875,208.10000610351562 C460.29998779296875,208.10000610351562 459.8999938964844,207.89999389648438 459.8999938964844,207.89999389648438 C452.70001220703125,203.6999969482422 443.5,206.1999969482422 439.3999938964844,213.39999389648438 C439.3999938964844,213.39999389648438 381.3999938964844,313.8999938964844 381.3999938964844,313.8999938964844"></path></g></g></g></svg>