<svg width="240" height="100" viewBox="0 0 240 100" fill="none" xmlns="http://www.w3.org/2000/svg">
<path d="M51.7 69.6002L40 57.9002L48.9 39.2002L85.5 24.2002L70.5 60.8002L51.7 69.6002Z" stroke="black" stroke-width="2" stroke-miterlimit="10" stroke-linecap="round" stroke-linejoin="round"/>
<path d="M55 59.0002C57.4301 59.0002 59.4 57.0302 59.4 54.6002C59.4 52.1701 57.4301 50.2002 55 50.2002C52.57 50.2002 50.6 52.1701 50.6 54.6002C50.6 57.0302 52.57 59.0002 55 59.0002Z" stroke="black" stroke-width="2" stroke-miterlimit="10" stroke-linecap="round" stroke-linejoin="round"/>
<path d="M58.1 51.5002L85.5 24.2002" stroke="black" stroke-width="2" stroke-miterlimit="10" stroke-linecap="round" stroke-linejoin="round"/>
<path d="M40.06 57.9469L36.171 61.8359L47.9088 73.5738L51.7979 69.6847L40.06 57.9469Z" stroke="black" stroke-width="2" stroke-miterlimit="10" stroke-linecap="round" stroke-linejoin="round"/>
<path d="M29.1 93.9004L43.6 79.4004C44.9 78.1004 44.9 75.9004 43.6 74.5004L35.1 66.0004C33.8 64.7004 31.6 64.7004 30.2 66.0004L15.7 80.5004" stroke="black" stroke-width="2" stroke-miterlimit="10" stroke-linecap="round" stroke-linejoin="round"/>
<path d="M25 71.2002L38.4 84.7002" stroke="black" stroke-width="2" stroke-miterlimit="10" stroke-linecap="round" stroke-linejoin="round"/>
<path d="M10.3 16.3002C10.3 16.3002 63 -7.69983 107.4 43.7002C145.3 87.6002 202.3 81.2002 230.3 49.9002" stroke="black" stroke-width="2" stroke-miterlimit="10" stroke-linecap="round" stroke-linejoin="round"/>
<path d="M10.3 12.8999H3.40002V19.7999H10.3V12.8999Z" stroke="black" stroke-width="2" stroke-miterlimit="10" stroke-linecap="round" stroke-linejoin="round"/>
<path d="M88.9 21.5H82V28.4H88.9V21.5Z" fill="black" stroke="black" stroke-width="2" stroke-miterlimit="10" stroke-linecap="round" stroke-linejoin="round"/>
<path d="M237.2 43.1001H230.3V50.0001H237.2V43.1001Z" stroke="black" stroke-width="2" stroke-miterlimit="10" stroke-linecap="round" stroke-linejoin="round"/>
<path d="M69.9 5.1001L130.9 80.7001" stroke="black" stroke-width="2" stroke-miterlimit="10" stroke-linecap="round" stroke-linejoin="round"/>
<path d="M69.9 7.1001C71.0046 7.1001 71.9 6.20467 71.9 5.1001C71.9 3.99553 71.0046 3.1001 69.9 3.1001C68.7955 3.1001 67.9 3.99553 67.9 5.1001C67.9 6.20467 68.7955 7.1001 69.9 7.1001Z" fill="black" stroke="black" stroke-width="2" stroke-miterlimit="10" stroke-linecap="round" stroke-linejoin="round"/>
<path d="M130.9 82.7002C132.005 82.7002 132.9 81.8048 132.9 80.7002C132.9 79.5956 132.005 78.7002 130.9 78.7002C129.795 78.7002 128.9 79.5956 128.9 80.7002C128.9 81.8048 129.795 82.7002 130.9 82.7002Z" fill="black" stroke="black" stroke-width="2" stroke-miterlimit="10" stroke-linecap="round" stroke-linejoin="round"/>
<path d="M146.8 43.7999V11.3999L163 27.5999L146.8 43.7999Z" stroke="black" stroke-width="2" stroke-miterlimit="10" stroke-linecap="round" stroke-linejoin="round"/>
<path d="M194.2 11.3999V43.7999L178 27.5999L194.2 11.3999Z" fill="black" stroke="black" stroke-width="2" stroke-miterlimit="10" stroke-linecap="round" stroke-linejoin="round"/>
<path d="M170.5 5V50.4" stroke="black" stroke-width="2" stroke-miterlimit="10" stroke-linecap="round" stroke-linejoin="round" stroke-dasharray="3 3"/>
<path d="M26.8 41.0001C26.8 36.7001 23.3 33.3001 19.1 33.3001C23.4 33.3001 26.8 29.8001 26.8 25.6001C26.8 29.9001 30.3 33.3001 34.5 33.3001C30.3 33.3001 26.8 36.7001 26.8 41.0001Z" fill="black" stroke="black" stroke-width="2" stroke-miterlimit="10" stroke-linecap="round" stroke-linejoin="round"/>
<path d="M226.8 81.0001C226.8 76.7001 223.3 73.3001 219.1 73.3001C223.4 73.3001 226.8 69.8001 226.8 65.6001C226.8 69.9001 230.3 73.3001 234.5 73.3001C230.3 73.3001 226.8 76.7001 226.8 81.0001Z" fill="black" stroke="black" stroke-width="2" stroke-miterlimit="10" stroke-linecap="round" stroke-linejoin="round"/>
<path d="M94 94C94 84.625 86.375 77 77 77C86.375 77 94 69.375 94 60C94 69.375 101.625 77 111 77C101.625 76.875 94 84.5 94 94Z" stroke="black" stroke-width="2" stroke-miterlimit="10" stroke-linecap="round" stroke-linejoin="round"/>
</svg>