<svg xmlns="http://www.w3.org/2000/svg" viewBox="0 0 400 360" width="400" height="360" style="width: 100%; height: 100%; transform: translate3d(0px, 0px, 0px);" preserveAspectRatio="xMidYMid meet"><defs><clipPath id="__lottie_element_11"><rect width="400" height="360" x="0" y="0"></rect></clipPath><mask id="__lottie_element_126" mask-type="alpha"><g id="ClipPath-1" style="display: block;" transform="matrix(1,0,0,1,197.239990234375,164.9530029296875)" opacity="1"><g opacity="1" transform="matrix(1,0,0,1,-16.25299835205078,-8.068000793457031)"><path fill="rgb(255,255,255)" fill-opacity="1" d=" M117.32350158691406,0.000499725341796875 C117.32350158691406,0.000499725341796875 117.32350158691406,100.04350280761719 117.32350158691406,100.04350280761719 C117.32350158691406,100.04350280761719 0.000499725341796875,100.04350280761719 0.000499725341796875,100.04350280761719 C0.000499725341796875,100.04350280761719 0.000499725341796875,0.000499725341796875 0.000499725341796875,0.000499725341796875 C0.000499725341796875,0.000499725341796875 117.32350158691406,0.000499725341796875 117.32350158691406,0.000499725341796875z"></path></g></g></mask></defs><g clip-path="url(#__lottie_element_11)"><g style="display: block;" transform="matrix(1,0,0,1,3.503999948501587,0.5400000214576721)" opacity="1"><g opacity="1" transform="matrix(1,0,0,1,0,0)"><path fill="rgb(255,255,255)" fill-opacity="1" d=" M113.5,271.5 C113.5,271.5 65.5,254 65.5,254 C65.5,254 120,250 120,250 C120,250 113.5,271.5 113.5,271.5 C113.5,271.5 113.5,271.5 113.5,271.5z"></path></g></g><g style="display: block;" transform="matrix(1,0,0,1,3.503999948501587,0.5400000214576721)" opacity="1"><g opacity="1" transform="matrix(1,0,0,1,0,0)"><path stroke-linecap="round" stroke-linejoin="round" fill-opacity="0" stroke="rgb(0,0,0)" stroke-opacity="1" stroke-width="2" d=" M142.4600067138672,64.73999786376953 C155.39100646972656,51.80500030517578 173.92999267578125,37 200.10299682617188,28.117000579833984 C200.10299682617188,28.117000579833984 178.75999450683594,-3.5199999809265137 144.64100646972656,13.9350004196167 C110.52200317382812,31.389999389648438 106.93900299072266,65.98699951171875 123.9209976196289,85.93499755859375 C123.9209976196289,85.93499755859375 127.3479995727539,80.32499694824219 135.76100158691406,71.44200134277344"></path></g></g><g style="display: block;" transform="matrix(1,0,0,1,3.503999948501587,0.5400000214576721)" opacity="1"><g opacity="1" transform="matrix(1,0,0,1,0,0)"><path stroke-linecap="round" stroke-linejoin="round" fill-opacity="0" stroke="rgb(0,0,0)" stroke-opacity="1" stroke-width="2" d=" M148.69200134277344,58.6619987487793 C149.0030059814453,58.35100173950195 169.5679931640625,71.90899658203125 184.67999267578125,50.090999603271484 C203.375,23.1299991607666 219.26600646972656,24.065000534057617 228.14599609375,24.065000534057617 C228.14599609375,24.065000534057617 212.0989990234375,23.597000122070312 200.10299682617188,28.117000579833984"></path></g></g><g style="display: block;" transform="matrix(1,0,0,1,3.503999948501587,0.5400000214576721)" opacity="1"><g opacity="1" transform="matrix(1,0,0,1,0,0)"><path stroke-linecap="round" stroke-linejoin="round" fill-opacity="0" stroke="rgb(0,0,0)" stroke-opacity="1" stroke-width="2" d=" M228.14599609375,72.22100067138672 C228.14599609375,72.22100067138672 240.60899353027344,63.64899826049805 243.41400146484375,45.72700119018555 C246.21800231933594,27.80500030517578 234.5330047607422,23.909000396728516 228.14599609375,23.909000396728516"></path></g></g><g style="display: block;" transform="matrix(1,0,0,1,3.503999948501587,0.5400000214576721)" opacity="1"><g opacity="1" transform="matrix(1,0,0,1,0,0)"><path fill="rgb(0,0,0)" fill-opacity="1" d=" M181.4080047607422,53.67499923706055 C181.4080047607422,53.67499923706055 189.8209991455078,61.000999450683594 197.61099243164062,62.558998107910156 C205.39999389648438,64.11699676513672 203.218994140625,56.948001861572266 203.218994140625,56.948001861572266 C203.218994140625,56.948001861572266 215.83799743652344,69.26000213623047 225.6529998779297,58.9739990234375 C235.46800231933594,48.6879997253418 224.56300354003906,41.52000045776367 219.73300170898438,47.2859992980957 C219.73300170898438,47.2859992980957 217.552001953125,40.42900085449219 210.54100036621094,45.2599983215332 C210.54100036621094,45.2599983215332 208.51600646972656,31.857999801635742 191.37899780273438,39.3380012512207 C191.37899780273438,39.3380012512207 181.4080047607422,53.67499923706055 181.4080047607422,53.67499923706055 C181.4080047607422,53.67499923706055 181.4080047607422,53.67499923706055 181.4080047607422,53.67499923706055z"></path></g></g><g style="display: block;" transform="matrix(1,0,0,1,3.503999948501587,0.5400000214576721)" opacity="1"><g opacity="1" transform="matrix(1,0,0,1,0,0)"><path stroke-linecap="round" stroke-linejoin="round" fill-opacity="0" stroke="rgb(0,0,0)" stroke-opacity="1" stroke-width="2" d=" M222.2259979248047,56.01300048828125 C222.2259979248047,56.01300048828125 229.39199829101562,77.98699951171875 233.4429931640625,88.89600372314453 C237.49400329589844,99.80500030517578 233.28700256347656,120.68800354003906 224.56300354003906,128.3249969482422 C219.4219970703125,132.68800354003906 204.30999755859375,132.2209930419922 187.1719970703125,128.3249969482422"></path></g></g><g style="display: block;" transform="matrix(1,0,0,1,3.503999948501587,0.5400000214576721)" opacity="1"><g opacity="1" transform="matrix(1,0,0,1,0,0)"><path stroke-linecap="round" stroke-linejoin="round" fill-opacity="0" stroke="rgb(0,0,0)" stroke-opacity="1" stroke-width="2" d=" M141.68099975585938,15.493000030517578 C141.68099975585938,15.493000030517578 123.9209976196289,40.895999908447266 151.1840057373047,79.54499816894531"></path></g></g><g style="display: block;" transform="matrix(1,0,0,1,3.503999948501587,0.5400000214576721)" opacity="1"><g opacity="1" transform="matrix(1,0,0,1,0,0)"><path stroke-linecap="round" stroke-linejoin="round" fill-opacity="0" stroke="rgb(0,0,0)" stroke-opacity="1" stroke-width="2" d=" M143.5500030517578,84.06500244140625 C143.5500030517578,84.06500244140625 119.24700164794922,55.388999938964844 132.33299255371094,21.882999420166016"></path></g></g><g style="display: block;" transform="matrix(1,0,0,1,3.503999948501587,0.5400000214576721)" opacity="1"><g opacity="1" transform="matrix(1,0,0,1,0,0)"><path stroke-linecap="round" stroke-linejoin="round" fill-opacity="0" stroke="rgb(0,0,0)" stroke-opacity="1" stroke-width="2" d=" M157.10400390625,111.18199920654297 C165.9669952392578,111.18199920654297 173.1510009765625,103.99500274658203 173.1510009765625,95.12999725341797 C173.1510009765625,86.26499938964844 165.9669952392578,79.0780029296875 157.10400390625,79.0780029296875 C148.24200439453125,79.0780029296875 141.05799865722656,86.26499938964844 141.05799865722656,95.12999725341797 C141.05799865722656,103.99500274658203 148.24200439453125,111.18199920654297 157.10400390625,111.18199920654297 C157.10400390625,111.18199920654297 157.10400390625,111.18199920654297 157.10400390625,111.18199920654297z"></path></g></g><g style="display: block;" transform="matrix(1,0,0,1,3.503999948501587,0.5400000214576721)" opacity="1"><g opacity="1" transform="matrix(1,0,0,1,0,0)"><path stroke-linecap="round" stroke-linejoin="round" fill-opacity="0" stroke="rgb(0,0,0)" stroke-opacity="1" stroke-width="2" d=" M157.10400390625,104.947998046875 C162.52499389648438,104.947998046875 166.91900634765625,100.552001953125 166.91900634765625,95.12999725341797 C166.91900634765625,89.70800018310547 162.52499389648438,85.31199645996094 157.10400390625,85.31199645996094 C151.6840057373047,85.31199645996094 147.28900146484375,89.70800018310547 147.28900146484375,95.12999725341797 C147.28900146484375,100.552001953125 151.6840057373047,104.947998046875 157.10400390625,104.947998046875 C157.10400390625,104.947998046875 157.10400390625,104.947998046875 157.10400390625,104.947998046875z"></path></g></g><g style="display: block;" transform="matrix(1,0,0,1,3.503999948501587,0.5400000214576721)" opacity="1"><g opacity="1" transform="matrix(1,0,0,1,0,0)"><path fill="rgb(0,0,0)" fill-opacity="1" d=" M169.7239990234375,61.624000549316406 C169.7239990234375,61.624000549316406 172.06100463867188,68.16899871826172 167.0749969482422,72.22100067138672 C167.0749969482422,72.22100067138672 166.45199584960938,82.03900146484375 166.45199584960938,82.03900146484375 C166.45199584960938,82.03900146484375 159.1300048828125,76.74099731445312 151.33999633789062,80.16899871826172 C151.33999633789062,80.16899871826172 144.32899475097656,68.4800033569336 142.77099609375,64.89600372314453 C142.77099609375,64.89600372314453 148.8470001220703,58.9739990234375 148.8470001220703,58.9739990234375 C148.69200134277344,58.9739990234375 161.15499877929688,65.20800018310547 169.7239990234375,61.624000549316406 C169.7239990234375,61.624000549316406 169.7239990234375,61.624000549316406 169.7239990234375,61.624000549316406z"></path></g></g><g style="display: block;" transform="matrix(1,0,0,1,3.503999948501587,0.5400000214576721)" opacity="1"><g opacity="1" transform="matrix(1,0,0,1,0,0)"><path fill="rgb(0,0,0)" fill-opacity="1" d=" M135.76100158691406,71.44200134277344 C135.76100158691406,71.44200134277344 144.7969970703125,85.93499755859375 144.7969970703125,85.93499755859375 C144.7969970703125,85.93499755859375 136.8509979248047,93.88300323486328 145.5760040283203,106.19499969482422 C151.33999633789062,114.45500183105469 163.95899963378906,109.77899932861328 163.95899963378906,109.77899932861328 C163.95899963378906,109.77899932861328 162.71299743652344,123.33799743652344 162.71299743652344,123.33799743652344 C162.71299743652344,123.33799743652344 154.61199951171875,121.31199645996094 154.3000030517578,116.79199981689453 C154.3000030517578,116.79199981689453 148.3800048828125,116.79199981689453 146.97799682617188,113.98699951171875 C146.97799682617188,113.98699951171875 140.1230010986328,115.0780029296875 138.7209930419922,108.84400177001953 C138.7209930419922,108.84400177001953 130.46400451660156,107.59700012207031 130.6199951171875,100.27300262451172 C130.6199951171875,100.27300262451172 121.11599731445312,95.28600311279297 124.38800048828125,85.77899932861328 C124.38800048828125,85.77899932861328 135.76100158691406,71.44200134277344 135.76100158691406,71.44200134277344 C135.76100158691406,71.44200134277344 135.76100158691406,71.44200134277344 135.76100158691406,71.44200134277344z"></path></g></g><g style="display: block;" transform="matrix(1,0,0,1,3.503999948501587,0.5400000214576721)" opacity="1"><g opacity="1" transform="matrix(1,0,0,1,0,0)"><path stroke-linecap="round" stroke-linejoin="round" fill-opacity="0" stroke="rgb(0,0,0)" stroke-opacity="1" stroke-width="2" d=" M162.86900329589844,111.18199920654297 C162.86900329589844,111.18199920654297 166.91900634765625,130.5070037841797 148.8470001220703,142.3509979248047 C148.8470001220703,142.3509979248047 185.92599487304688,173.98699951171875 223.16099548339844,143.90899658203125 C223.16099548339844,143.90899658203125 218.79800415039062,141.41600036621094 216.46099853515625,131.1300048828125"></path></g></g><g style="display: block;" transform="matrix(1,0,0,1,3.503999948501587,0.5400000214576721)" opacity="1"><g opacity="1" transform="matrix(1,0,0,1,0,0)"><path fill="rgb(255,255,255)" fill-opacity="1" d=" M148.69200134277344,142.5070037841797 C148.69200134277344,142.5070037841797 116.28700256347656,152.01300048828125 88.86699676513672,177.88299560546875 C67.67900085449219,197.83099365234375 46.803001403808594,247.38999938964844 46.803001403808594,247.38999938964844 C46.803001403808594,247.38999938964844 185.92599487304688,297.5719909667969 185.92599487304688,297.5719909667969 C185.92599487304688,297.5719909667969 193.8719940185547,293.052001953125 206.49099731445312,293.364013671875 C219.11000061035156,293.67498779296875 221.13499450683594,289.4679870605469 227.36700439453125,291.3380126953125 C233.5989990234375,293.364013671875 230.79400634765625,299.75299072265625 224.40699768066406,302.7139892578125 C218.1750030517578,305.83099365234375 211.6320037841797,309.10400390625 211.6320037841797,309.10400390625 C211.6320037841797,309.10400390625 239.36300659179688,316.739990234375 245.906005859375,318.7659912109375 C252.4499969482422,320.7919921875 251.98199462890625,330.29901123046875 240.60899353027344,328.5849914550781 C229.23599243164062,326.7139892578125 216.61700439453125,323.90899658203125 216.61700439453125,323.90899658203125 C216.61700439453125,323.90899658203125 244.8159942626953,336.06500244140625 250.11300659179688,337.93499755859375 C255.41000366210938,339.80499267578125 254.78700256347656,349 245.75100708007812,347.1300048828125 C236.71499633789062,345.10400390625 214.27999877929688,337.4679870605469 214.27999877929688,337.4679870605469 C214.27999877929688,337.4679870605469 232.50799560546875,346.5069885253906 239.6750030517578,349.31201171875 C246.84100341796875,352.27301025390625 244.1929931640625,359.59698486328125 236.2469940185547,357.5719909667969 C228.302001953125,355.5459899902344 187.79600524902344,343.70098876953125 176.57899475097656,331.3900146484375 C176.57899475097656,331.3900146484375 113.79399871826172,321.72698974609375 74.53399658203125,309.88299560546875 C35.27399826049805,298.03900146484375 54.90399932861328,250.19500732421875 54.90399932861328,250.19500732421875"></path></g></g><g style="display: block;" transform="matrix(1,0,0,1,3.503999948501587,0.5400000214576721)" opacity="1"><g opacity="1" transform="matrix(1,0,0,1,0,0)"><path stroke-linecap="round" stroke-linejoin="round" fill-opacity="0" stroke="rgb(0,0,0)" stroke-opacity="1" stroke-width="2" d=" M148.69200134277344,142.5070037841797 C148.69200134277344,142.5070037841797 116.28700256347656,152.01300048828125 88.86699676513672,177.88299560546875 C67.67900085449219,197.83099365234375 46.803001403808594,247.38999938964844 46.803001403808594,247.38999938964844 C46.803001403808594,247.38999938964844 185.92599487304688,297.5719909667969 185.92599487304688,297.5719909667969 C185.92599487304688,297.5719909667969 193.8719940185547,293.052001953125 206.49099731445312,293.364013671875 C219.11000061035156,293.67498779296875 221.13499450683594,289.4679870605469 227.36700439453125,291.3380126953125 C233.5989990234375,293.364013671875 230.79400634765625,299.75299072265625 224.40699768066406,302.7139892578125 C218.1750030517578,305.83099365234375 211.6320037841797,309.10400390625 211.6320037841797,309.10400390625 C211.6320037841797,309.10400390625 239.36300659179688,316.739990234375 245.906005859375,318.7659912109375 C252.4499969482422,320.7919921875 251.98199462890625,330.29901123046875 240.60899353027344,328.5840148925781 C229.23599243164062,326.7139892578125 216.61700439453125,323.90899658203125 216.61700439453125,323.90899658203125 C216.61700439453125,323.90899658203125 244.8159942626953,336.06500244140625 250.11300659179688,337.93499755859375 C255.41000366210938,339.80499267578125 254.78700256347656,349 245.75100708007812,347.1300048828125 C236.71499633789062,345.10400390625 214.27999877929688,337.4679870605469 214.27999877929688,337.4679870605469 C214.27999877929688,337.4679870605469 232.50799560546875,346.5069885253906 239.6750030517578,349.31201171875 C246.84100341796875,352.27301025390625 244.1929931640625,359.59698486328125 236.2469940185547,357.5719909667969 C228.302001953125,355.5459899902344 187.79600524902344,343.70098876953125 176.57899475097656,331.3900146484375 C176.57899475097656,331.3900146484375 113.79399871826172,321.72698974609375 74.53399658203125,309.88299560546875 C35.27399826049805,298.03900146484375 54.90399932861328,250.19500732421875 54.90399932861328,250.19500732421875"></path></g></g><g style="display: block;" transform="matrix(1,0,0,1,3.503999948501587,0.5400000214576721)" opacity="1"><g opacity="1" transform="matrix(1,0,0,1,0,0)"><path stroke-linecap="round" stroke-linejoin="round" fill-opacity="0" stroke="rgb(0,0,0)" stroke-opacity="1" stroke-width="2" d=" M113.94999694824219,270.6099853515625 C113.94999694824219,270.6099853515625 125.79000091552734,232.74000549316406 125.79000091552734,232.74000549316406"></path></g></g><g style="display: block;" transform="matrix(1,0,0,1,3.503999948501587,0.5400000214576721)" opacity="1"><g opacity="1" transform="matrix(1,0,0,1,0,0)"><path stroke-linecap="round" stroke-linejoin="round" fill-opacity="0" stroke="rgb(0,0,0)" stroke-opacity="1" stroke-width="2" d=" M119.87000274658203,256.27301025390625 C119.87000274658203,256.27301025390625 380.3559875488281,256.27301025390625 380.3559875488281,256.27301025390625"></path></g></g><g style="display: block;" transform="matrix(1,0,0,1,3.503999948501587,0.5400000214576721)" opacity="1"><g opacity="1" transform="matrix(1,0,0,1,0,0)"><path stroke-linecap="round" stroke-linejoin="round" fill-opacity="0" stroke="rgb(0,0,0)" stroke-opacity="1" stroke-width="2" d=" M18.604999542236328,256.27301025390625 C18.604999542236328,256.27301025390625 52.722999572753906,256.27301025390625 52.722999572753906,256.27301025390625"></path></g></g><g style="display: block;" transform="matrix(1,0,0,1,3.503999948501587,0.5400000214576721)" opacity="1"><g opacity="1" transform="matrix(1,0,0,1,0,0)"><path stroke-linecap="round" stroke-linejoin="round" fill-opacity="0" stroke="rgb(0,0,0)" stroke-opacity="1" stroke-width="2" d=" M223.0050048828125,144.06500244140625 C223.0050048828125,144.06500244140625 267.56201171875,150.61000061035156 314.29901123046875,171.96099853515625 C314.29901123046875,171.96099853515625 300.4339904785156,236.63600158691406 300.4339904785156,236.63600158691406 C300.4339904785156,236.63600158691406 243.88099670410156,225.5709991455078 243.88099670410156,225.5709991455078"></path></g></g><g style="display: block;" transform="matrix(1,0,0,1,3.503999948501587,0.5400000214576721)" opacity="1"><g opacity="1" transform="matrix(1,0,0,1,0,0)"><path stroke-linecap="round" stroke-linejoin="round" fill-opacity="0" stroke="rgb(0,0,0)" stroke-opacity="1" stroke-width="2" d=" M113.94999694824219,158.71400451660156 C113.94999694824219,158.71400451660156 150.7169952392578,169.31199645996094 143.5500030517578,256.11700439453125"></path></g></g><g style="display: block;" transform="matrix(1,0,0,1,3.503999948501587,0.5400000214576721)" opacity="1"><g opacity="1" transform="matrix(1,0,0,1,0,0)"><path stroke-linecap="round" stroke-linejoin="round" fill-opacity="0" stroke="rgb(0,0,0)" stroke-opacity="1" stroke-width="2" d=" M127.3479995727539,151.7010040283203 C127.3479995727539,151.7010040283203 164.11500549316406,163.0780029296875 156.94900512695312,256.27301025390625"></path></g></g><g style="display: block;" transform="matrix(1,0,0,1,3.503999948501587,0.5400000214576721)" opacity="1"><g opacity="1" transform="matrix(1,0,0,1,0,0)"><path stroke-linecap="round" stroke-linejoin="round" fill-opacity="0" stroke="rgb(0,0,0)" stroke-opacity="1" stroke-width="2" d=" M233.13099670410156,145.7790069580078 C233.13099670410156,145.7790069580078 251.35899353027344,191.5970001220703 242.01100158691406,255.6490020751953 C242.01100158691406,255.6490020751953 259.6159973144531,255.6490020751953 259.6159973144531,255.6490020751953 C259.6159973144531,255.6490020751953 271.1449890136719,191.44200134277344 253.5399932861328,150.4550018310547"></path></g></g><g style="display: block;" transform="matrix(1,0,0,1,3.503999948501587,0.5400000214576721)" opacity="1"><g opacity="1" transform="matrix(1,0,0,1,0,0)"><path stroke-linecap="round" stroke-linejoin="round" fill-opacity="0" stroke="rgb(0,0,0)" stroke-opacity="1" stroke-width="2" d=" M160.37600708007812,235.38999938964844 C160.37600708007812,235.38999938964844 142.4600067138672,236.79200744628906 142.4600067138672,236.79200744628906 C139.656005859375,237.10400390625 137.16299438476562,234.9219970703125 136.8509979248047,232.11700439453125 C136.8509979248047,232.11700439453125 134.98199462890625,208.89599609375 134.98199462890625,208.89599609375 C134.6699981689453,206.09100341796875 136.8509979248047,203.59800720214844 139.656005859375,203.28599548339844 C139.656005859375,203.28599548339844 157.57200622558594,201.88299560546875 157.57200622558594,201.88299560546875 C160.37600708007812,201.57200622558594 162.86900329589844,203.7530059814453 163.17999267578125,206.5590057373047 C163.17999267578125,206.5590057373047 165.0500030517578,229.7790069580078 165.0500030517578,229.7790069580078 C165.36099243164062,232.5850067138672 163.33599853515625,235.0780029296875 160.37600708007812,235.38999938964844 C160.37600708007812,235.38999938964844 160.37600708007812,235.38999938964844 160.37600708007812,235.38999938964844z"></path></g></g><g style="display: block;" transform="matrix(1,0,0,1,3.503999948501587,0.5400000214576721)" opacity="1"><g opacity="1" transform="matrix(1,0,0,1,0,0)"><path stroke-linecap="round" stroke-linejoin="round" fill-opacity="0" stroke="rgb(0,0,0)" stroke-opacity="1" stroke-width="2" d=" M309.6260070800781,100.73999786376953 C309.6260070800781,100.73999786376953 343.4330139160156,185.36399841308594 343.4330139160156,185.36399841308594 C343.4330139160156,185.36399841308594 313.5199890136719,176.3249969482422 313.5199890136719,176.3249969482422 C313.5199890136719,176.3249969482422 301.67999267578125,231.49400329589844 301.67999267578125,231.49400329589844 C301.67999267578125,231.49400329589844 331.90399169921875,237.7270050048828 356.67498779296875,236.79200744628906 C381.4460144042969,235.85699462890625 398.5830078125,212.79200744628906 389.5469970703125,185.52000427246094 C380.6669921875,158.2469940185547 334.7080078125,97.31199645996094 332.6830139160156,90.29900360107422 C330.6579895019531,83.28600311279297 326.2950134277344,61.15599822998047 316.32501220703125,59.597999572753906 C306.35400390625,57.882999420166016 289.8399963378906,68.48100280761719 286.4119873046875,75.18199920654297 C284.07598876953125,79.70099639892578 287.9700012207031,84.22100067138672 291.864990234375,83.44200134277344 C291.864990234375,83.44200134277344 289.6839904785156,92.01300048828125 297.1619873046875,94.9739990234375 C297.1619873046875,94.9739990234375 296.22698974609375,100.73999786376953 301.83599853515625,101.98699951171875 C307.4440002441406,103.23400115966797 319.9079895019531,96.53299713134766 319.9079895019531,96.53299713134766"></path></g></g><g style="display: block;" transform="matrix(1,0,0,1,3.503999948501587,0.5400000214576721)" opacity="1"><g opacity="1" transform="matrix(1,0,0,1,0,0)"><path stroke-linecap="round" stroke-linejoin="round" fill-opacity="0" stroke="rgb(0,0,0)" stroke-opacity="1" stroke-width="2" d=" M343.4330139160156,185.20799255371094 C343.4330139160156,185.20799255371094 354.80499267578125,188.79200744628906 354.80499267578125,188.79200744628906"></path></g></g><g style="display: block;" transform="matrix(1,0,0,1,3.503999948501587,0.5400000214576721)" opacity="1"><g opacity="1" transform="matrix(1,0,0,1,0,0)"><path stroke-linecap="round" stroke-linejoin="round" fill-opacity="0" stroke="rgb(0,0,0)" stroke-opacity="1" stroke-width="2" d=" M291.7090148925781,83.28600311279297 C291.7090148925781,83.28600311279297 297.6300048828125,76.74099731445312 304.7959899902344,73.46800231933594"></path></g></g><g style="display: block;" transform="matrix(1,0,0,1,3.503999948501587,0.5400000214576721)" opacity="1"><g opacity="1" transform="matrix(1,0,0,1,0,0)"><path stroke-linecap="round" stroke-linejoin="round" fill-opacity="0" stroke="rgb(0,0,0)" stroke-opacity="1" stroke-width="2" d=" M297.0060119628906,94.66200256347656 C297.0060119628906,94.66200256347656 310.0929870605469,85.93499755859375 310.0929870605469,85.93499755859375"></path></g></g><g style="display: block;" transform="matrix(1,0,0,1,3.503999948501587,0.5400000214576721)" opacity="1"><g opacity="1" transform="matrix(1,0,0,1,0,0)"><path stroke-linecap="round" stroke-linejoin="round" fill-opacity="0" stroke="rgb(0,0,0)" stroke-opacity="1" stroke-width="2" d=" M295.1369934082031,56.32500076293945 C295.1369934082031,56.32500076293945 295.60400390625,46.819000244140625 301.3689880371094,46.50699996948242 C307.13299560546875,46.19499969482422 306.510009765625,52.42900085449219 306.6650085449219,60.53300094604492"></path></g></g><g style="display: block;" transform="matrix(1,0,0,1,3.503999948501587,0.5400000214576721)" opacity="1"><g opacity="1" transform="matrix(1,0,0,1,0,0)"><path stroke-linecap="round" stroke-linejoin="round" fill-opacity="0" stroke="rgb(0,0,0)" stroke-opacity="1" stroke-width="2" d=" M293.8590087890625,53.654998779296875 C293.8590087890625,53.654998779296875 284.9570007324219,58.481998443603516 284.9570007324219,58.481998443603516 C284.9570007324219,58.481998443603516 290.6000061035156,68.8949966430664 290.6000061035156,68.8949966430664 C290.6000061035156,68.8949966430664 299.50201416015625,64.06700134277344 299.50201416015625,64.06700134277344 C299.50201416015625,64.06700134277344 293.8590087890625,53.654998779296875 293.8590087890625,53.654998779296875 C293.8590087890625,53.654998779296875 293.8590087890625,53.654998779296875 293.8590087890625,53.654998779296875z"></path></g></g><g style="display: block;" transform="matrix(1,0,0,1,3.503999948501587,0.5400000214576721)" opacity="1"><g opacity="1" transform="matrix(1,0,0,1,0,0)"><path stroke-linecap="round" stroke-linejoin="round" fill-opacity="0" stroke="rgb(0,0,0)" stroke-opacity="1" stroke-width="2" d=" M277.5320129394531,54.61000061035156 C277.5320129394531,54.61000061035156 284.85400390625,58.50600051879883 284.85400390625,58.50600051879883 C284.85400390625,58.50600051879883 293.7349853515625,53.67499923706055 293.7349853515625,53.67499923706055 C293.7349853515625,53.67499923706055 294.5140075683594,45.41600036621094 294.5140075683594,45.41600036621094"></path></g></g><g style="display: block;" transform="matrix(1,0,0,1,3.503999948501587,0.5400000214576721)" opacity="1"><g opacity="1" transform="matrix(1,0,0,1,0,0)"><path stroke-linecap="round" stroke-linejoin="round" fill-opacity="0" stroke="rgb(0,0,0)" stroke-opacity="1" stroke-width="2" d=" M274.1050109863281,54.922000885009766 C288.989990234375,54.922000885009766 301.0570068359375,42.85100173950195 301.0570068359375,27.961000442504883 C301.0570068359375,13.071000099182129 288.989990234375,1 274.1050109863281,1 C259.2200012207031,1 247.1529998779297,13.071000099182129 247.1529998779297,27.961000442504883 C247.1529998779297,42.85100173950195 259.2200012207031,54.922000885009766 274.1050109863281,54.922000885009766 C274.1050109863281,54.922000885009766 274.1050109863281,54.922000885009766 274.1050109863281,54.922000885009766z"></path></g></g><g style="display: block;" transform="matrix(1,0,0,1,3.503999948501587,0.5400000214576721)" opacity="1"><g opacity="1" transform="matrix(1,0,0,1,0,0)"><path stroke-linecap="round" stroke-linejoin="round" fill-opacity="0" stroke="rgb(0,0,0)" stroke-opacity="1" stroke-width="2" d=" M276.59698486328125,7.85699987411499 C282.8290100097656,8.63599967956543 288.593994140625,12.376999855041504 291.7090148925781,18.298999786376953"></path></g></g><g style="display: block;" transform="matrix(1,0,0,1,3.503999948501587,0.5400000214576721)" opacity="1"><g opacity="1" transform="matrix(1,0,0,1,0,0)"><path stroke-linecap="round" stroke-linejoin="round" fill-opacity="0" stroke="rgb(0,0,0)" stroke-opacity="1" stroke-width="2" d=" M264.4460144042969,10.194999694824219 C266.47100830078125,9.104000091552734 268.4960021972656,8.480999946594238 270.5220031738281,8.012999534606934"></path></g></g><g style="display: block;" transform="matrix(1,0,0,1,3.503999948501587,0.5400000214576721)" opacity="1"><g opacity="1" transform="matrix(1,0,0,1,0,0)"><path stroke-linecap="round" stroke-linejoin="round" fill-opacity="0" stroke="rgb(0,0,0)" stroke-opacity="1" stroke-width="2" d=" M141.05799865722656,145.156005859375 C141.05799865722656,145.156005859375 162.5570068359375,167.90899658203125 195.1179962158203,164.3249969482422 C225.6529998779297,161.052001953125 230.01499938964844,145.156005859375 230.01499938964844,145.156005859375"></path></g></g><g style="display: block;" transform="matrix(1,0,0,1,3.503999948501587,0.5400000214576721)" opacity="1"><g opacity="1" transform="matrix(1,0,0,1,0,0)"><path stroke-linecap="round" stroke-linejoin="round" fill-opacity="0" stroke="rgb(0,0,0)" stroke-opacity="1" stroke-width="2" d=" M160.84300231933594,128.01300048828125 C160.84300231933594,128.01300048828125 81.38899993896484,128.01300048828125 81.38899993896484,128.01300048828125 C70.48400115966797,128.01300048828125 61.75899887084961,136.74000549316406 61.75899887084961,147.6490020751953 C61.75899887084961,147.6490020751953 61.75899887084961,215.90899658203125 61.75899887084961,215.90899658203125"></path></g></g><g style="display: block;" transform="matrix(1,0,0,1,3.503999948501587,0.5400000214576721)" opacity="1"><g opacity="1" transform="matrix(1,0,0,1,0,0)"><path stroke-linecap="round" stroke-linejoin="round" fill-opacity="0" stroke="rgb(0,0,0)" stroke-opacity="1" stroke-width="2" d=" M61.75899887084961,215.90899658203125 C61.75899887084961,215.90899658203125 61.75899887084961,147.6490020751953 61.75899887084961,147.6490020751953 C61.75899887084961,136.74000549316406 70.48400115966797,128.01300048828125 81.38899993896484,128.01300048828125 C92.29499816894531,128.01300048828125 101.01899719238281,136.74000549316406 101.01899719238281,147.6490020751953 C101.01899719238281,147.6490020751953 101.01899719238281,168.06500244140625 101.01899719238281,168.06500244140625"></path></g></g><g style="display: block;" transform="matrix(0.9994081258773804,0,0,0.9994081258773804,4.5596771240234375,14.527656555175781)" opacity="1"><g opacity="1" transform="matrix(1,0,0,1,-1,-13.932000160217285)"><path fill="rgb(0,0,0)" fill-opacity="1" d=" M15.956000328063965,86.24700164794922 C15.956000328063965,86.24700164794922 73.91100311279297,86.24700164794922 73.91100311279297,86.24700164794922 C73.91100311279297,86.24700164794922 94.78700256347656,106.35099792480469 94.78700256347656,106.35099792480469 C94.78700256347656,106.35099792480469 94.78700256347656,28.895999908447266 94.78700256347656,28.895999908447266 C94.78700256347656,20.63599967956543 88.08799743652344,13.9350004196167 79.83100128173828,13.9350004196167 C79.83100128173828,13.9350004196167 15.956000328063965,13.9350004196167 15.956000328063965,13.9350004196167 C7.698999881744385,13.779000282287598 1,20.63599967956543 1,28.895999908447266 C1,28.895999908447266 1,71.12999725341797 1,71.12999725341797 C1,79.38999938964844 7.698999881744385,86.24700164794922 15.956000328063965,86.24700164794922 C15.956000328063965,86.24700164794922 15.956000328063965,86.24700164794922 15.956000328063965,86.24700164794922z"></path><path stroke-linecap="round" stroke-linejoin="round" fill-opacity="0" stroke="rgb(0,0,0)" stroke-opacity="1" stroke-width="2" d=" M15.956000328063965,86.24700164794922 C15.956000328063965,86.24700164794922 73.91100311279297,86.24700164794922 73.91100311279297,86.24700164794922 C73.91100311279297,86.24700164794922 94.78700256347656,106.35099792480469 94.78700256347656,106.35099792480469 C94.78700256347656,106.35099792480469 94.78700256347656,28.895999908447266 94.78700256347656,28.895999908447266 C94.78700256347656,20.63599967956543 88.08799743652344,13.9350004196167 79.83100128173828,13.9350004196167 C79.83100128173828,13.9350004196167 15.956000328063965,13.9350004196167 15.956000328063965,13.9350004196167 C7.698999881744385,13.779000282287598 1,20.63599967956543 1,28.895999908447266 C1,28.895999908447266 1,71.12999725341797 1,71.12999725341797 C1,79.38999938964844 7.698999881744385,86.24700164794922 15.956000328063965,86.24700164794922 C15.956000328063965,86.24700164794922 15.956000328063965,86.24700164794922 15.956000328063965,86.24700164794922z"></path></g><g opacity="1" transform="matrix(1,0,0,1,-1,-13.932000160217285)"><path stroke-linecap="round" stroke-linejoin="round" fill-opacity="0" stroke="rgb(255,255,255)" stroke-opacity="1" stroke-width="2" d=" M33.87200164794922,40.117000579833984 C33.87200164794922,32.47999954223633 40.57099914550781,26.402999877929688 48.361000061035156,27.18199920654297 C54.28099822998047,27.80500030517578 59.111000061035156,32.63600158691406 59.73400115966797,38.55799865722656 C60.51300048828125,45.415000915527344 55.84000015258789,51.49300003051758 49.45199966430664,52.7400016784668 C47.89400100708008,53.051998138427734 46.803001403808594,54.29899978637695 46.803001403808594,55.856998443603516 C46.803001403808594,55.856998443603516 46.803001403808594,60.84400177001953 46.803001403808594,60.84400177001953"></path></g><g opacity="1" transform="matrix(1,0,0,1,-1,-13.932000160217285)"><path stroke-linecap="round" stroke-linejoin="round" fill-opacity="0" stroke="rgb(255,255,255)" stroke-opacity="1" stroke-width="2" d=" M46.803001403808594,73 C48.35200119018555,73 49.606998443603516,71.74400329589844 49.606998443603516,70.19499969482422 C49.606998443603516,68.6449966430664 48.35200119018555,67.38899993896484 46.803001403808594,67.38899993896484 C45.25400161743164,67.38899993896484 43.999000549316406,68.64600372314453 43.999000549316406,70.19499969482422 C43.999000549316406,71.74400329589844 45.25400161743164,73 46.803001403808594,73 C46.803001403808594,73 46.803001403808594,73 46.803001403808594,73z"></path></g></g><g style="display: block;" mask="url(#__lottie_element_126)"><g transform="matrix(1,0,0,1,197.239990234375,164.9530029296875)" opacity="1"><g opacity="1" transform="matrix(1,0,0,1,0,0)"><g opacity="1" transform="matrix(1,0,0,1,-193.73599243164062,-164.41400146484375)"><path fill="rgb(0,0,0)" fill-opacity="1" d=" M208.20399475097656,256.27301025390625 C208.20399475097656,256.27301025390625 275.8190002441406,256.27301025390625 275.8190002441406,256.27301025390625 C280.9599914550781,256.27301025390625 284.8550109863281,253.93499755859375 286.5679931640625,251.28599548339844 C295.447998046875,237.41600036621094 284.85400390625,221.20799255371094 285.1659851074219,212.79200744628906 C285.4779968261719,204.3769989013672 297.3179931640625,169.6230010986328 286.8800048828125,165.7270050048828 C279.4020080566406,163.0780029296875 262.88800048828125,188.947998046875 262.88800048828125,188.947998046875 C262.88800048828125,188.947998046875 240.45399475097656,186.9219970703125 227.99000549316406,188.947998046875 C220.3560028076172,174.76600646972656 205.39999389648438,162.61000061035156 199.32400512695312,164.63600158691406 C190.75599670410156,167.28599548339844 199.63600158691406,197.6750030517578 200.7259979248047,202.66200256347656 C202.44000244140625,210.2989959716797 192.468994140625,225.5709991455078 193.8719940185547,242.4029998779297 C194.33900451660156,249.4149932861328 196.67599487304688,256.89599609375 208.20399475097656,256.27301025390625 C208.20399475097656,256.27301025390625 208.20399475097656,256.27301025390625 208.20399475097656,256.27301025390625z"></path></g><g opacity="1" transform="matrix(1,0,0,1,-193.73599243164062,-164.41400146484375)"><path fill="rgb(255,255,255)" fill-opacity="1" d=" M217.552001953125,183.33799743652344 C214.9040069580078,177.10400390625 210.07400512695312,171.96099853515625 203.9980010986328,169 C202.12899780273438,168.06500244140625 199.47999572753906,167.44200134277344 197.9219970703125,168.843994140625 C196.67599487304688,170.09100341796875 196.52000427246094,171.96099853515625 196.67599487304688,173.83099365234375 C197.14300537109375,180.3769989013672 198.0780029296875,186.9219970703125 199.63600158691406,193.31199645996094 C200.5709991455078,196.74000549316406 201.81700134277344,200.47999572753906 204.77699279785156,202.3509979248047 C207.58099365234375,204.2209930419922 218.79800415039062,196.74000549316406 219.26600646972656,193.31199645996094 C219.57699584960938,189.88299560546875 218.79800415039062,186.4550018310547 217.552001953125,183.33799743652344 C217.552001953125,183.33799743652344 217.552001953125,183.33799743652344 217.552001953125,183.33799743652344z"></path></g><g opacity="1" transform="matrix(1,0,0,1,-193.73599243164062,-164.41400146484375)"><path fill="rgb(255,255,255)" fill-opacity="1" d=" M269.5870056152344,193.7790069580078 C268.18499755859375,185.98699951171875 273.7929992675781,180.68800354003906 278.1549987792969,174.9219970703125 C280.3370056152344,171.96099853515625 285.78900146484375,166.8179931640625 287.50299072265625,168.68800354003906 C289.37298583984375,170.40199279785156 290.1520080566406,173.98699951171875 289.37298583984375,183.80499267578125 C289.0610046386719,188.947998046875 287.65899658203125,193.93499755859375 286.4119873046875,198.9219970703125 C285.94500732421875,201.10400390625 285.1659851074219,203.4409942626953 283.4519958496094,204.68800354003906 C281.739013671875,206.09100341796875 270.3659973144531,198.45399475097656 269.5870056152344,193.7790069580078 C269.5870056152344,193.7790069580078 269.5870056152344,193.7790069580078 269.5870056152344,193.7790069580078z"></path></g><g opacity="1" transform="matrix(1,0,0,1,-193.73599243164062,-164.41400146484375)"><path fill-rule="evenodd" fill="rgb(255,255,255)" fill-opacity="1" d=" M251.67100524902344,250.19500732421875 C247.7760009765625,250.50599670410156 244.1929931640625,247.85699462890625 240.29800415039062,248.3249969482422 C238.11700439453125,248.63600158691406 236.09100341796875,249.88299560546875 234.0659942626953,250.5070037841797 C230.01499938964844,251.7530059814453 225.18600463867188,250.50599670410156 222.3820037841797,247.23399353027344 C219.73300170898438,243.96099853515625 219.57699584960938,238.66200256347656 222.3820037841797,235.38999938964844 C224.71800231933594,232.58399963378906 228.45700073242188,231.6490020751953 232.04100036621094,231.1820068359375 C235.77999877929688,230.55799865722656 239.6750030517578,230.4029998779297 243.41400146484375,230.4029998779297 C248.3990020751953,230.4029998779297 253.5399932861328,231.1820068359375 257.74700927734375,233.83099365234375 C259.3039855957031,234.76600646972656 260.5509948730469,236.16900634765625 261.4859924316406,237.7270050048828 C262.2640075683594,239.28599548339844 262.57598876953125,241.31199645996094 262.1090087890625,243.0260009765625 C261.4859924316406,244.89599609375 259.7720031738281,246.2989959716797 258.2139892578125,247.38999938964844 C256.1889953613281,248.79200744628906 254.0070037841797,250.03900146484375 251.67100524902344,250.19500732421875 C251.67100524902344,250.19500732421875 251.67100524902344,250.19500732421875 251.67100524902344,250.19500732421875z"></path></g><g opacity="1" transform="matrix(1,0,0,1,-193.73599243164062,-164.41400146484375)"><path fill="rgb(0,0,0)" fill-opacity="1" d=" M243.88099670410156,240.3769989013672 C242.63499450683594,241.31199645996094 241.07699584960938,241.31199645996094 239.8300018310547,240.3769989013672 C237.4929962158203,238.50599670410156 234.0659942626953,235.38900756835938 235.15699768066406,233.36399841308594 C236.71499633789062,230.40199279785156 249.80099487304688,230.71400451660156 248.86599731445312,234.2989959716797 C248.3990020751953,236.47999572753906 245.75,238.9739990234375 243.88099670410156,240.3769989013672 C243.88099670410156,240.3769989013672 243.88099670410156,240.3769989013672 243.88099670410156,240.3769989013672z"></path></g><g opacity="1" transform="matrix(1,0,0,1,-193.73599243164062,-164.41400146484375)"><path fill-rule="evenodd" fill="rgb(255,255,255)" fill-opacity="1" d=" M247.7760009765625,253.156005859375 C247.7760009765625,253.7790069580078 246.9969940185547,254.09100341796875 246.5290069580078,254.4029998779297 C243.88099670410156,255.33799743652344 240.92100524902344,254.71400451660156 238.27200317382812,254.09100341796875 C237.4929962158203,253.93499755859375 236.4029998779297,253.6230010986328 236.2469940185547,252.68800354003906 C236.09100341796875,252.06500244140625 236.5590057373047,251.5970001220703 237.0260009765625,251.28599548339844 C237.4929962158203,250.9739990234375 238.11700439453125,250.8179931640625 238.58399963378906,250.66200256347656 C240.14199829101562,250.3509979248047 241.54400634765625,250.03900146484375 243.1020050048828,250.19500732421875 C244.66000366210938,250.3509979248047 246.21800231933594,250.8179931640625 247.30799865722656,251.90899658203125 C247.46400451660156,252.3769989013672 247.7760009765625,252.68800354003906 247.7760009765625,253.156005859375 C247.7760009765625,253.156005859375 247.7760009765625,253.156005859375 247.7760009765625,253.156005859375z"></path></g><g opacity="1" transform="matrix(1,0,0,1,-193.73599243164062,-164.41400146484375)"><path stroke-linecap="round" stroke-linejoin="round" fill-opacity="0" stroke="rgb(255,255,255)" stroke-opacity="1" stroke-width="1" d=" M255.25399780273438,236.63600158691406 C255.25399780273438,236.63600158691406 265.3800048828125,230.4029998779297 276.75299072265625,236.63600158691406"></path></g><g opacity="1" transform="matrix(1,0,0,1,-193.73599243164062,-164.41400146484375)"><path stroke-linecap="round" stroke-linejoin="round" fill-opacity="0" stroke="rgb(255,255,255)" stroke-opacity="1" stroke-width="1" d=" M255.8769989013672,240.5330047607422 C255.8769989013672,240.5330047607422 268.4960021972656,236.4810028076172 275.8190002441406,245.6750030517578"></path></g><g opacity="1" transform="matrix(1,0,0,1,-193.73599243164062,-164.41400146484375)"><path stroke-linecap="round" stroke-linejoin="round" fill-opacity="0" stroke="rgb(255,255,255)" stroke-opacity="1" stroke-width="1" d=" M255.25399780273438,245.052001953125 C255.25399780273438,245.052001953125 263.8219909667969,243.0260009765625 268.18499755859375,249.7270050048828"></path></g><g opacity="1" transform="matrix(1,0,0,1,-193.73599243164062,-164.41400146484375)"><path stroke-linecap="round" stroke-linejoin="round" fill-opacity="0" stroke="rgb(255,255,255)" stroke-opacity="1" stroke-width="1" d=" M228.302001953125,236.63600158691406 C228.302001953125,236.63600158691406 220.3560028076172,229.7790069580078 208.0489959716797,233.6750030517578"></path></g><g opacity="1" transform="matrix(1,0,0,1,-193.73599243164062,-164.41400146484375)"><path stroke-linecap="round" stroke-linejoin="round" fill-opacity="0" stroke="rgb(255,255,255)" stroke-opacity="1" stroke-width="1" d=" M228.302001953125,241.93499755859375 C228.302001953125,241.93499755859375 217.70799255371094,235.23399353027344 205.71200561523438,242.55799865722656"></path></g><g opacity="1" transform="matrix(1,0,0,1,-193.73599243164062,-164.41400146484375)"><path stroke-linecap="round" stroke-linejoin="round" fill-opacity="0" stroke="rgb(255,255,255)" stroke-opacity="1" stroke-width="1" d=" M214.27999877929688,250.19500732421875 C214.27999877929688,250.19500732421875 219.4219970703125,243.33799743652344 229.23599243164062,246.61000061035156"></path></g><g opacity="1" transform="matrix(1,0,0,1,-193.73599243164062,-164.41400146484375)"><path fill="rgb(255,255,255)" fill-opacity="1" d=" M225.6529998779297,225.4149932861328 C229.7830047607422,225.4149932861328 233.13099670410156,222.0659942626953 233.13099670410156,217.93499755859375 C233.13099670410156,213.80299377441406 229.7830047607422,210.45399475097656 225.6529998779297,210.45399475097656 C221.5229949951172,210.45399475097656 218.1750030517578,213.80299377441406 218.1750030517578,217.93499755859375 C218.1750030517578,222.0659942626953 221.5229949951172,225.4149932861328 225.6529998779297,225.4149932861328 C225.6529998779297,225.4149932861328 225.6529998779297,225.4149932861328 225.6529998779297,225.4149932861328z"></path></g><g opacity="1" transform="matrix(1,0,0,1,-193.73599243164062,-164.41400146484375)"><path fill="rgb(0,0,0)" fill-opacity="1" d=" M225.6529998779297,223.23399353027344 C228.57899475097656,223.23399353027344 230.9499969482422,220.86099243164062 230.9499969482422,217.93499755859375 C230.9499969482422,215.00900268554688 228.57899475097656,212.63600158691406 225.6529998779297,212.63600158691406 C222.72799682617188,212.63600158691406 220.3560028076172,215.00900268554688 220.3560028076172,217.93499755859375 C220.3560028076172,220.86099243164062 222.72799682617188,223.23399353027344 225.6529998779297,223.23399353027344 C225.6529998779297,223.23399353027344 225.6529998779297,223.23399353027344 225.6529998779297,223.23399353027344z"></path></g><g opacity="1" transform="matrix(1,0,0,1,-193.73599243164062,-164.41400146484375)"><path fill="rgb(255,255,255)" fill-opacity="1" d=" M227.21099853515625,217.4669952392578 C228.07200622558594,217.4669952392578 228.7689971923828,216.7689971923828 228.7689971923828,215.90899658203125 C228.7689971923828,215.04800415039062 228.07200622558594,214.35000610351562 227.21099853515625,214.35000610351562 C226.3509979248047,214.35000610351562 225.6529998779297,215.04800415039062 225.6529998779297,215.90899658203125 C225.6529998779297,216.7689971923828 226.3509979248047,217.4669952392578 227.21099853515625,217.4669952392578 C227.21099853515625,217.4669952392578 227.21099853515625,217.4669952392578 227.21099853515625,217.4669952392578z"></path></g><g opacity="1" transform="matrix(1,0,0,1,-193.73599243164062,-164.41400146484375)"><path fill="rgb(255,255,255)" fill-opacity="1" d=" M259.6159973144531,225.4149932861328 C263.7460021972656,225.4149932861328 267.093994140625,222.0659942626953 267.093994140625,217.93499755859375 C267.093994140625,213.80299377441406 263.7460021972656,210.45399475097656 259.6159973144531,210.45399475097656 C255.48599243164062,210.45399475097656 252.13800048828125,213.80299377441406 252.13800048828125,217.93499755859375 C252.13800048828125,222.0659942626953 255.48599243164062,225.4149932861328 259.6159973144531,225.4149932861328 C259.6159973144531,225.4149932861328 259.6159973144531,225.4149932861328 259.6159973144531,225.4149932861328z"></path></g><g opacity="1" transform="matrix(1,0,0,1,-193.73599243164062,-164.41400146484375)"><path fill="rgb(0,0,0)" fill-opacity="1" d=" M259.6159973144531,223.23399353027344 C262.5409851074219,223.23399353027344 264.9129943847656,220.86099243164062 264.9129943847656,217.93499755859375 C264.9129943847656,215.00900268554688 262.5409851074219,212.63600158691406 259.6159973144531,212.63600158691406 C256.6910095214844,212.63600158691406 254.31900024414062,215.00900268554688 254.31900024414062,217.93499755859375 C254.31900024414062,220.86099243164062 256.6910095214844,223.23399353027344 259.6159973144531,223.23399353027344 C259.6159973144531,223.23399353027344 259.6159973144531,223.23399353027344 259.6159973144531,223.23399353027344z"></path></g><g opacity="1" transform="matrix(1,0,0,1,-193.73599243164062,-164.41400146484375)"><path fill="rgb(255,255,255)" fill-opacity="1" d=" M261.17401123046875,217.4669952392578 C262.03399658203125,217.4669952392578 262.73199462890625,216.7689971923828 262.73199462890625,215.90899658203125 C262.73199462890625,215.04800415039062 262.03399658203125,214.35000610351562 261.17401123046875,214.35000610351562 C260.3139953613281,214.35000610351562 259.6159973144531,215.04800415039062 259.6159973144531,215.90899658203125 C259.6159973144531,216.7689971923828 260.3139953613281,217.4669952392578 261.17401123046875,217.4669952392578 C261.17401123046875,217.4669952392578 261.17401123046875,217.4669952392578 261.17401123046875,217.4669952392578z"></path></g></g></g></g><g style="display: block;" transform="matrix(1,0,0,1,295.6809997558594,244.64901733398438)" opacity="1"><g opacity="1" transform="matrix(1,0,0,1,-292.177001953125,-244.10899353027344)"><path fill="rgb(255,255,255)" fill-opacity="1" d=" M292.177001953125,256.27301025390625 C292.177001953125,256.27301025390625 296.22698974609375,240.843994140625 312.7409973144531,244.74000549316406 C329.2550048828125,248.63600158691406 329.8789978027344,265.31201171875 322.5559997558594,265.31201171875 C322.5559997558594,265.31201171875 318.0379943847656,269.3630065917969 313.9880065917969,265.93499755859375 C313.9880065917969,265.93499755859375 309.781005859375,269.3630065917969 306.8210144042969,265.77899169921875 C303.54998779296875,262.3500061035156 298.25299072265625,254.2469940185547 292.177001953125,256.27301025390625 C292.177001953125,256.27301025390625 292.177001953125,256.27301025390625 292.177001953125,256.27301025390625z"></path><path stroke-linecap="round" stroke-linejoin="round" fill-opacity="0" stroke="rgb(0,0,0)" stroke-opacity="1" stroke-width="2" d=" M292.177001953125,256.27301025390625 C292.177001953125,256.27301025390625 296.22698974609375,240.843994140625 312.7409973144531,244.74000549316406 C329.2550048828125,248.63600158691406 329.8789978027344,265.31201171875 322.5559997558594,265.31201171875 C322.5559997558594,265.31201171875 318.0379943847656,269.3630065917969 313.9880065917969,265.93499755859375 C313.9880065917969,265.93499755859375 309.781005859375,269.3630065917969 306.8210144042969,265.77899169921875 C303.54998779296875,262.3500061035156 298.25299072265625,254.2469940185547 292.177001953125,256.27301025390625 C292.177001953125,256.27301025390625 292.177001953125,256.27301025390625 292.177001953125,256.27301025390625z"></path></g><g opacity="1" transform="matrix(1,0,0,1,-292.177001953125,-244.10899353027344)"><path stroke-linecap="round" stroke-linejoin="round" fill-opacity="0" stroke="rgb(0,0,0)" stroke-opacity="1" stroke-width="2" d=" M322.4010009765625,265.3110046386719 C322.4010009765625,265.3110046386719 322.7120056152344,261.10400390625 320.8429870605469,258.4540100097656"></path></g><g opacity="1" transform="matrix(1,0,0,1,-292.177001953125,-244.10899353027344)"><path stroke-linecap="round" stroke-linejoin="round" fill-opacity="0" stroke="rgb(0,0,0)" stroke-opacity="1" stroke-width="2" d=" M314.29901123046875,266.5580139160156 C314.29901123046875,266.5580139160156 314.6109924316406,262.35101318359375 312.7409973144531,259.70098876953125"></path></g></g><g style="display: block;" transform="matrix(1,0,0,1,179.77101135253906,245.11700439453125)" opacity="1"><g opacity="1" transform="matrix(1,0,0,1,-176.26699829101562,-244.57699584960938)"><path fill="rgb(255,255,255)" fill-opacity="1" d=" M175.9239959716797,256.1470031738281 C175.9239959716797,256.1470031738281 180.3179931640625,241.31100463867188 196.83200073242188,245.20799255371094 C213.3459930419922,249.10400390625 213.968994140625,265.77899169921875 206.64599609375,265.77899169921875 C206.64599609375,265.77899169921875 202.12899780273438,269.83099365234375 198.0780029296875,266.4020080566406 C198.0780029296875,266.4020080566406 193.87100219726562,269.83099365234375 190.91099548339844,266.24700927734375 C187.9510040283203,262.6619873046875 182.10800170898438,255.1020050048828 175.9239959716797,256.1470031738281 C175.9239959716797,256.1470031738281 175.9239959716797,256.1470031738281 175.9239959716797,256.1470031738281z"></path><path stroke-linecap="round" stroke-linejoin="round" fill-opacity="0" stroke="rgb(0,0,0)" stroke-opacity="1" stroke-width="2" d=" M175.9239959716797,256.1470031738281 C175.9239959716797,256.1470031738281 180.3179931640625,241.31100463867188 196.83200073242188,245.20799255371094 C213.3459930419922,249.10400390625 213.968994140625,265.77899169921875 206.64599609375,265.77899169921875 C206.64599609375,265.77899169921875 202.12899780273438,269.83099365234375 198.0780029296875,266.4020080566406 C198.0780029296875,266.4020080566406 193.87100219726562,269.83099365234375 190.91099548339844,266.24700927734375 C187.9510040283203,262.6619873046875 182.10800170898438,255.1020050048828 175.9239959716797,256.1470031738281 C175.9239959716797,256.1470031738281 175.9239959716797,256.1470031738281 175.9239959716797,256.1470031738281z"></path></g><g opacity="1" transform="matrix(1,0,0,1,-176.26699829101562,-244.57699584960938)"><path stroke-linecap="round" stroke-linejoin="round" fill-opacity="0" stroke="rgb(0,0,0)" stroke-opacity="1" stroke-width="2" d=" M206.49099731445312,265.77899169921875 C206.49099731445312,265.77899169921875 206.802001953125,261.5710144042969 204.93299865722656,258.9219970703125"></path></g><g opacity="1" transform="matrix(1,0,0,1,-176.26699829101562,-244.57699584960938)"><path stroke-linecap="round" stroke-linejoin="round" fill-opacity="0" stroke="rgb(0,0,0)" stroke-opacity="1" stroke-width="2" d=" M198.38900756835938,267.0260009765625 C198.38900756835938,267.0260009765625 198.7010040283203,262.8179931640625 196.83200073242188,260.16900634765625"></path></g></g><g style="display: block;" transform="matrix(1,0,0,1,3.503999948501587,0.5400000214576721)" opacity="1"><g opacity="1" transform="matrix(1,0,0,1,0,0)"><path fill="rgb(0,0,0)" fill-opacity="1" d=" M219.73300170898438,72.68800354003906 C221.28199768066406,72.68800354003906 222.53700256347656,71.43199920654297 222.53700256347656,69.88300323486328 C222.53700256347656,68.33399963378906 221.28199768066406,67.0780029296875 219.73300170898438,67.0780029296875 C218.1840057373047,67.0780029296875 216.9290008544922,68.33399963378906 216.9290008544922,69.88300323486328 C216.9290008544922,71.43199920654297 218.1840057373047,72.68800354003906 219.73300170898438,72.68800354003906 C219.73300170898438,72.68800354003906 219.73300170898438,72.68800354003906 219.73300170898438,72.68800354003906z"></path></g></g><g style="display: block;" transform="matrix(1,0,0,1,3.503999948501587,0.5400000214576721)" opacity="1"><g opacity="1" transform="matrix(1,0,0,1,0,0)"><path stroke-linecap="round" stroke-linejoin="round" fill-opacity="0" stroke="rgb(0,0,0)" stroke-opacity="1" stroke-width="2" d=" M191.8459930419922,80.01300048828125 C191.8459930419922,80.01300048828125 199.32400512695312,82.03900146484375 199.32400512695312,75.18199920654297"></path></g></g><g style="display: block;" transform="matrix(1,0,0,1,3.503999948501587,0.5400000214576721)" opacity="1"><g opacity="1" transform="matrix(1,0,0,1,0,0)"><path stroke-linecap="round" stroke-linejoin="round" fill-opacity="0" stroke="rgb(0,0,0)" stroke-opacity="1" stroke-width="2" d=" M178.29200744628906,67.0780029296875 C178.29200744628906,67.0780029296875 178.447998046875,60.6879997253418 185.77000427246094,60.064998626708984"></path></g></g><g style="display: block;" transform="matrix(1,0,0,1,3.503999948501587,0.5400000214576721)" opacity="1"><g opacity="1" transform="matrix(1,0,0,1,0,0)"><path stroke-linecap="round" stroke-linejoin="round" fill-opacity="0" stroke="rgb(0,0,0)" stroke-opacity="1" stroke-width="2" d=" M213.81300354003906,75.33799743652344 C213.81300354003906,75.33799743652344 218.33099365234375,80.16899871826172 220.97900390625,82.03900146484375 C223.6280059814453,83.90899658203125 222.07000732421875,88.27300262451172 219.73300170898438,89.98699951171875"></path></g></g><g style="display: block;" transform="matrix(1,0,0,1,3.503999948501587,0.5400000214576721)" opacity="1"><g opacity="1" transform="matrix(1,0,0,1,0,0)"><path stroke-linecap="round" stroke-linejoin="round" fill-opacity="0" stroke="rgb(0,0,0)" stroke-opacity="1" stroke-width="2" d=" M204.93299865722656,114.76599884033203 C207.60000610351562,114.76599884033203 209.76199340820312,112.60299682617188 209.76199340820312,109.93499755859375 C209.76199340820312,107.26699829101562 207.60000610351562,105.10399627685547 204.93299865722656,105.10399627685547 C202.26499938964844,105.10399627685547 200.10299682617188,107.26699829101562 200.10299682617188,109.93499755859375 C200.10299682617188,112.60299682617188 202.26499938964844,114.76599884033203 204.93299865722656,114.76599884033203 C204.93299865722656,114.76599884033203 204.93299865722656,114.76599884033203 204.93299865722656,114.76599884033203z"></path></g></g><g style="display: block;" transform="matrix(1,0,0,1,3.503999948501587,0.5400000214576721)" opacity="1"><g opacity="1" transform="matrix(1,0,0,1,0,0)"><path stroke-linecap="round" stroke-linejoin="round" fill-opacity="0" stroke="rgb(0,0,0)" stroke-opacity="1" stroke-width="2" d=" M233.5989990234375,67.0780029296875 C233.5989990234375,67.0780029296875 237.33799743652344,78.9219970703125 232.66400146484375,86.71399688720703"></path></g></g></g></svg>