<svg xmlns="http://www.w3.org/2000/svg" viewBox="0 0 400 300" width="400" height="300" style="width: 100%; height: 100%; transform: translate3d(0px, 0px, 0px);" preserveAspectRatio="xMidYMid meet"><defs><clipPath id="__lottie_element_259"><rect width="400" height="300" x="0" y="0"></rect></clipPath><mask id="__lottie_element_263" mask-type="alpha"><g id="ClipPath-1" style="display: block;" transform="matrix(1,0,0,1,97.52900695800781,1)" opacity="1"><g opacity="1" transform="matrix(1,0,0,1,-111.15200805664062,-1)"><path fill="rgb(255,255,255)" fill-opacity="1" d=" M501.26751708984375,0 C501.26751708984375,0 501.26751708984375,300 501.26751708984375,300 C501.26751708984375,300 0.0005035400390625,300 0.0005035400390625,300 C0.0005035400390625,300 0.0005035400390625,0 0.0005035400390625,0 C0.0005035400390625,0 501.26751708984375,0 501.26751708984375,0z"></path></g></g></mask></defs><g clip-path="url(#__lottie_element_259)"><g style="display: block;" mask="url(#__lottie_element_263)"><g transform="matrix(1,0,0,1,97.52900695800781,1)" opacity="1"><g opacity="1" transform="matrix(1,0,0,1,0,8.697998046875)"><g opacity="1" transform="matrix(1,0,0,1,-1,-1)"><path stroke-linecap="round" stroke-linejoin="round" fill-opacity="0" stroke="rgb(0,0,0)" stroke-opacity="1" stroke-width="2" d=" M170.7689971923828,99.8290023803711 C170.7689971923828,99.8290023803711 188.177001953125,129.93299865722656 188.177001953125,129.93299865722656 C191.18699645996094,135.16799926757812 189.35499572753906,141.9739990234375 184.11900329589844,145.11500549316406 C184.11900329589844,145.11500549316406 88.83499908447266,200.08700561523438 88.83499908447266,200.08700561523438 C83.5989990234375,203.09800720214844 76.79299926757812,201.26499938964844 73.6520004272461,196.02999877929688 C73.6520004272461,196.02999877929688 2.450000047683716,72.6050033569336 2.450000047683716,72.6050033569336 C-0.5600000023841858,67.36900329589844 1.2719999551773071,60.5629997253418 6.506999969482422,57.422000885009766 C6.506999969482422,57.422000885009766 101.79199981689453,2.450000047683716 101.79199981689453,2.450000047683716 C107.02799987792969,-0.5600000023841858 113.83399963378906,1.2719999551773071 116.9749984741211,6.506999969482422 C116.9749984741211,6.506999969482422 155.7169952392578,73.52100372314453 155.7169952392578,73.52100372314453"></path></g><g opacity="1" transform="matrix(1,0,0,1,-1,-1)"><path stroke-linecap="round" stroke-linejoin="round" fill-opacity="0" stroke="rgb(0,0,0)" stroke-opacity="1" stroke-width="2" d=" M60.694000244140625,173.51699829101562 C60.694000244140625,173.51699829101562 73.78299713134766,196.02999877929688 73.78299713134766,196.02999877929688 C76.79299926757812,201.26499938964844 83.5989990234375,203.09800720214844 88.96499633789062,200.08700561523438 C88.96499633789062,200.08700561523438 184.25,145.11500549316406 184.25,145.11500549316406 C189.48500061035156,142.10499572753906 191.3179931640625,135.2989959716797 188.3070068359375,129.93299865722656 C188.3070068359375,129.93299865722656 175.218994140625,107.41999816894531 175.218994140625,107.41999816894531 C175.218994140625,107.41999816894531 60.694000244140625,173.51699829101562 60.694000244140625,173.51699829101562 C60.694000244140625,173.51699829101562 60.694000244140625,173.51699829101562 60.694000244140625,173.51699829101562z"></path></g><g opacity="1" transform="matrix(1,0,0,1,-1,-1)"><path stroke-linecap="round" stroke-linejoin="round" fill-opacity="0" stroke="rgb(0,0,0)" stroke-opacity="1" stroke-width="2" d=" M87.65699768066406,189.09300231933594 C93.00599670410156,189.09300231933594 97.34200286865234,184.75599670410156 97.34200286865234,179.40699768066406 C97.34200286865234,174.05799865722656 93.00599670410156,169.7220001220703 87.65699768066406,169.7220001220703 C82.30699920654297,169.7220001220703 77.97100067138672,174.05799865722656 77.97100067138672,179.40699768066406 C77.97100067138672,184.75599670410156 82.30799865722656,189.09300231933594 87.65699768066406,189.09300231933594 C87.65699768066406,189.09300231933594 87.65699768066406,189.09300231933594 87.65699768066406,189.09300231933594z"></path></g><g opacity="1" transform="matrix(1,0,0,1,-1,-1)"><path stroke-linecap="round" stroke-linejoin="round" fill-opacity="0" stroke="rgb(0,0,0)" stroke-opacity="1" stroke-width="2" d=" M87.13300323486328,182.5489959716797 C89.3740005493164,182.5489959716797 91.19000244140625,180.73199462890625 91.19000244140625,178.49099731445312 C91.19000244140625,176.25 89.3740005493164,174.4340057373047 87.13300323486328,174.4340057373047 C84.89199829101562,174.4340057373047 83.07499694824219,176.25 83.07499694824219,178.49099731445312 C83.07499694824219,180.73199462890625 84.89199829101562,182.5489959716797 87.13300323486328,182.5489959716797 C87.13300323486328,182.5489959716797 87.13300323486328,182.5489959716797 87.13300323486328,182.5489959716797z"></path></g><g opacity="1" transform="matrix(1,0,0,1,-1,-1)"><path stroke-linecap="round" stroke-linejoin="round" fill-opacity="0" stroke="rgb(0,0,0)" stroke-opacity="1" stroke-width="2" d=" M92.4990005493164,187.78399658203125 C94.8550033569336,186.47500610351562 96.4260025024414,184.25 97.08000183105469,181.76300048828125 C94.59400177001953,180.5850067138672 91.71399688720703,180.71600341796875 89.22699737548828,182.156005859375 C86.73999786376953,183.5959930419922 85.3010025024414,186.08200073242188 85.03900146484375,188.83099365234375 C87.3949966430664,189.35499572753906 90.01200103759766,189.09300231933594 92.4990005493164,187.78399658203125 C92.4990005493164,187.78399658203125 92.4990005493164,187.78399658203125 92.4990005493164,187.78399658203125z"></path></g><g opacity="1" transform="matrix(1,0,0,1,-1,-1)"><path stroke-linecap="round" stroke-linejoin="round" fill-opacity="0" stroke="rgb(0,0,0)" stroke-opacity="1" stroke-width="2" d=" M104.6719970703125,163.83200073242188 C104.6719970703125,163.83200073242188 167.4969940185547,127.5770034790039 167.4969940185547,127.5770034790039"></path></g><g opacity="1" transform="matrix(1,0,0,1,-1,-1)"><path stroke-linecap="round" stroke-linejoin="round" fill-opacity="0" stroke="rgb(0,0,0)" stroke-opacity="1" stroke-width="2" d=" M109.6449966430664,172.47000122070312 C109.6449966430664,172.47000122070312 134.12100219726562,158.3350067138672 134.12100219726562,158.3350067138672"></path></g><g opacity="1" transform="matrix(1,0,0,1,-1,-1)"><path stroke-linecap="round" stroke-linejoin="round" fill-opacity="0" stroke="rgb(0,0,0)" stroke-opacity="1" stroke-width="2" d=" M35.82600021362305,130.45599365234375 C35.82600021362305,130.45599365234375 45.641998291015625,93.80799865722656 45.641998291015625,93.80799865722656 C46.68899917602539,90.01200103759766 50.354000091552734,87.5250015258789 54.150001525878906,88.04900360107422 C54.150001525878906,88.04900360107422 135.9530029296875,97.99700164794922 135.9530029296875,97.99700164794922"></path></g><g opacity="1" transform="matrix(1,0,0,1,-1,-1)"><path stroke-linecap="round" stroke-linejoin="round" fill-opacity="0" stroke="rgb(0,0,0)" stroke-opacity="1" stroke-width="2" d=" M101.11699676513672,93.83999633789062 C101.11699676513672,93.83999633789062 107.28900146484375,68.41600036621094 107.28900146484375,68.41600036621094 C108.33599853515625,64.22799682617188 112.39399719238281,61.611000061035156 116.71299743652344,62.26499938964844 C116.71299743652344,62.26499938964844 152.31399536132812,67.76200103759766 152.31399536132812,67.76200103759766"></path></g><g opacity="1" transform="matrix(1,0,0,1,-1,-1)"><path stroke-linecap="round" stroke-linejoin="round" fill-opacity="0" stroke="rgb(0,0,0)" stroke-opacity="1" stroke-width="2" d=" M184.38099670410156,301 C184.38099670410156,301 186.47500610351562,252.0489959716797 164.61700439453125,229.53700256347656 C142.75999450683594,207.0240020751953 133.99000549316406,173.91000366210938 133.99000549316406,173.91000366210938"></path></g><g opacity="1" transform="matrix(1,0,0,1,-1,-1)"><path stroke-linecap="round" stroke-linejoin="round" fill-opacity="0" stroke="rgb(0,0,0)" stroke-opacity="1" stroke-width="2" d=" M172.20899963378906,152.052001953125 C172.20899963378906,152.052001953125 223.51600646972656,161.60699462890625 236.86599731445312,195.11399841308594"></path></g><g opacity="1" transform="matrix(1,0,0,1,-1,-1)"><path stroke-linecap="round" stroke-linejoin="round" fill-opacity="0" stroke="rgb(0,0,0)" stroke-opacity="1" stroke-width="2" d=" M201.13400268554688,161.73800659179688 C201.13400268554688,161.73800659179688 236.86599731445312,161.73800659179688 236.86599731445312,161.73800659179688"></path></g><g opacity="1" transform="matrix(1,0,0,1,-1,-1)"><path stroke-linecap="round" stroke-linejoin="round" fill-opacity="0" stroke="rgb(0,0,0)" stroke-opacity="1" stroke-width="2" d=" M245.37399291992188,115.27300262451172 C245.37399291992188,115.27300262451172 236.86599731445312,138.44000244140625 223.38499450683594,136.60800170898438 C209.7729949951172,134.77499389648438 226.0030059814453,100.61399841308594 234.37899780273438,93.93900299072266 C242.88699340820312,87.26399993896484 258.07000732421875,95.11699676513672 271.6820068359375,148.38699340820312 C285.29400634765625,201.6580047607422 283.3299865722656,301 283.3299865722656,301"></path></g><g opacity="1" transform="matrix(1,0,0,1,-1,-1)"><path stroke-linecap="round" stroke-linejoin="round" fill-opacity="0" stroke="rgb(0,0,0)" stroke-opacity="1" stroke-width="2" d=" M238.9600067138672,91.97599792480469 C238.9600067138672,91.97599792480469 233.8560028076172,76.53099822998047 221.0290069580078,80.8499984741211 C208.20199584960938,85.16999816894531 197.7310028076172,127.70700073242188 198.51699829101562,138.70199584960938 C199.302001953125,149.6959991455078 214.61599731445312,143.15199279785156 219.0659942626953,133.72799682617188"></path></g><g opacity="1" transform="matrix(1,0,0,1,-1,-1)"><path stroke-linecap="round" stroke-linejoin="round" fill-opacity="0" stroke="rgb(0,0,0)" stroke-opacity="1" stroke-width="2" d=" M217.88800048828125,82.68299865722656 C217.88800048828125,82.68299865722656 202.83599853515625,66.19200134277344 191.5800018310547,84.12300109863281 C180.32400512695312,102.05400085449219 179.01499938964844,139.22500610351562 183.07200622558594,147.6020050048828 C187.1300048828125,155.97900390625 199.43299865722656,141.9739990234375 199.43299865722656,141.9739990234375"></path></g><g opacity="1" transform="matrix(1,0,0,1,-1,-1)"><path stroke-linecap="round" stroke-linejoin="round" fill-opacity="0" stroke="rgb(0,0,0)" stroke-opacity="1" stroke-width="2" d=" M194.7209930419922,80.06500244140625 C194.7209930419922,80.06500244140625 185.16600036621094,60.82500076293945 172.20899963378906,63.180999755859375 C159.25100708007812,65.53700256347656 138.0469970703125,91.71399688720703 134.12100219726562,102.05400085449219 C130.19400024414062,112.39399719238281 144.72300720214844,117.62899780273438 157.5489959716797,109.12200164794922 C170.37600708007812,100.61399841308594 179.93099975585938,91.97599792480469 179.93099975585938,91.97599792480469"></path></g><g opacity="1" transform="matrix(1,0,0,1,-1,-1)"><path stroke-linecap="round" stroke-linejoin="round" fill-opacity="0" stroke="rgb(0,0,0)" stroke-opacity="1" stroke-width="2" d=" M201.13400268554688,119.46199798583984 C201.13400268554688,119.46199798583984 207.6790008544922,119.33100128173828 206.89300537109375,127.44599914550781 C206.10800170898438,135.69200134277344 204.01400756835938,143.15199279785156 200.3489990234375,143.15199279785156"></path></g><g opacity="1" transform="matrix(1,0,0,1,-1,-1)"><path stroke-linecap="round" stroke-linejoin="round" fill-opacity="0" stroke="rgb(0,0,0)" stroke-opacity="1" stroke-width="2" d=" M220.11300659179688,118.6760025024414 C220.11300659179688,118.6760025024414 225.08599853515625,121.03199768066406 224.95599365234375,127.5770034790039 C224.8249969482422,134.12100219726562 221.4219970703125,136.08399963378906 221.4219970703125,136.08399963378906"></path></g><g opacity="1" transform="matrix(1,0,0,1,-1,-1)"><path stroke-linecap="round" stroke-linejoin="round" fill-opacity="0" stroke="rgb(0,0,0)" stroke-opacity="1" stroke-width="2" d=" M141.4510040283203,89.7509994506836 C141.4510040283203,89.7509994506836 147.86399841308594,94.33200073242188 144.46099853515625,101.26899719238281 C141.05799865722656,108.20600128173828 135.2989959716797,109.90699768066406 135.2989959716797,109.90699768066406"></path></g><g opacity="1" transform="matrix(1,0,0,1,-1,-1)"><path stroke-linecap="round" stroke-linejoin="round" fill-opacity="0" stroke="rgb(0,0,0)" stroke-opacity="1" stroke-width="2" d=" M199.0399932861328,51.00899887084961 C199.0399932861328,43.154998779296875 192.6269989013672,36.87300109863281 184.9040069580078,36.87300109863281 C192.75799560546875,36.87300109863281 199.0399932861328,30.458999633789062 199.0399932861328,22.73699951171875 C199.0399932861328,30.59000015258789 205.45399475097656,36.87300109863281 213.17599487304688,36.87300109863281 C205.45399475097656,36.87300109863281 199.0399932861328,43.15599822998047 199.0399932861328,51.00899887084961 C199.0399932861328,51.00899887084961 199.0399932861328,51.00899887084961 199.0399932861328,51.00899887084961z"></path></g><g opacity="1" transform="matrix(1,0,0,1,-1,-1)"><path stroke-linecap="round" stroke-linejoin="round" fill-opacity="0" stroke="rgb(0,0,0)" stroke-opacity="1" stroke-width="2" d=" M125.48200225830078,258.4620056152344 C125.48200225830078,247.5989990234375 116.71299743652344,238.82899475097656 105.8499984741211,238.82899475097656 C116.71299743652344,238.82899475097656 125.48200225830078,230.05999755859375 125.48200225830078,219.19700622558594 C125.48200225830078,230.05999755859375 134.2519989013672,238.82899475097656 145.11500549316406,238.82899475097656 C134.2519989013672,238.82899475097656 125.48200225830078,247.5989990234375 125.48200225830078,258.4620056152344 C125.48200225830078,258.4620056152344 125.48200225830078,258.4620056152344 125.48200225830078,258.4620056152344z"></path></g><g opacity="1" transform="matrix(1,0,0,1,-1,-1)"><path stroke-linecap="round" stroke-linejoin="round" fill-opacity="0" stroke="rgb(0,0,0)" stroke-opacity="1" stroke-width="2" d=" M27.448999404907227,197.47000122070312 C27.448999404907227,190.13999938964844 21.429000854492188,184.11900329589844 14.098999977111816,184.11900329589844 C21.42799949645996,184.11900329589844 27.448999404907227,178.09800720214844 27.448999404907227,170.7689971923828 C27.448999404907227,178.09800720214844 33.470001220703125,184.11900329589844 40.79999923706055,184.11900329589844 C33.470001220703125,184.11900329589844 27.448999404907227,190.13999938964844 27.448999404907227,197.47000122070312 C27.448999404907227,197.47000122070312 27.448999404907227,197.47000122070312 27.448999404907227,197.47000122070312z"></path></g><g opacity="1" transform="matrix(0.8780866265296936,0,0,0.8780866265296936,4.021854400634766,26.616546630859375)"><path fill="rgb(0,0,0)" fill-opacity="1" d=" M41.19200134277344,252.4409942626953 C41.19200134277344,238.1750030517578 29.673999786376953,226.5260009765625 15.277000427246094,226.5260009765625 C29.542999267578125,226.5260009765625 41.19200134277344,215.00799560546875 41.19200134277344,200.61099243164062 C41.19200134277344,214.8769989013672 52.71099853515625,226.5260009765625 67.10800170898438,226.5260009765625 C52.709999084472656,226.5260009765625 41.19200134277344,238.1750030517578 41.19200134277344,252.4409942626953 C41.19200134277344,252.4409942626953 41.19200134277344,252.4409942626953 41.19200134277344,252.4409942626953z"></path><path stroke-linecap="round" stroke-linejoin="round" fill-opacity="0" stroke="rgb(0,0,0)" stroke-opacity="1" stroke-width="2" d=" M41.19200134277344,252.4409942626953 C41.19200134277344,238.1750030517578 29.673999786376953,226.5260009765625 15.277000427246094,226.5260009765625 C29.542999267578125,226.5260009765625 41.19200134277344,215.00799560546875 41.19200134277344,200.61099243164062 C41.19200134277344,214.8769989013672 52.71099853515625,226.5260009765625 67.10800170898438,226.5260009765625 C52.709999084472656,226.5260009765625 41.19200134277344,238.1750030517578 41.19200134277344,252.4409942626953 C41.19200134277344,252.4409942626953 41.19200134277344,252.4409942626953 41.19200134277344,252.4409942626953z"></path></g><g opacity="1" transform="matrix(0.8780866265296936,0,0,0.8780866265296936,25.967254638671875,6.032451629638672)"><path fill="rgb(0,0,0)" fill-opacity="1" d=" M278.6180114746094,83.99199676513672 C278.6180114746094,69.46299743652344 266.8389892578125,57.683998107910156 252.30999755859375,57.683998107910156 C266.8389892578125,57.683998107910156 278.6180114746094,45.90399932861328 278.6180114746094,31.375999450683594 C278.6180114746094,45.90399932861328 290.39801025390625,57.683998107910156 304.9259948730469,57.683998107910156 C290.2669982910156,57.814998626708984 278.6180114746094,69.46399688720703 278.6180114746094,83.99199676513672 C278.6180114746094,83.99199676513672 278.6180114746094,83.99199676513672 278.6180114746094,83.99199676513672z"></path><path stroke-linecap="round" stroke-linejoin="round" fill-opacity="0" stroke="rgb(0,0,0)" stroke-opacity="1" stroke-width="2" d=" M278.6180114746094,83.99199676513672 C278.6180114746094,69.46299743652344 266.8389892578125,57.683998107910156 252.30999755859375,57.683998107910156 C266.8389892578125,57.683998107910156 278.6180114746094,45.90399932861328 278.6180114746094,31.375999450683594 C278.6180114746094,45.90399932861328 290.39801025390625,57.683998107910156 304.9259948730469,57.683998107910156 C290.2669982910156,57.814998626708984 278.6180114746094,69.46399688720703 278.6180114746094,83.99199676513672 C278.6180114746094,83.99199676513672 278.6180114746094,83.99199676513672 278.6180114746094,83.99199676513672z"></path></g><g opacity="1" transform="matrix(1,0,0,1,57.599998474121094,55.76799774169922)"><g opacity="1" transform="matrix(1,0,0,1,-58.599998474121094,-56.768001556396484)"><path fill="rgb(0,0,0)" fill-opacity="1" d=" M84.7770004272461,109.12200164794922 C99.23400115966797,109.12200164794922 110.9540023803711,97.4020004272461 110.9540023803711,82.94499969482422 C110.9540023803711,68.48799896240234 99.23400115966797,56.768001556396484 84.7770004272461,56.768001556396484 C70.31999969482422,56.768001556396484 58.599998474121094,68.48799896240234 58.599998474121094,82.94499969482422 C58.599998474121094,97.4020004272461 70.31999969482422,109.12200164794922 84.7770004272461,109.12200164794922 C84.7770004272461,109.12200164794922 84.7770004272461,109.12200164794922 84.7770004272461,109.12200164794922z"></path></g><g opacity="1" transform="matrix(1,0,0,1,-58.599998474121094,-56.768001556396484)"><path stroke-linecap="round" stroke-linejoin="round" fill-opacity="0" stroke="rgb(255,255,255)" stroke-opacity="1" stroke-width="2" d=" M94.46299743652344,78.625 C94.59400177001953,77.31700134277344 94.33100128173828,76.00800323486328 93.5459976196289,74.83000183105469 C91.71399688720703,71.55799865722656 87.5250015258789,70.51100158691406 84.38400268554688,72.34300231933594 C82.68299865722656,73.38999938964844 81.50499725341797,74.96099853515625 81.24299621582031,76.79299926757812 C79.54199981689453,76.2699966430664 77.447998046875,76.2699966430664 75.74600219726562,77.31700134277344 C72.4739990234375,79.14900207519531 71.427001953125,83.33799743652344 73.25900268554688,86.47899627685547 C73.91400146484375,87.65699768066406 74.96099853515625,88.5719985961914 76.13899993896484,89.09600067138672 C76.66200256347656,89.35800170898438 77.31700134277344,89.48899841308594 77.83999633789062,89.62000274658203 C77.83999633789062,89.62000274658203 91.05999755859375,93.93900299072266 91.05999755859375,93.93900299072266 C91.05999755859375,93.93900299072266 94.06999969482422,80.3270034790039 94.06999969482422,80.3270034790039 C94.33200073242188,79.8030014038086 94.46299743652344,79.14900207519531 94.46299743652344,78.625 C94.46299743652344,78.625 94.46299743652344,78.625 94.46299743652344,78.625z"></path></g></g></g></g></g></g></svg>