<svg width="48" height="48" viewBox="0 0 48 48" fill="none" xmlns="http://www.w3.org/2000/svg">
<circle cx="24" cy="24" r="24" fill="#121527"/>
<path d="M29 20C29 20.9889 28.7068 21.9556 28.1573 22.7779C27.6079 23.6001 26.827 24.241 25.9134 24.6194C24.9998 24.9978 23.9945 25.0969 23.0245 24.9039C22.0546 24.711 21.1637 24.2348 20.4645 23.5355C19.7652 22.8363 19.289 21.9454 19.0961 20.9755C18.9031 20.0055 19.0022 19.0002 19.3806 18.0866C19.759 17.173 20.3999 16.3921 21.2221 15.8427C22.0444 15.2932 23.0111 15 24 15C25.3261 15 26.5979 15.5268 27.5355 16.4645C28.4732 17.4021 29 18.6739 29 20ZM21 25C19.6739 25 18.4021 25.5268 17.4645 26.4645C16.5268 27.4021 16 28.6739 16 30V30V31C16 31 18 33 24 33C30 33 32 31 32 31V30C32 28.6739 31.4732 27.4021 30.5355 26.4645C29.5979 25.5268 28.3261 25 27 25H21Z" stroke="white" stroke-width="2" stroke-linecap="round" stroke-linejoin="round"/>
</svg>