<svg width="24" height="24" viewBox="0 0 29 26" fill="none" xmlns="http://www.w3.org/2000/svg">
<path d="M29 0V4.33333H28.25C26.4722 4.33333 25.0556 4.63889 24 5.25C22.9444 5.86111 22.1667 6.83333 21.6667 8.16667C21.2222 9.44444 21 11.0833 21 13.0833V19.3333L19 15.5833C19.3889 15.3611 19.8889 15.1944 20.5 15.0833C21.1667 14.9722 21.8056 14.9167 22.4167 14.9167C23.9722 14.9167 25.25 15.4167 26.25 16.4167C27.3056 17.3611 27.8333 18.6944 27.8333 20.4167C27.8333 22.0278 27.3333 23.3611 26.3333 24.4167C25.3889 25.4722 24.0833 26 22.4167 26C21.3611 26 20.3611 25.75 19.4167 25.25C18.4722 24.75 17.6944 23.8611 17.0833 22.5833C16.4722 21.3056 16.1667 19.4722 16.1667 17.0833V15.3333C16.1667 11.2778 16.6667 8.13889 17.6667 5.91667C18.6667 3.69445 20.0833 2.16667 21.9167 1.33333C23.75 0.444442 25.9167 0 28.4167 0H29ZM12.8333 0V4.33333H12.0833C10.3056 4.33333 8.88889 4.63889 7.83333 5.25C6.77778 5.86111 6 6.83333 5.5 8.16667C5.05555 9.44444 4.83333 11.0833 4.83333 13.0833V19.3333L2.83333 15.5833C3.22222 15.3611 3.72222 15.1944 4.33333 15.0833C5 14.9722 5.63889 14.9167 6.25 14.9167C7.80556 14.9167 9.08333 15.4167 10.0833 16.4167C11.1389 17.3611 11.6667 18.6944 11.6667 20.4167C11.6667 22.0278 11.1667 23.3611 10.1667 24.4167C9.22222 25.4722 7.91667 26 6.25 26C5.19444 26 4.19444 25.75 3.25 25.25C2.30556 24.75 1.52778 23.8611 0.916667 22.5833C0.305556 21.3056 0 19.4722 0 17.0833V15.3333C0 11.2778 0.5 8.13889 1.5 5.91667C2.5 3.69445 3.91667 2.16667 5.75 1.33333C7.58333 0.444442 9.75 0 12.25 0H12.8333Z" fill="#121527"/>
</svg>