<svg xmlns="http://www.w3.org/2000/svg" viewBox="0 0 250 218" width="250" height="218" style="width: 100%; height: 100%; transform: translate3d(0px, 0px, 0px);" preserveAspectRatio="xMidYMid meet"><defs><clipPath id="__lottie_element_309"><rect width="250" height="218" x="0" y="0"></rect></clipPath></defs><g clip-path="url(#__lottie_element_309)"><g style="display: block;" transform="matrix(1,0,0,1,124.9939956665039,109.14801025390625)" opacity="1"><g opacity="1" transform="matrix(2,0,0,2,0,0)"><path stroke-linecap="round" stroke-linejoin="round" fill-opacity="0" stroke="rgb(0,0,0)" stroke-opacity="1" stroke-width="2" d=" M-29.799999237060547,-12.576000213623047 C-29.799999237060547,-12.576000213623047 15.199999809265137,-28.97599983215332 15.199999809265137,-28.97599983215332 C18.299999237060547,-30.076000213623047 21.799999237060547,-28.47599983215332 23,-25.47599983215332 C23,-25.47599983215332 33.400001525878906,3.124000072479248 33.400001525878906,3.124000072479248 C34.5,6.223999977111816 32.900001525878906,9.723999977111816 29.799999237060547,10.824000358581543 C29.799999237060547,10.824000358581543 15.300000190734863,16.124000549316406 15.300000190734863,16.124000549316406 C15.300000190734863,16.124000549316406 11,29.323999404907227 11,29.323999404907227 C11,29.323999404907227 -0.800000011920929,22.02400016784668 -0.800000011920929,22.02400016784668 C-0.800000011920929,22.02400016784668 -15.300000190734863,27.323999404907227 -15.300000190734863,27.323999404907227 C-18.399999618530273,28.423999786376953 -21.899999618530273,26.823999404907227 -23,23.724000930786133 C-23,23.724000930786133 -33.400001525878906,-4.875999927520752 -33.400001525878906,-4.875999927520752 C-34.5,-7.97599983215332 -32.900001525878906,-11.47599983215332 -29.799999237060547,-12.576000213623047z"></path></g></g><g style="display: block;" transform="matrix(1,0,0,1,122.35599517822266,105.81501007080078)" opacity="1"><g opacity="1" transform="matrix(2,0,0,2,0,0)"><path fill="rgb(0,0,0)" fill-opacity="1" d=" M10.718999862670898,-7.710000038146973 C11.519000053405762,-6.110000133514404 11.718999862670898,-4.409999847412109 11.319000244140625,-2.9100000858306885 C11.119000434875488,-2.309999942779541 10.918999671936035,-1.7100000381469727 10.519000053405762,-1.2100000381469727 C10.519000053405762,-1.2100000381469727 5.61899995803833,10.6899995803833 5.61899995803833,10.6899995803833 C5.419000148773193,11.1899995803833 4.718999862670898,11.489999771118164 4.218999862670898,11.1899995803833 C4.218999862670898,11.1899995803833 -7.181000232696533,5.190000057220459 -7.181000232696533,5.190000057220459 C-7.781000137329102,4.989999771118164 -8.281000137329102,4.789999961853027 -8.781000137329102,4.389999866485596 C-10.081000328063965,3.390000104904175 -10.980999946594238,1.9900000095367432 -11.380999565124512,0.28999999165534973 C-11.980999946594238,-2.609999895095825 -10.581000328063965,-5.610000133514404 -8.081000328063965,-7.010000228881836 C-5.88100004196167,-8.210000038146973 -3.38100004196167,-8.109999656677246 -1.4809999465942383,-7.010000228881836 C-0.6809999942779541,-9.109999656677246 1.0190000534057617,-10.710000038146973 3.5190000534057617,-11.210000038146973 C6.419000148773193,-11.710000038146973 9.319000244140625,-10.3100004196167 10.718999862670898,-7.710000038146973z"></path></g></g></g></svg>